<?xml version="1.0" encoding="UTF-8" standalone="no"?>
<!-- Created with Inkscape (http://www.inkscape.org/) -->

<svg
   xmlns:dc="http://purl.org/dc/elements/1.1/"
   xmlns:cc="http://creativecommons.org/ns#"
   xmlns:rdf="http://www.w3.org/1999/02/22-rdf-syntax-ns#"
   xmlns:svg="http://www.w3.org/2000/svg"
   xmlns="http://www.w3.org/2000/svg"
   xmlns:sodipodi="http://sodipodi.sourceforge.net/DTD/sodipodi-0.dtd"
   xmlns:inkscape="http://www.inkscape.org/namespaces/inkscape"
   width="210mm"
   height="297mm"
   id="svg6080"
   version="1.1"
   inkscape:version="0.48.4 r"
   sodipodi:docname="menu.svg">
  <defs
     id="defs3" />
  <sodipodi:namedview
     inkscape:document-units="mm"
     id="base"
     pagecolor="#ffffff"
     bordercolor="#666666"
     borderopacity="1.0"
     inkscape:pageopacity="0.0"
     inkscape:pageshadow="2"
     inkscape:zoom="0.35"
     inkscape:cx="350"
     inkscape:cy="634.28571"
     inkscape:current-layer="layer1"
     showgrid="false"
     inkscape:window-width="1920"
     inkscape:window-height="1018"
     inkscape:window-x="-8"
     inkscape:window-y="-8"
     inkscape:window-maximized="1" />
  <metadata
     id="metadata4">
    <rdf:RDF>
      <cc:Work
         rdf:about="">
        <dc:format>image/svg+xml</dc:format>
        <dc:type
           rdf:resource="http://purl.org/dc/dcmitype/StillImage" />
        <dc:title></dc:title>
      </cc:Work>
    </rdf:RDF>
  </metadata>
  <g
     inkscape:label="Layer 1"
     inkscape:groupmode="layer"
     id="layer1">
    <g
       transform="matrix(1.25,0,0,-1.25,-520.38524,1085.6769)"
       id="g5642">
      <path
         d="m 460.406,826.952 0,-28.027 -35.566,0 19.195,19.547 -19.195,19.551 54.988,0 -19.422,-11.071 z"
         style="fill:#ffd043;fill-opacity:1;fill-rule:evenodd;stroke:none"
         id="path3204"
         inkscape:connector-curvature="0" />
      <path
         d="m 460.848,826.698 0,-27.773 c 0,-0.246 -0.2,-0.445 -0.442,-0.445 l -35.566,0 c -0.242,0 -0.442,0.199 -0.442,0.445 0,0.133 0.059,0.25 0.153,0.332 l 18.863,19.215 -18.887,19.242 0.313,0.309 -0.317,-0.309 c -0.168,0.172 -0.168,0.453 0.008,0.625 0.098,0.094 0.223,0.137 0.348,0.125 l 54.945,0 c 0.246,0 0.446,-0.199 0.446,-0.441 0,-0.176 -0.106,-0.332 -0.254,-0.403 l -19.168,-10.922 z m -0.887,-27.332 0,27.586 c 0,0.157 0.082,0.305 0.223,0.387 l 0.222,-0.387 -0.218,0.387 17.972,10.242 -52.265,0 18.429,-18.773 0.02,-0.02 c 0.176,-0.172 0.176,-0.449 0.008,-0.625 l -0.317,0.309 0.313,-0.309 -18.453,-18.797 34.066,0 z"
         style="fill:#c66b36;fill-opacity:1;fill-rule:evenodd;stroke:none"
         id="path3206"
         inkscape:connector-curvature="0" />
      <path
         d="m 747.07,826.952 0,-28.027 35.563,0 -19.195,19.547 19.195,19.551 -54.985,0 19.422,-11.071 z"
         style="fill:#ffd043;fill-opacity:1;fill-rule:evenodd;stroke:none"
         id="path3208"
         inkscape:connector-curvature="0" />
      <path
         d="m 747.512,826.952 0,-27.586 34.066,0 -18.453,18.797 0.313,0.309 -0.313,-0.309 c -0.172,0.176 -0.172,0.453 0.004,0.625 l 0.019,0.02 18.43,18.773 -52.266,0 17.973,-10.242 -0.219,-0.387 0.223,0.387 c 0.141,-0.082 0.223,-0.23 0.223,-0.387 z m -0.887,-28.027 0,27.773 -19.168,10.922 c -0.148,0.071 -0.254,0.227 -0.254,0.403 0,0.246 0.199,0.441 0.445,0.441 l 54.946,0 c 0.125,0.012 0.254,-0.031 0.347,-0.125 0.176,-0.172 0.18,-0.453 0.008,-0.625 l -0.316,0.309 0.312,-0.309 -18.886,-19.242 18.863,-19.215 c 0.094,-0.082 0.152,-0.199 0.152,-0.332 0,-0.246 -0.199,-0.445 -0.441,-0.445 l -35.567,0 c -0.242,0 -0.441,0.199 -0.441,0.445 z"
         style="fill:#c66b36;fill-opacity:1;fill-rule:evenodd;stroke:none"
         id="path3210"
         inkscape:connector-curvature="0" />
      <path
         d="m 460.406,826.952 19.422,11.071 0,-12.86 c -6.476,0.563 -12.949,1.16 -19.422,1.789 z"
         style="fill:#fabb00;fill-opacity:1;fill-rule:evenodd;stroke:none"
         id="path3212"
         inkscape:connector-curvature="0" />
      <path
         d="m 460.215,827.355 19.394,11.051 -0.004,0 c 0.215,0.121 0.485,0.046 0.606,-0.165 0.039,-0.07 0.059,-0.144 0.059,-0.218 l 0,-12.86 c 0,-0.246 -0.2,-0.441 -0.442,-0.441 -0.019,0 -0.035,0 -0.051,0 -3.023,0.266 -6.254,0.555 -9.703,0.871 -3.254,0.301 -6.492,0.609 -9.711,0.922 l 0.043,0.437 -0.043,-0.441 c -0.246,0.023 -0.422,0.242 -0.398,0.484 0.015,0.161 0.113,0.293 0.25,0.36 z m 19.168,9.906 -17.551,-10.004 c 2.789,-0.269 5.563,-0.531 8.324,-0.785 2.879,-0.266 5.957,-0.539 9.227,-0.824 l 0,11.613 z"
         style="fill:#c66b36;fill-opacity:1;fill-rule:evenodd;stroke:none"
         id="path3214"
         inkscape:connector-curvature="0" />
      <path
         d="m 747.07,826.952 -19.422,11.071 0,-12.86 c 6.473,0.563 12.946,1.16 19.422,1.789 z"
         style="fill:#fabb00;fill-opacity:1;fill-rule:evenodd;stroke:none"
         id="path3216"
         inkscape:connector-curvature="0" />
      <path
         d="m 745.641,827.257 -17.551,10.004 0,-11.613 c 3.269,0.285 6.348,0.558 9.226,0.824 2.762,0.254 5.536,0.516 8.325,0.785 z m -17.774,11.149 19.391,-11.051 c 0.137,-0.067 0.234,-0.199 0.25,-0.36 0.023,-0.242 -0.153,-0.461 -0.399,-0.484 l -0.039,0.441 0.039,-0.437 c -3.218,-0.313 -6.453,-0.621 -9.711,-0.922 -3.449,-0.316 -6.679,-0.605 -9.703,-0.871 -0.015,0 -0.031,0 -0.047,0 -0.246,0 -0.445,0.199 -0.445,0.441 l 0,12.86 c 0,0.074 0.02,0.148 0.059,0.218 0.121,0.211 0.39,0.286 0.605,0.165 z"
         style="fill:#c66b36;fill-opacity:1;fill-rule:evenodd;stroke:none"
         id="path3218"
         inkscape:connector-curvature="0" />
      <path
         d="m 680.086,826.952 66.984,0 0,-39.098 -66.984,0 0,39.098 z"
         style="fill:#ffde7e;fill-opacity:1;fill-rule:evenodd;stroke:none"
         id="path3220"
         inkscape:connector-curvature="0" />
      <path
         d="m 680.086,827.398 67.426,0 0,-39.989 -67.871,0 0,39.989 0.445,0 z m 66.539,-0.887 -66.098,0 0,-38.215 66.098,0 0,38.215 z"
         style="fill:#c66b36;fill-opacity:1;fill-rule:evenodd;stroke:none"
         id="path3222"
         inkscape:connector-curvature="0" />
      <path
         d="m 606.859,826.952 66.984,0 0,-39.098 -66.984,0 0,39.098 z"
         style="fill:#ffde7e;fill-opacity:1;fill-rule:evenodd;stroke:none"
         id="path3224"
         inkscape:connector-curvature="0" />
      <path
         d="m 606.859,827.398 67.426,0 0,-39.989 -67.871,0 0,39.989 0.445,0 z m 66.539,-0.887 -66.097,0 0,-38.215 66.097,0 0,38.215 z"
         style="fill:#c66b36;fill-opacity:1;fill-rule:evenodd;stroke:none"
         id="path3226"
         inkscape:connector-curvature="0" />
      <path
         d="m 533.633,826.952 66.984,0 0,-39.098 -66.984,0 0,39.098 z"
         style="fill:#ffde7e;fill-opacity:1;fill-rule:evenodd;stroke:none"
         id="path3228"
         inkscape:connector-curvature="0" />
      <path
         d="m 533.633,827.398 67.426,0 0,-39.989 -67.871,0 0,39.989 0.445,0 z m 66.539,-0.887 -66.098,0 0,-38.215 66.098,0 0,38.215 z"
         style="fill:#c66b36;fill-opacity:1;fill-rule:evenodd;stroke:none"
         id="path3230"
         inkscape:connector-curvature="0" />
      <path
         d="m 460.406,826.952 66.984,0 0,-39.098 -66.984,0 0,39.098 z"
         style="fill:#ffde7e;fill-opacity:1;fill-rule:evenodd;stroke:none"
         id="path3232"
         inkscape:connector-curvature="0" />
      <path
         d="m 460.406,827.398 67.426,0 0,-39.989 -67.871,0 0,39.989 0.445,0 z m 66.539,-0.887 -66.097,0 0,-38.215 66.097,0 0,38.215 z"
         style="fill:#c66b36;fill-opacity:1;fill-rule:evenodd;stroke:none"
         id="path3234"
         inkscape:connector-curvature="0" />
      <path
         d="m 702.926,805.382 c 0,-0.887 -0.192,-1.723 -0.578,-2.508 -0.379,-0.789 -0.899,-1.48 -1.551,-2.07 -0.66,-0.598 -1.418,-1.07 -2.281,-1.418 -0.864,-0.348 -1.786,-0.523 -2.758,-0.523 -1.082,0 -2.024,0.183 -2.824,0.554 -0.801,0.367 -1.465,0.867 -1.993,1.489 -0.523,0.625 -0.918,1.347 -1.179,2.167 -0.258,0.817 -0.391,1.672 -0.391,2.575 0,0.636 0.086,1.242 0.262,1.828 0.179,0.586 0.426,1.129 0.754,1.637 0.324,0.503 0.711,0.968 1.168,1.382 0.457,0.418 0.961,0.774 1.515,1.071 0.555,0.297 1.153,0.527 1.797,0.687 0.637,0.164 1.313,0.242 2.016,0.242 0.101,0 0.168,-0.07 0.207,-0.218 0.039,-0.149 0.055,-0.325 0.055,-0.516 0,-0.199 -0.008,-0.391 -0.02,-0.574 -0.016,-0.188 -0.02,-0.317 -0.02,-0.391 0.067,0.063 0.184,0.164 0.336,0.309 0.161,0.144 0.332,0.297 0.504,0.449 0.176,0.156 0.344,0.293 0.508,0.414 0.164,0.117 0.277,0.176 0.348,0.176 l 0.047,0 c 0.711,-0.324 1.32,-0.731 1.836,-1.211 0.515,-0.485 0.937,-1.02 1.269,-1.613 0.328,-0.59 0.574,-1.219 0.731,-1.887 0.16,-0.672 0.242,-1.356 0.242,-2.051 z m -2.555,-0.934 c 0,0.473 -0.039,0.981 -0.109,1.524 -0.071,0.539 -0.196,1.066 -0.379,1.574 -0.184,0.512 -0.43,0.981 -0.746,1.418 -0.313,0.438 -0.715,0.785 -1.199,1.043 l -0.172,0.02 c -0.442,0 -0.661,-0.207 -0.661,-0.621 l 0,-7.727 c 0,-0.207 -0.082,-0.398 -0.238,-0.574 -0.156,-0.176 -0.351,-0.332 -0.578,-0.477 -0.227,-0.14 -0.461,-0.265 -0.711,-0.375 -0.246,-0.109 -0.457,-0.191 -0.633,-0.254 0.176,-0.054 0.356,-0.09 0.539,-0.109 0.18,-0.024 0.368,-0.031 0.559,-0.031 0.687,0 1.301,0.129 1.836,0.39 0.539,0.258 0.992,0.606 1.359,1.035 0.367,0.426 0.653,0.914 0.84,1.469 0.195,0.551 0.293,1.113 0.293,1.695 z m -5.73,6.762 c -0.407,-0.074 -0.754,-0.222 -1.047,-0.441 -0.297,-0.219 -0.543,-0.485 -0.746,-0.793 -0.203,-0.313 -0.368,-0.656 -0.493,-1.028 -0.121,-0.378 -0.218,-0.757 -0.289,-1.144 -0.066,-0.383 -0.109,-0.762 -0.136,-1.141 -0.024,-0.375 -0.035,-0.711 -0.035,-1.015 0,-0.426 0.027,-0.891 0.082,-1.395 0.054,-0.504 0.16,-0.996 0.316,-1.48 0.152,-0.485 0.367,-0.934 0.641,-1.348 0.273,-0.414 0.632,-0.746 1.07,-0.988 0.156,0.074 0.273,0.152 0.359,0.23 0.082,0.082 0.145,0.172 0.188,0.27 0.043,0.097 0.066,0.203 0.074,0.32 0.012,0.117 0.016,0.242 0.016,0.387 l 0,9.566 z m 12.429,1.149 c 0.059,-0.028 0.157,-0.063 0.297,-0.11 0.137,-0.043 0.289,-0.093 0.457,-0.152 0.164,-0.063 0.34,-0.125 0.52,-0.195 0.176,-0.067 0.336,-0.137 0.484,-0.196 0.145,-0.066 0.266,-0.125 0.36,-0.183 0.097,-0.059 0.14,-0.106 0.14,-0.137 0,-0.027 -0.027,-0.082 -0.086,-0.168 -0.054,-0.086 -0.129,-0.18 -0.219,-0.297 -0.085,-0.109 -0.183,-0.223 -0.285,-0.344 -0.105,-0.117 -0.211,-0.23 -0.312,-0.328 -0.102,-0.105 -0.192,-0.187 -0.266,-0.25 -0.082,-0.066 -0.133,-0.097 -0.16,-0.097 -0.039,0 -0.121,0.023 -0.246,0.078 -0.125,0.051 -0.262,0.109 -0.41,0.176 -0.149,0.066 -0.293,0.132 -0.426,0.195 -0.137,0.066 -0.23,0.113 -0.285,0.14 l 0.019,0 -0.281,0.125 c -0.055,-0.062 -0.09,-0.128 -0.105,-0.203 -0.012,-0.07 -0.016,-0.14 -0.016,-0.218 0,-0.157 0.043,-0.34 0.141,-0.555 0.093,-0.219 0.218,-0.422 0.371,-0.613 0.148,-0.196 0.32,-0.356 0.508,-0.493 0.191,-0.132 0.382,-0.203 0.578,-0.203 0.07,0 0.175,0.004 0.32,0.012 0.148,0.012 0.293,0.016 0.441,0.012 0.149,-0.004 0.282,-0.02 0.395,-0.055 0.117,-0.035 0.172,-0.094 0.172,-0.184 0,-0.285 0.004,-0.492 0.008,-0.621 0.004,-0.132 -0.028,-0.218 -0.086,-0.265 -0.063,-0.043 -0.172,-0.063 -0.325,-0.055 -0.156,0.008 -0.39,0.012 -0.699,0.012 -0.015,-0.489 -0.027,-1.039 -0.031,-1.656 -0.008,-0.61 -0.016,-1.258 -0.027,-1.942 -0.008,-0.676 -0.028,-1.367 -0.051,-2.074 -0.024,-0.707 -0.051,-1.395 -0.09,-2.063 -0.039,-0.671 -0.09,-1.304 -0.152,-1.902 -0.067,-0.598 -0.145,-1.121 -0.239,-1.574 -0.015,-0.055 -0.043,-0.102 -0.078,-0.133 -0.043,-0.035 -0.094,-0.051 -0.152,-0.051 l -0.449,0 c -0.133,0.055 -0.25,0.239 -0.344,0.555 -0.094,0.309 -0.172,0.711 -0.234,1.199 -0.059,0.485 -0.11,1.039 -0.149,1.652 -0.031,0.614 -0.066,1.247 -0.094,1.903 -0.027,0.648 -0.05,1.301 -0.07,1.949 -0.019,0.648 -0.047,1.246 -0.074,1.801 -0.024,0.551 -0.063,1.031 -0.102,1.441 -0.047,0.414 -0.105,0.711 -0.179,0.895 -0.055,0 -0.121,-0.004 -0.211,-0.012 -0.082,-0.008 -0.164,-0.004 -0.243,0.004 -0.085,0.012 -0.152,0.031 -0.21,0.059 -0.059,0.023 -0.086,0.074 -0.086,0.152 0,0.18 -0.008,0.332 -0.028,0.453 -0.015,0.125 -0.011,0.219 0.008,0.289 0.02,0.07 0.074,0.121 0.164,0.152 0.086,0.032 0.238,0.047 0.453,0.047 -0.058,0.27 -0.129,0.539 -0.207,0.805 -0.078,0.266 -0.117,0.543 -0.117,0.828 0,0.25 0.059,0.481 0.172,0.699 0.117,0.219 0.258,0.422 0.43,0.61 0.175,0.187 0.363,0.371 0.566,0.543 0.199,0.172 0.395,0.34 0.578,0.5 l 0.242,0.043 z m 7.946,-3.157 c 0.035,-0.066 0.113,-0.211 0.23,-0.429 0.117,-0.219 0.254,-0.477 0.41,-0.774 0.156,-0.297 0.317,-0.613 0.485,-0.937 0.168,-0.328 0.324,-0.633 0.472,-0.914 0.145,-0.282 0.266,-0.52 0.36,-0.715 0.093,-0.195 0.144,-0.301 0.144,-0.324 0,-0.039 -0.101,-0.118 -0.293,-0.227 -0.199,-0.113 -0.449,-0.246 -0.754,-0.394 -0.304,-0.153 -0.636,-0.317 -1,-0.489 -0.359,-0.172 -0.707,-0.336 -1.043,-0.492 -0.332,-0.156 -0.629,-0.293 -0.89,-0.41 -0.262,-0.117 -0.438,-0.203 -0.532,-0.25 0.051,-0.234 0.129,-0.484 0.223,-0.742 0.094,-0.262 0.219,-0.504 0.379,-0.727 0.16,-0.222 0.352,-0.406 0.578,-0.551 0.227,-0.144 0.5,-0.218 0.828,-0.218 0.106,0 0.258,0.027 0.449,0.078 0.192,0.054 0.391,0.125 0.586,0.207 0.204,0.078 0.387,0.168 0.555,0.262 0.168,0.093 0.285,0.183 0.344,0.261 l 0.113,0.024 c 0.043,0 0.09,-0.02 0.133,-0.059 0.035,-0.035 0.07,-0.082 0.098,-0.137 0.027,-0.05 0.05,-0.109 0.066,-0.168 0.02,-0.054 0.023,-0.105 0.023,-0.144 0,-0.012 -0.003,-0.035 -0.007,-0.063 -0.004,-0.027 -0.016,-0.047 -0.028,-0.058 l -3.136,-1.906 -0.2,-0.043 c -0.664,0.191 -1.222,0.496 -1.675,0.914 -0.45,0.421 -0.813,0.898 -1.09,1.441 -0.274,0.539 -0.469,1.109 -0.586,1.715 -0.121,0.605 -0.18,1.195 -0.18,1.762 0,0.668 0.113,1.269 0.336,1.808 0.223,0.539 0.539,1 0.949,1.391 0.407,0.394 0.903,0.711 1.485,0.949 0.582,0.242 1.226,0.402 1.937,0.48 l 0.231,-0.121 z m -0.161,-4.191 -1.64,2.969 -0.418,-0.297 c -0.215,-0.418 -0.359,-0.856 -0.422,-1.317 -0.063,-0.46 -0.094,-0.921 -0.094,-1.378 0,-0.196 0.004,-0.399 0.024,-0.606 0.015,-0.203 0.039,-0.402 0.066,-0.601 l 2.484,1.23 z m 9.965,2.316 c -0.207,-0.121 -0.41,-0.25 -0.617,-0.382 -0.203,-0.137 -0.414,-0.27 -0.625,-0.407 l 0.031,0.02 c -0.047,-0.031 -0.093,-0.063 -0.152,-0.094 -0.051,-0.027 -0.109,-0.047 -0.172,-0.066 -0.051,0 -0.125,0.039 -0.219,0.129 -0.089,0.089 -0.183,0.191 -0.281,0.304 -0.097,0.117 -0.187,0.231 -0.273,0.34 -0.086,0.113 -0.145,0.192 -0.188,0.238 -0.168,-0.14 -0.289,-0.304 -0.355,-0.488 -0.067,-0.183 -0.102,-0.375 -0.102,-0.586 l 0,-5.168 c 0.164,-0.082 0.317,-0.164 0.469,-0.25 0.152,-0.086 0.309,-0.168 0.465,-0.25 0.019,0.008 0.078,0.039 0.172,0.094 0.093,0.051 0.195,0.109 0.3,0.172 0.102,0.058 0.2,0.113 0.282,0.164 0.082,0.043 0.133,0.07 0.14,0.07 0.043,0 0.094,-0.019 0.145,-0.058 0.051,-0.036 0.098,-0.082 0.137,-0.129 0.039,-0.055 0.074,-0.106 0.093,-0.164 0.024,-0.059 0.039,-0.106 0.039,-0.149 0,-0.023 -0.054,-0.082 -0.16,-0.168 -0.101,-0.09 -0.238,-0.195 -0.402,-0.312 -0.156,-0.117 -0.336,-0.242 -0.535,-0.383 -0.192,-0.133 -0.383,-0.262 -0.559,-0.383 -0.18,-0.121 -0.344,-0.226 -0.484,-0.324 -0.145,-0.094 -0.239,-0.16 -0.285,-0.191 l -0.223,0 c -0.402,0.23 -0.809,0.457 -1.215,0.683 -0.406,0.227 -0.816,0.449 -1.238,0.664 l -0.11,0.16 c 0,0.043 0.036,0.106 0.106,0.184 0.07,0.082 0.152,0.168 0.246,0.254 0.098,0.09 0.188,0.172 0.281,0.25 0.09,0.074 0.157,0.133 0.199,0.164 l 0,5.32 c 0,0.063 -0.003,0.141 -0.011,0.238 -0.008,0.094 -0.024,0.184 -0.051,0.266 -0.027,0.086 -0.066,0.16 -0.121,0.223 -0.055,0.062 -0.133,0.097 -0.235,0.097 -0.132,0 -0.257,-0.031 -0.374,-0.093 -0.114,-0.059 -0.223,-0.129 -0.325,-0.211 -0.031,-0.012 -0.062,-0.024 -0.082,-0.032 -0.019,-0.003 -0.039,-0.007 -0.058,-0.007 -0.043,0 -0.086,0.015 -0.133,0.043 -0.047,0.031 -0.094,0.066 -0.137,0.109 -0.047,0.039 -0.078,0.082 -0.109,0.125 -0.032,0.043 -0.051,0.086 -0.059,0.117 0,0.028 0.047,0.094 0.137,0.192 0.094,0.101 0.207,0.222 0.348,0.359 0.144,0.141 0.3,0.285 0.468,0.434 0.168,0.148 0.328,0.289 0.481,0.414 0.152,0.129 0.289,0.238 0.406,0.32 0.121,0.082 0.199,0.129 0.238,0.129 l 0.051,0 c 0.32,-0.156 0.606,-0.352 0.867,-0.578 0.262,-0.235 0.457,-0.504 0.594,-0.813 0.094,0.16 0.207,0.321 0.344,0.481 0.136,0.156 0.285,0.304 0.453,0.433 0.164,0.133 0.34,0.242 0.535,0.332 0.195,0.09 0.395,0.145 0.602,0.16 l 0.203,-0.078 c 0.199,-0.277 0.39,-0.554 0.582,-0.828 0.195,-0.273 0.383,-0.551 0.566,-0.832 l -0.09,-0.258 z m 5.672,-6.367 c 0.043,0 0.086,-0.015 0.141,-0.054 0.047,-0.04 0.097,-0.083 0.152,-0.133 0.047,-0.059 0.09,-0.114 0.121,-0.164 0.035,-0.055 0.059,-0.102 0.063,-0.133 0,-0.039 -0.043,-0.102 -0.129,-0.184 -0.09,-0.078 -0.203,-0.172 -0.344,-0.277 -0.137,-0.106 -0.289,-0.215 -0.453,-0.332 -0.164,-0.113 -0.324,-0.223 -0.477,-0.328 -0.152,-0.102 -0.289,-0.196 -0.406,-0.278 -0.117,-0.082 -0.199,-0.14 -0.25,-0.171 l -0.23,0 -2.301,1.386 -0.113,0.184 c 0,0.027 0.031,0.07 0.086,0.133 0.058,0.058 0.125,0.125 0.195,0.191 0.078,0.066 0.148,0.133 0.219,0.191 0.074,0.063 0.121,0.106 0.148,0.133 l 0,6.063 c -0.055,0 -0.144,-0.008 -0.269,-0.024 -0.125,-0.011 -0.25,-0.015 -0.379,-0.011 -0.129,0.004 -0.243,0.019 -0.34,0.05 -0.098,0.028 -0.145,0.09 -0.145,0.188 l 0,0.609 c 0.043,0.086 0.141,0.153 0.281,0.199 0.145,0.051 0.301,0.11 0.477,0.176 0.176,0.074 0.352,0.176 0.531,0.305 0.18,0.133 0.328,0.332 0.453,0.586 0.082,0.183 0.153,0.379 0.211,0.59 0.063,0.207 0.114,0.426 0.161,0.644 0.043,0.227 0.078,0.446 0.113,0.66 0.035,0.215 0.07,0.426 0.105,0.618 0.008,0.043 0.039,0.078 0.082,0.109 0.047,0.031 0.082,0.055 0.117,0.074 l 0.579,0 c 0.148,0 0.226,-0.07 0.226,-0.211 l 0,-3.277 c 0.063,0 0.184,0.012 0.36,0.027 0.168,0.016 0.343,0.028 0.519,0.028 0.176,0 0.332,-0.02 0.465,-0.059 0.137,-0.035 0.203,-0.105 0.203,-0.207 0,-0.238 0,-0.426 0.004,-0.566 0.004,-0.141 -0.004,-0.258 -0.02,-0.336 -0.015,-0.078 -0.05,-0.137 -0.105,-0.164 -0.055,-0.028 -0.137,-0.039 -0.254,-0.043 -0.113,-0.004 -0.266,0 -0.453,0.011 -0.191,0.016 -0.43,0.024 -0.719,0.024 l 0,-6.254 c 0.113,-0.063 0.219,-0.129 0.317,-0.203 0.097,-0.078 0.203,-0.141 0.32,-0.203 0.039,0.027 0.09,0.062 0.16,0.113 0.07,0.043 0.141,0.094 0.207,0.141 0.074,0.046 0.145,0.085 0.207,0.125 0.07,0.039 0.121,0.054 0.164,0.054 z m 10.047,-0.152 c 0.039,0 0.09,-0.02 0.141,-0.067 0.054,-0.039 0.101,-0.089 0.148,-0.144 0.043,-0.055 0.082,-0.106 0.113,-0.16 0.036,-0.059 0.051,-0.094 0.051,-0.121 0,-0.028 -0.039,-0.082 -0.121,-0.153 -0.082,-0.074 -0.183,-0.16 -0.312,-0.261 -0.129,-0.098 -0.27,-0.196 -0.422,-0.305 -0.153,-0.102 -0.297,-0.203 -0.438,-0.297 -0.137,-0.094 -0.261,-0.176 -0.375,-0.25 -0.109,-0.066 -0.183,-0.117 -0.226,-0.144 l -0.164,-0.043 c -0.184,0.031 -0.364,0.093 -0.524,0.199 -0.164,0.105 -0.308,0.23 -0.437,0.379 -0.129,0.144 -0.239,0.297 -0.328,0.461 -0.094,0.168 -0.165,0.324 -0.207,0.476 -0.395,-0.254 -0.786,-0.504 -1.184,-0.75 -0.395,-0.246 -0.797,-0.488 -1.199,-0.722 l -0.235,0 c -0.48,0.277 -0.879,0.605 -1.195,0.992 -0.32,0.386 -0.57,0.8 -0.766,1.246 -0.195,0.445 -0.328,0.918 -0.406,1.41 -0.078,0.492 -0.117,0.988 -0.117,1.48 0,1.262 0.301,2.329 0.902,3.196 0.606,0.871 1.535,1.562 2.797,2.078 l 0.184,0 c 0.109,-0.051 0.285,-0.117 0.527,-0.207 0.246,-0.094 0.516,-0.195 0.813,-0.305 0.296,-0.117 0.601,-0.23 0.918,-0.351 0.312,-0.125 0.601,-0.239 0.859,-0.352 0.262,-0.113 0.473,-0.211 0.641,-0.297 0.164,-0.09 0.246,-0.152 0.246,-0.195 0,-0.043 -0.035,-0.098 -0.11,-0.156 -0.074,-0.059 -0.156,-0.118 -0.25,-0.184 -0.09,-0.063 -0.175,-0.133 -0.246,-0.219 -0.078,-0.078 -0.113,-0.172 -0.113,-0.273 l 0,-5.836 c 0,-0.035 0,-0.074 0.004,-0.125 0.004,-0.043 0.012,-0.094 0.027,-0.141 0.012,-0.047 0.035,-0.086 0.063,-0.121 0.027,-0.031 0.062,-0.047 0.121,-0.047 0.121,0 0.238,0.024 0.351,0.078 0.118,0.055 0.219,0.118 0.305,0.196 0.07,0.027 0.121,0.035 0.164,0.035 z m -3.215,6.082 -2.179,0.937 c -0.141,-0.226 -0.254,-0.461 -0.34,-0.711 -0.082,-0.25 -0.149,-0.503 -0.192,-0.765 -0.043,-0.262 -0.074,-0.52 -0.086,-0.785 -0.015,-0.266 -0.019,-0.524 -0.019,-0.77 0,-0.129 0.008,-0.324 0.031,-0.578 0.02,-0.258 0.051,-0.543 0.094,-0.863 0.043,-0.317 0.101,-0.645 0.172,-0.973 0.07,-0.332 0.16,-0.633 0.269,-0.902 0.106,-0.27 0.231,-0.496 0.375,-0.668 0.141,-0.176 0.305,-0.266 0.496,-0.266 0.063,0 0.157,0.035 0.285,0.106 0.129,0.062 0.262,0.14 0.399,0.226 0.141,0.082 0.269,0.168 0.394,0.258 0.122,0.09 0.211,0.152 0.274,0.191 l 0.027,0 0,5.563 z"
         style="fill:#151616;fill-opacity:1;fill-rule:evenodd;stroke:none"
         id="path3236"
         inkscape:connector-curvature="0" />
      <path
         d="m 621.293,812.499 c 0.043,0 0.117,-0.035 0.23,-0.109 0.11,-0.078 0.239,-0.172 0.383,-0.293 0.145,-0.117 0.301,-0.242 0.461,-0.383 0.164,-0.137 0.317,-0.273 0.469,-0.402 0.148,-0.137 0.281,-0.254 0.398,-0.36 0.118,-0.101 0.204,-0.175 0.25,-0.214 l 0.059,-0.145 c 0,-0.074 -0.043,-0.152 -0.133,-0.23 -0.094,-0.082 -0.168,-0.149 -0.219,-0.204 l -0.164,-0.062 c -0.047,0 -0.101,0.019 -0.16,0.059 -0.055,0.035 -0.117,0.078 -0.183,0.125 -0.067,0.046 -0.145,0.089 -0.223,0.125 -0.082,0.039 -0.168,0.058 -0.254,0.058 -0.074,0 -0.137,-0.027 -0.191,-0.074 -0.047,-0.047 -0.09,-0.106 -0.121,-0.168 -0.032,-0.07 -0.051,-0.141 -0.063,-0.215 -0.016,-0.074 -0.027,-0.137 -0.031,-0.184 -0.055,-0.378 -0.09,-0.746 -0.113,-1.101 -0.02,-0.352 -0.079,-0.684 -0.176,-0.992 -0.098,-0.309 -0.258,-0.582 -0.489,-0.824 -0.222,-0.247 -0.57,-0.446 -1.035,-0.61 0.383,-0.133 0.7,-0.312 0.946,-0.523 0.246,-0.215 0.441,-0.453 0.582,-0.727 0.14,-0.269 0.238,-0.562 0.289,-0.883 0.05,-0.324 0.078,-0.656 0.078,-1 0,-0.066 -0.008,-0.179 -0.02,-0.332 -0.015,-0.156 -0.027,-0.332 -0.043,-0.519 -0.015,-0.188 -0.019,-0.387 -0.019,-0.586 0,-0.203 0.008,-0.391 0.031,-0.559 0.02,-0.168 0.059,-0.304 0.117,-0.418 0.055,-0.105 0.133,-0.16 0.239,-0.16 0.105,0 0.195,0.012 0.265,0.039 0.074,0.028 0.137,0.059 0.195,0.098 0.059,0.039 0.114,0.074 0.172,0.109 0.055,0.039 0.125,0.063 0.207,0.078 0.028,0 0.067,-0.019 0.121,-0.054 0.055,-0.039 0.106,-0.082 0.153,-0.133 0.047,-0.051 0.09,-0.106 0.129,-0.156 0.035,-0.055 0.054,-0.102 0.054,-0.133 0,-0.012 -0.046,-0.059 -0.14,-0.133 -0.098,-0.074 -0.219,-0.164 -0.367,-0.262 -0.149,-0.101 -0.313,-0.211 -0.485,-0.328 -0.176,-0.121 -0.347,-0.23 -0.508,-0.336 -0.164,-0.105 -0.304,-0.199 -0.429,-0.285 -0.129,-0.082 -0.211,-0.137 -0.262,-0.168 l -0.234,-0.019 c -0.278,0.101 -0.524,0.214 -0.743,0.335 -0.218,0.122 -0.406,0.262 -0.558,0.426 -0.153,0.164 -0.27,0.348 -0.356,0.567 -0.082,0.214 -0.125,0.468 -0.125,0.75 l 0,3.668 c 0,0.238 -0.062,0.429 -0.187,0.574 -0.125,0.148 -0.285,0.258 -0.473,0.332 -0.187,0.082 -0.398,0.133 -0.629,0.16 -0.23,0.027 -0.445,0.043 -0.648,0.043 l -1.336,0 0,-2.832 c 0,-0.176 -0.039,-0.34 -0.106,-0.492 -0.074,-0.149 -0.168,-0.289 -0.285,-0.422 -0.117,-0.125 -0.254,-0.242 -0.402,-0.348 -0.149,-0.105 -0.301,-0.199 -0.457,-0.277 0.051,-0.02 0.125,-0.055 0.238,-0.102 0.106,-0.047 0.231,-0.101 0.371,-0.16 0.141,-0.062 0.293,-0.125 0.446,-0.195 0.156,-0.07 0.3,-0.129 0.437,-0.184 0.137,-0.051 0.254,-0.097 0.348,-0.129 0.097,-0.035 0.164,-0.05 0.199,-0.05 0.086,0 0.172,0.019 0.258,0.054 0.086,0.035 0.164,0.078 0.242,0.117 0.07,0.04 0.137,0.079 0.195,0.118 0.055,0.035 0.102,0.054 0.125,0.054 0.047,0 0.102,-0.015 0.16,-0.047 0.055,-0.031 0.11,-0.066 0.161,-0.117 0.05,-0.043 0.093,-0.097 0.132,-0.152 0.039,-0.051 0.063,-0.098 0.075,-0.141 0,-0.031 -0.047,-0.09 -0.141,-0.172 -0.098,-0.082 -0.219,-0.171 -0.367,-0.273 -0.149,-0.102 -0.309,-0.207 -0.492,-0.324 -0.18,-0.117 -0.348,-0.223 -0.512,-0.324 -0.16,-0.102 -0.305,-0.196 -0.438,-0.274 -0.132,-0.082 -0.222,-0.133 -0.269,-0.164 l -0.242,-0.019 c -0.078,0.035 -0.211,0.093 -0.407,0.183 -0.195,0.086 -0.421,0.188 -0.675,0.297 -0.25,0.113 -0.516,0.234 -0.789,0.355 -0.274,0.125 -0.524,0.247 -0.75,0.364 -0.227,0.113 -0.414,0.215 -0.563,0.304 -0.148,0.086 -0.226,0.149 -0.226,0.18 0,0.067 0.066,0.145 0.191,0.234 0.125,0.086 0.258,0.208 0.406,0.364 0.145,0.156 0.278,0.359 0.403,0.613 0.125,0.254 0.187,0.582 0.187,0.988 l 0,6.539 c 0,0.141 -0.012,0.286 -0.031,0.43 -0.016,0.145 -0.063,0.281 -0.125,0.406 -0.067,0.125 -0.156,0.227 -0.274,0.309 -0.117,0.082 -0.273,0.129 -0.461,0.144 l -0.546,-0.418 -0.243,0 -0.347,0.266 -0.09,0.172 c 0,0.035 0.051,0.102 0.156,0.195 0.106,0.098 0.234,0.207 0.391,0.328 0.156,0.125 0.328,0.258 0.523,0.399 0.192,0.144 0.375,0.273 0.551,0.394 0.176,0.121 0.332,0.231 0.465,0.329 0.14,0.089 0.23,0.156 0.285,0.199 l 0.246,0.019 c 0.227,-0.105 0.461,-0.238 0.699,-0.39 0.242,-0.153 0.461,-0.321 0.664,-0.504 0.196,-0.188 0.364,-0.391 0.489,-0.621 0.129,-0.223 0.195,-0.465 0.195,-0.727 l 0,-3.566 1.57,0 c 0.453,0 0.805,0.062 1.051,0.191 0.254,0.129 0.437,0.301 0.563,0.52 0.121,0.214 0.195,0.464 0.214,0.754 0.024,0.285 0.039,0.589 0.039,0.906 0.004,0.316 0.02,0.644 0.036,0.976 0.023,0.328 0.085,0.645 0.203,0.95 0.109,0.304 0.281,0.585 0.515,0.839 0.231,0.262 0.567,0.477 1,0.653 0.032,0.011 0.051,0.019 0.059,0.019 l 0.039,0 z m 11.102,-8.203 c 0,-0.441 -0.036,-0.879 -0.102,-1.301 -0.07,-0.422 -0.188,-0.824 -0.355,-1.207 -0.168,-0.379 -0.395,-0.738 -0.68,-1.07 -0.281,-0.328 -0.641,-0.621 -1.074,-0.883 -0.059,-0.031 -0.176,-0.101 -0.344,-0.211 -0.168,-0.105 -0.352,-0.215 -0.543,-0.328 -0.195,-0.113 -0.375,-0.211 -0.535,-0.293 -0.168,-0.086 -0.274,-0.125 -0.324,-0.117 -0.633,0.16 -1.192,0.402 -1.676,0.73 -0.481,0.325 -0.887,0.707 -1.211,1.157 -0.324,0.445 -0.567,0.937 -0.735,1.472 -0.164,0.536 -0.25,1.098 -0.25,1.676 0,0.703 0.086,1.328 0.243,1.867 0.164,0.539 0.41,1.024 0.738,1.457 0.328,0.43 0.738,0.809 1.23,1.149 0.493,0.34 1.071,0.652 1.735,0.949 0.676,-0.086 1.258,-0.293 1.742,-0.621 0.484,-0.324 0.887,-0.727 1.207,-1.195 0.316,-0.469 0.551,-0.985 0.703,-1.547 0.152,-0.559 0.231,-1.121 0.231,-1.684 z m -2.059,-1.285 c 0,0.457 -0.043,0.934 -0.121,1.422 -0.082,0.484 -0.223,0.945 -0.422,1.387 -0.199,0.437 -0.469,0.836 -0.809,1.191 -0.336,0.355 -0.757,0.633 -1.273,0.836 -0.223,-0.184 -0.399,-0.402 -0.535,-0.652 -0.133,-0.254 -0.231,-0.524 -0.301,-0.805 -0.074,-0.281 -0.117,-0.563 -0.137,-0.852 -0.023,-0.285 -0.031,-0.558 -0.031,-0.824 0,-0.297 0.016,-0.598 0.051,-0.902 0.035,-0.305 0.094,-0.602 0.176,-0.895 0.086,-0.297 0.199,-0.578 0.347,-0.855 0.145,-0.274 0.328,-0.524 0.551,-0.754 l 0,-0.02 c 0.082,-0.101 0.176,-0.203 0.277,-0.304 0.106,-0.102 0.219,-0.2 0.336,-0.289 0.117,-0.09 0.246,-0.168 0.383,-0.231 0.133,-0.066 0.274,-0.109 0.426,-0.129 0.211,0.141 0.394,0.317 0.535,0.528 0.141,0.21 0.254,0.433 0.336,0.679 0.078,0.242 0.133,0.492 0.164,0.746 0.031,0.25 0.047,0.493 0.047,0.723 z m 12.883,-2.098 c 0.039,0 0.086,-0.019 0.144,-0.07 0.051,-0.047 0.106,-0.102 0.157,-0.16 0.058,-0.063 0.101,-0.121 0.14,-0.18 0.039,-0.058 0.055,-0.097 0.055,-0.125 0,-0.074 -0.09,-0.183 -0.27,-0.328 -0.175,-0.141 -0.383,-0.285 -0.617,-0.434 -0.234,-0.148 -0.461,-0.289 -0.672,-0.418 -0.218,-0.132 -0.367,-0.222 -0.449,-0.273 l -0.23,-0.019 c -0.204,0.105 -0.399,0.214 -0.586,0.339 -0.188,0.129 -0.344,0.266 -0.481,0.422 -0.133,0.156 -0.242,0.324 -0.324,0.512 -0.082,0.187 -0.121,0.391 -0.121,0.613 l 0,6.184 c -0.129,0.09 -0.25,0.176 -0.363,0.265 -0.118,0.086 -0.239,0.172 -0.368,0.262 l -1.855,-0.945 0,-7.195 c 0,-0.051 -0.024,-0.102 -0.07,-0.137 -0.047,-0.035 -0.098,-0.059 -0.149,-0.059 l -1.719,0 c -0.05,0 -0.101,0.024 -0.14,0.059 -0.039,0.035 -0.059,0.086 -0.059,0.137 l 0,7.41 c 0,0.136 -0.054,0.261 -0.168,0.383 -0.113,0.117 -0.246,0.175 -0.398,0.175 -0.153,0 -0.274,-0.047 -0.367,-0.14 -0.028,-0.016 -0.051,-0.028 -0.071,-0.032 -0.019,-0.007 -0.047,-0.011 -0.074,-0.011 -0.059,0 -0.125,0.035 -0.199,0.105 -0.078,0.07 -0.137,0.125 -0.184,0.156 l -0.074,0.133 c 0,0.028 0.043,0.086 0.125,0.172 0.082,0.09 0.184,0.192 0.309,0.305 0.125,0.113 0.261,0.238 0.414,0.375 0.152,0.133 0.3,0.262 0.437,0.379 0.137,0.117 0.262,0.226 0.371,0.32 0.106,0.098 0.184,0.16 0.223,0.191 l 0.223,0.043 c 0.441,-0.175 0.785,-0.41 1.046,-0.707 0.254,-0.293 0.418,-0.652 0.485,-1.078 l 3.172,1.785 0.261,-0.019 2.028,-1.391 0.094,-0.172 c 0.007,-0.039 -0.02,-0.089 -0.083,-0.152 -0.058,-0.062 -0.132,-0.121 -0.21,-0.184 -0.082,-0.058 -0.168,-0.113 -0.25,-0.164 -0.082,-0.05 -0.145,-0.089 -0.188,-0.117 l 0,-6.414 c 0,-0.039 0,-0.086 0.004,-0.129 0.004,-0.047 0.016,-0.086 0.039,-0.117 0.016,-0.031 0.047,-0.051 0.09,-0.051 0.094,0 0.18,0.024 0.258,0.059 0.078,0.043 0.152,0.09 0.222,0.148 0.071,0.059 0.141,0.117 0.215,0.168 0.07,0.055 0.145,0.098 0.227,0.121 z m 6.144,0.071 c 0.039,0 0.086,-0.02 0.137,-0.059 0.047,-0.035 0.102,-0.082 0.152,-0.133 0.047,-0.054 0.09,-0.109 0.125,-0.164 0.035,-0.055 0.055,-0.097 0.063,-0.129 0,-0.043 -0.047,-0.105 -0.133,-0.183 -0.09,-0.082 -0.199,-0.176 -0.344,-0.282 -0.136,-0.105 -0.289,-0.214 -0.453,-0.328 -0.164,-0.117 -0.324,-0.226 -0.476,-0.328 -0.153,-0.105 -0.286,-0.199 -0.403,-0.281 -0.121,-0.082 -0.203,-0.141 -0.25,-0.172 l -0.234,0 -2.301,1.391 -0.113,0.183 c 0,0.028 0.031,0.067 0.086,0.129 0.058,0.059 0.125,0.125 0.199,0.192 0.074,0.07 0.148,0.132 0.219,0.195 0.07,0.058 0.121,0.101 0.148,0.129 l 0,6.062 c -0.055,0 -0.148,-0.008 -0.269,-0.019 -0.125,-0.016 -0.254,-0.02 -0.383,-0.016 -0.129,0.004 -0.242,0.024 -0.34,0.051 -0.094,0.031 -0.145,0.09 -0.145,0.187 l 0,0.61 c 0.047,0.086 0.141,0.152 0.286,0.203 0.14,0.047 0.3,0.105 0.472,0.176 0.176,0.07 0.352,0.172 0.535,0.304 0.18,0.129 0.329,0.329 0.454,0.582 0.078,0.184 0.152,0.379 0.21,0.59 0.063,0.207 0.114,0.426 0.157,0.649 0.043,0.222 0.082,0.441 0.117,0.66 0.031,0.215 0.066,0.422 0.101,0.613 0.012,0.043 0.043,0.078 0.082,0.11 0.047,0.031 0.086,0.054 0.122,0.074 l 0.574,0 c 0.152,0 0.226,-0.067 0.226,-0.211 l 0,-3.274 c 0.067,0 0.188,0.008 0.36,0.028 0.172,0.011 0.347,0.023 0.519,0.023 0.176,0 0.332,-0.019 0.469,-0.055 0.133,-0.039 0.203,-0.109 0.203,-0.207 0,-0.242 0,-0.425 0.004,-0.57 0,-0.141 -0.004,-0.254 -0.023,-0.336 -0.012,-0.078 -0.051,-0.133 -0.102,-0.16 -0.055,-0.027 -0.141,-0.043 -0.258,-0.047 -0.113,-0.004 -0.265,0 -0.453,0.016 -0.191,0.011 -0.43,0.019 -0.719,0.019 l 0,-6.254 c 0.114,-0.058 0.223,-0.129 0.317,-0.203 0.097,-0.074 0.207,-0.14 0.32,-0.203 0.043,0.027 0.094,0.067 0.164,0.113 0.067,0.047 0.137,0.094 0.207,0.145 0.07,0.043 0.141,0.086 0.207,0.121 0.071,0.039 0.121,0.059 0.16,0.059 l 0.004,0 z m 10.043,-0.153 c 0.043,0 0.09,-0.023 0.141,-0.066 0.055,-0.043 0.105,-0.09 0.148,-0.145 0.043,-0.058 0.086,-0.109 0.117,-0.164 0.032,-0.054 0.051,-0.093 0.051,-0.121 0,-0.027 -0.043,-0.078 -0.121,-0.152 -0.082,-0.074 -0.187,-0.16 -0.316,-0.258 -0.129,-0.098 -0.27,-0.199 -0.422,-0.305 -0.152,-0.105 -0.297,-0.207 -0.434,-0.3 -0.14,-0.094 -0.265,-0.176 -0.375,-0.247 -0.109,-0.07 -0.187,-0.117 -0.23,-0.148 l -0.16,-0.039 c -0.188,0.027 -0.364,0.094 -0.528,0.195 -0.16,0.106 -0.308,0.235 -0.433,0.379 -0.129,0.145 -0.242,0.297 -0.332,0.465 -0.094,0.164 -0.16,0.324 -0.207,0.473 -0.395,-0.254 -0.785,-0.504 -1.184,-0.746 -0.394,-0.246 -0.793,-0.489 -1.199,-0.727 l -0.231,0 c -0.484,0.277 -0.879,0.606 -1.199,0.996 -0.316,0.383 -0.57,0.797 -0.765,1.246 -0.192,0.446 -0.329,0.914 -0.403,1.406 -0.082,0.497 -0.117,0.989 -0.117,1.481 0,1.262 0.301,2.328 0.902,3.199 0.602,0.867 1.532,1.559 2.797,2.074 l 0.18,0 c 0.109,-0.046 0.285,-0.117 0.527,-0.207 0.246,-0.093 0.516,-0.195 0.813,-0.304 0.297,-0.114 0.601,-0.231 0.918,-0.352 0.316,-0.121 0.601,-0.238 0.863,-0.351 0.258,-0.11 0.473,-0.211 0.637,-0.297 0.164,-0.086 0.246,-0.153 0.246,-0.196 0,-0.043 -0.035,-0.093 -0.11,-0.156 -0.074,-0.058 -0.156,-0.117 -0.25,-0.18 -0.089,-0.062 -0.171,-0.136 -0.246,-0.218 -0.074,-0.082 -0.113,-0.176 -0.113,-0.274 l 0,-5.84 c 0,-0.031 0.004,-0.074 0.008,-0.121 0.004,-0.047 0.012,-0.093 0.023,-0.144 0.016,-0.043 0.036,-0.086 0.063,-0.121 0.027,-0.032 0.066,-0.047 0.121,-0.047 0.121,0 0.238,0.023 0.352,0.078 0.117,0.055 0.218,0.117 0.304,0.195 0.07,0.028 0.121,0.039 0.164,0.039 z m -3.215,6.082 -2.175,0.934 c -0.141,-0.227 -0.258,-0.461 -0.344,-0.711 -0.082,-0.246 -0.149,-0.504 -0.192,-0.762 -0.042,-0.265 -0.07,-0.523 -0.085,-0.785 -0.012,-0.269 -0.02,-0.523 -0.02,-0.773 0,-0.129 0.012,-0.321 0.031,-0.578 0.02,-0.254 0.051,-0.543 0.098,-0.86 0.039,-0.32 0.098,-0.644 0.168,-0.972 0.074,-0.333 0.164,-0.633 0.269,-0.907 0.11,-0.269 0.235,-0.492 0.375,-0.668 0.141,-0.175 0.309,-0.265 0.5,-0.265 0.059,0 0.153,0.035 0.282,0.105 0.129,0.067 0.261,0.141 0.402,0.227 0.137,0.086 0.266,0.172 0.391,0.258 0.121,0.089 0.211,0.152 0.273,0.191 l 0.027,0 0,5.566 z m 9.399,1.348 c 0,-0.359 -0.012,-0.609 -0.035,-0.754 -0.024,-0.144 -0.094,-0.234 -0.211,-0.269 -0.121,-0.036 -0.301,-0.036 -0.543,0 -0.246,0.035 -0.59,0.05 -1.035,0.05 l 0,-6.375 c 0.101,-0.062 0.199,-0.125 0.293,-0.195 0.093,-0.066 0.199,-0.133 0.304,-0.199 0.043,0.023 0.094,0.066 0.157,0.121 0.066,0.051 0.132,0.105 0.203,0.156 0.07,0.051 0.14,0.098 0.203,0.129 0.062,0.039 0.117,0.059 0.156,0.059 0.043,0 0.09,-0.02 0.137,-0.059 0.051,-0.043 0.101,-0.094 0.14,-0.144 0.047,-0.055 0.086,-0.106 0.114,-0.161 0.031,-0.058 0.047,-0.093 0.047,-0.121 0,-0.043 -0.043,-0.105 -0.129,-0.187 -0.082,-0.086 -0.188,-0.18 -0.317,-0.285 -0.129,-0.106 -0.273,-0.215 -0.433,-0.332 -0.161,-0.114 -0.313,-0.223 -0.461,-0.321 -0.149,-0.105 -0.282,-0.195 -0.403,-0.273 -0.117,-0.086 -0.199,-0.145 -0.242,-0.176 l -0.269,0 c -0.383,0.238 -0.762,0.469 -1.145,0.699 -0.375,0.231 -0.758,0.453 -1.144,0.668 l -0.122,0.164 c 0,0.035 0.032,0.086 0.098,0.16 0.067,0.067 0.137,0.145 0.219,0.223 0.078,0.086 0.156,0.16 0.238,0.231 0.074,0.07 0.129,0.125 0.164,0.156 l 0,6.062 c -0.066,0 -0.172,-0.007 -0.312,-0.019 -0.145,-0.016 -0.285,-0.02 -0.43,-0.016 -0.144,0 -0.273,0.024 -0.383,0.059 -0.105,0.031 -0.16,0.094 -0.16,0.187 l 0,0.621 c 0,0.071 0.031,0.125 0.098,0.153 0.062,0.027 0.14,0.047 0.238,0.058 0.094,0.012 0.195,0.028 0.309,0.043 0.109,0.012 0.211,0.043 0.304,0.09 0.098,0.047 0.176,0.121 0.239,0.211 0.066,0.094 0.097,0.234 0.097,0.418 0,0.156 0.008,0.313 0.024,0.477 0.011,0.164 0.019,0.32 0.019,0.476 0,0.168 -0.023,0.301 -0.074,0.406 -0.043,0.102 -0.102,0.18 -0.176,0.231 -0.07,0.055 -0.152,0.094 -0.242,0.121 -0.094,0.027 -0.18,0.055 -0.262,0.078 -0.086,0.024 -0.168,0.055 -0.238,0.094 -0.078,0.031 -0.129,0.094 -0.164,0.176 0,0.054 0.004,0.109 0.012,0.164 0.007,0.058 0.019,0.113 0.043,0.164 0.023,0.051 0.058,0.09 0.101,0.121 0.043,0.031 0.102,0.043 0.18,0.043 0.137,0 0.285,-0.024 0.449,-0.078 0.168,-0.055 0.324,-0.078 0.481,-0.078 0.296,0 0.585,0.043 0.859,0.14 0.273,0.094 0.543,0.199 0.809,0.313 0.265,0.117 0.539,0.218 0.816,0.312 0.277,0.098 0.566,0.145 0.871,0.145 0.094,-0.039 0.168,-0.102 0.211,-0.18 0.051,-0.074 0.074,-0.16 0.074,-0.258 0,-0.039 -0.039,-0.082 -0.117,-0.133 -0.078,-0.043 -0.176,-0.101 -0.297,-0.171 -0.121,-0.067 -0.254,-0.145 -0.387,-0.231 -0.136,-0.086 -0.265,-0.191 -0.386,-0.309 -0.121,-0.121 -0.219,-0.253 -0.297,-0.402 -0.078,-0.148 -0.117,-0.312 -0.117,-0.496 l 0,-0.039 c 0.078,0.113 0.179,0.234 0.296,0.363 0.122,0.129 0.25,0.25 0.391,0.36 0.145,0.109 0.293,0.203 0.453,0.281 0.156,0.07 0.321,0.109 0.481,0.109 0.054,0 0.101,-0.019 0.144,-0.062 0.035,-0.039 0.059,-0.078 0.059,-0.121 l 0,-2.34 c 0,-0.055 -0.024,-0.102 -0.07,-0.149 -0.047,-0.043 -0.102,-0.066 -0.153,-0.066 -0.062,0 -0.117,0.031 -0.172,0.09 -0.054,0.054 -0.113,0.121 -0.175,0.187 -0.059,0.075 -0.125,0.141 -0.2,0.196 -0.074,0.058 -0.16,0.086 -0.254,0.086 -0.214,0 -0.382,-0.067 -0.496,-0.196 -0.113,-0.125 -0.199,-0.273 -0.254,-0.445 0.067,0 0.2,0.012 0.395,0.027 0.199,0.02 0.394,0.028 0.598,0.028 0.203,0 0.386,-0.02 0.543,-0.059 0.156,-0.035 0.238,-0.105 0.238,-0.207 z m 5.828,-7.277 c 0.043,0 0.086,-0.02 0.141,-0.059 0.046,-0.035 0.097,-0.082 0.152,-0.133 0.047,-0.054 0.09,-0.109 0.125,-0.164 0.031,-0.055 0.055,-0.097 0.059,-0.129 0,-0.043 -0.043,-0.105 -0.129,-0.183 -0.09,-0.082 -0.204,-0.176 -0.344,-0.282 -0.137,-0.105 -0.289,-0.214 -0.453,-0.328 -0.164,-0.117 -0.324,-0.226 -0.477,-0.328 -0.152,-0.105 -0.289,-0.199 -0.406,-0.281 -0.117,-0.082 -0.199,-0.141 -0.25,-0.172 l -0.231,0 -2.3,1.391 -0.114,0.183 c 0,0.028 0.032,0.067 0.086,0.129 0.059,0.059 0.125,0.125 0.196,0.192 0.078,0.07 0.152,0.132 0.218,0.195 0.075,0.058 0.121,0.101 0.149,0.129 l 0,6.062 c -0.055,0 -0.145,-0.008 -0.27,-0.019 -0.125,-0.016 -0.25,-0.02 -0.379,-0.016 -0.129,0.004 -0.242,0.024 -0.339,0.051 -0.098,0.031 -0.145,0.09 -0.145,0.187 l 0,0.61 c 0.043,0.086 0.141,0.152 0.281,0.203 0.145,0.047 0.305,0.105 0.477,0.176 0.176,0.07 0.351,0.172 0.531,0.304 0.18,0.129 0.328,0.329 0.453,0.582 0.082,0.184 0.153,0.379 0.211,0.59 0.063,0.207 0.113,0.426 0.16,0.649 0.043,0.222 0.078,0.441 0.114,0.66 0.035,0.215 0.07,0.422 0.105,0.613 0.008,0.043 0.039,0.078 0.082,0.11 0.047,0.031 0.082,0.054 0.117,0.074 l 0.578,0 c 0.149,0 0.227,-0.067 0.227,-0.211 l 0,-3.274 c 0.066,0 0.187,0.008 0.359,0.028 0.168,0.011 0.344,0.023 0.52,0.023 0.176,0 0.332,-0.019 0.465,-0.055 0.136,-0.039 0.203,-0.109 0.203,-0.207 0,-0.242 0,-0.425 0.004,-0.57 0.004,-0.141 -0.004,-0.254 -0.02,-0.336 -0.015,-0.078 -0.051,-0.133 -0.105,-0.16 -0.055,-0.027 -0.137,-0.043 -0.254,-0.047 -0.113,-0.004 -0.266,0 -0.453,0.016 -0.192,0.011 -0.43,0.019 -0.719,0.019 l 0,-6.254 c 0.113,-0.058 0.219,-0.129 0.316,-0.203 0.098,-0.074 0.203,-0.14 0.321,-0.203 0.039,0.027 0.09,0.067 0.16,0.113 0.07,0.047 0.14,0.094 0.207,0.145 0.074,0.043 0.144,0.086 0.207,0.121 0.07,0.039 0.125,0.059 0.164,0.059 z"
         style="fill:#151616;fill-opacity:1;fill-rule:evenodd;stroke:none"
         id="path3238"
         inkscape:connector-curvature="0" />
      <path
         d="m 556.113,805.386 c 0,-0.887 -0.187,-1.723 -0.574,-2.508 -0.379,-0.789 -0.898,-1.48 -1.551,-2.074 -0.66,-0.594 -1.418,-1.066 -2.281,-1.414 -0.863,-0.348 -1.785,-0.524 -2.758,-0.524 -1.082,0 -2.023,0.184 -2.824,0.555 -0.801,0.367 -1.465,0.867 -1.992,1.488 -0.528,0.625 -0.922,1.348 -1.18,2.164 -0.258,0.817 -0.391,1.676 -0.391,2.575 0,0.636 0.086,1.246 0.262,1.832 0.176,0.586 0.426,1.129 0.75,1.636 0.328,0.504 0.715,0.969 1.172,1.383 0.457,0.418 0.961,0.774 1.516,1.071 0.554,0.296 1.152,0.527 1.797,0.687 0.636,0.164 1.312,0.242 2.015,0.242 0.102,0 0.168,-0.07 0.207,-0.218 0.039,-0.153 0.055,-0.325 0.055,-0.516 0,-0.199 -0.008,-0.391 -0.02,-0.574 -0.015,-0.188 -0.019,-0.317 -0.019,-0.395 0.066,0.063 0.183,0.168 0.336,0.313 0.16,0.144 0.332,0.293 0.504,0.449 0.175,0.156 0.343,0.293 0.508,0.414 0.164,0.117 0.277,0.176 0.347,0.176 l 0.047,0 c 0.711,-0.325 1.32,-0.731 1.832,-1.211 0.516,-0.485 0.941,-1.02 1.274,-1.614 0.328,-0.589 0.574,-1.222 0.73,-1.89 0.16,-0.668 0.238,-1.352 0.238,-2.047 z m -2.551,-0.934 c 0,0.473 -0.039,0.981 -0.109,1.524 -0.07,0.539 -0.195,1.062 -0.379,1.574 -0.183,0.512 -0.429,0.981 -0.746,1.418 -0.312,0.434 -0.715,0.785 -1.199,1.039 l -0.172,0.024 c -0.441,0 -0.66,-0.208 -0.66,-0.622 l 0,-7.726 c 0,-0.207 -0.082,-0.399 -0.242,-0.578 -0.153,-0.172 -0.348,-0.332 -0.575,-0.473 -0.226,-0.141 -0.46,-0.266 -0.71,-0.375 -0.247,-0.109 -0.458,-0.191 -0.633,-0.254 0.175,-0.055 0.355,-0.09 0.539,-0.109 0.179,-0.024 0.367,-0.031 0.558,-0.031 0.688,0 1.301,0.128 1.836,0.39 0.539,0.258 0.992,0.606 1.36,1.031 0.367,0.43 0.652,0.918 0.84,1.473 0.195,0.551 0.292,1.113 0.292,1.695 z m -5.73,6.762 c -0.406,-0.074 -0.754,-0.223 -1.047,-0.441 -0.297,-0.219 -0.543,-0.485 -0.746,-0.797 -0.203,-0.309 -0.367,-0.653 -0.492,-1.028 -0.125,-0.375 -0.219,-0.757 -0.289,-1.14 -0.067,-0.383 -0.11,-0.766 -0.137,-1.141 -0.023,-0.375 -0.035,-0.715 -0.035,-1.019 0,-0.426 0.027,-0.887 0.082,-1.395 0.055,-0.5 0.16,-0.996 0.316,-1.48 0.153,-0.481 0.368,-0.93 0.641,-1.344 0.273,-0.414 0.629,-0.75 1.07,-0.992 0.157,0.078 0.274,0.152 0.36,0.234 0.082,0.082 0.144,0.172 0.187,0.27 0.043,0.097 0.067,0.203 0.074,0.316 0.012,0.121 0.016,0.246 0.016,0.391 l 0,9.566 z m 28.547,0.477 c 0.066,0 0.144,-0.043 0.238,-0.121 0.09,-0.082 0.164,-0.141 0.215,-0.184 l 0.074,-0.152 c 0,-0.063 -0.054,-0.137 -0.164,-0.227 -0.105,-0.086 -0.242,-0.187 -0.402,-0.309 -0.164,-0.121 -0.336,-0.261 -0.524,-0.414 -0.187,-0.152 -0.359,-0.316 -0.523,-0.5 -0.16,-0.183 -0.297,-0.382 -0.402,-0.597 -0.11,-0.215 -0.164,-0.449 -0.164,-0.692 l 0,-7.347 c 0,-0.055 0.003,-0.114 0.011,-0.18 0.004,-0.062 0.02,-0.125 0.043,-0.18 0.024,-0.058 0.059,-0.109 0.102,-0.14 0.043,-0.039 0.105,-0.059 0.187,-0.059 0.129,0 0.246,0.027 0.364,0.078 0.109,0.047 0.211,0.11 0.296,0.188 l 0.172,0.058 c 0.036,0 0.075,-0.019 0.121,-0.058 0.047,-0.043 0.094,-0.09 0.141,-0.145 0.051,-0.054 0.09,-0.105 0.117,-0.16 0.031,-0.055 0.047,-0.09 0.047,-0.113 0,-0.028 -0.047,-0.078 -0.137,-0.149 -0.089,-0.078 -0.211,-0.164 -0.351,-0.265 -0.141,-0.102 -0.297,-0.211 -0.469,-0.325 -0.176,-0.113 -0.34,-0.226 -0.496,-0.328 -0.16,-0.109 -0.301,-0.203 -0.43,-0.285 -0.125,-0.086 -0.211,-0.144 -0.254,-0.179 l -0.265,0 c -0.582,0.332 -1.004,0.75 -1.27,1.253 -0.261,0.504 -0.394,1.063 -0.394,1.676 l 0,5.434 c 0,0.23 0.058,0.465 0.176,0.695 0.113,0.231 0.257,0.461 0.425,0.68 0.176,0.219 0.36,0.426 0.563,0.617 0.195,0.195 0.383,0.359 0.558,0.504 l -2.289,1.055 -2.804,-1.766 0,-6.141 c 0,-0.175 -0.036,-0.34 -0.098,-0.488 -0.066,-0.148 -0.152,-0.285 -0.262,-0.41 -0.117,-0.121 -0.242,-0.238 -0.39,-0.336 -0.145,-0.106 -0.293,-0.195 -0.45,-0.277 0.086,-0.039 0.235,-0.106 0.43,-0.2 0.199,-0.089 0.41,-0.183 0.633,-0.281 0.226,-0.098 0.437,-0.183 0.637,-0.258 0.199,-0.074 0.336,-0.113 0.41,-0.113 0.113,0 0.222,0.031 0.324,0.086 0.102,0.059 0.191,0.125 0.262,0.195 l 0.164,0.063 c 0.039,0 0.086,-0.016 0.14,-0.051 0.055,-0.031 0.106,-0.074 0.153,-0.125 0.047,-0.051 0.086,-0.102 0.121,-0.152 0.035,-0.051 0.055,-0.094 0.062,-0.129 0,-0.031 -0.047,-0.09 -0.14,-0.172 -0.098,-0.078 -0.219,-0.168 -0.367,-0.274 -0.149,-0.097 -0.313,-0.207 -0.485,-0.324 -0.176,-0.113 -0.351,-0.222 -0.512,-0.32 -0.168,-0.106 -0.316,-0.195 -0.445,-0.274 -0.125,-0.085 -0.215,-0.136 -0.262,-0.164 l -0.254,-0.019 c -0.074,0.035 -0.21,0.094 -0.41,0.183 -0.199,0.086 -0.422,0.184 -0.675,0.297 -0.25,0.11 -0.512,0.227 -0.786,0.356 -0.273,0.125 -0.523,0.242 -0.75,0.359 -0.226,0.113 -0.41,0.215 -0.558,0.305 -0.145,0.086 -0.215,0.144 -0.215,0.18 0,0.05 0.031,0.097 0.086,0.14 0.058,0.051 0.125,0.11 0.215,0.176 0.082,0.066 0.176,0.152 0.277,0.25 0.102,0.105 0.192,0.23 0.277,0.379 0.086,0.148 0.157,0.32 0.211,0.527 0.059,0.203 0.086,0.446 0.086,0.727 l 0,6.601 c 0,0.141 -0.008,0.289 -0.027,0.442 -0.02,0.152 -0.063,0.289 -0.125,0.418 -0.066,0.129 -0.156,0.234 -0.273,0.324 -0.114,0.082 -0.266,0.129 -0.454,0.144 -0.027,-0.015 -0.074,-0.046 -0.136,-0.097 -0.067,-0.047 -0.133,-0.106 -0.203,-0.156 -0.071,-0.055 -0.137,-0.106 -0.192,-0.141 -0.058,-0.043 -0.098,-0.063 -0.117,-0.063 -0.086,0 -0.176,0.04 -0.262,0.118 -0.09,0.074 -0.168,0.14 -0.238,0.195 l -0.066,0.144 c 0,0.028 0.05,0.086 0.156,0.176 0.105,0.094 0.238,0.196 0.394,0.317 0.157,0.117 0.332,0.242 0.52,0.379 0.191,0.132 0.375,0.261 0.551,0.382 0.172,0.121 0.328,0.231 0.461,0.325 0.132,0.089 0.222,0.152 0.269,0.183 l 0.262,0.024 c 0.258,-0.145 0.504,-0.293 0.734,-0.446 0.235,-0.152 0.442,-0.32 0.625,-0.504 0.18,-0.187 0.332,-0.394 0.453,-0.617 0.118,-0.23 0.188,-0.484 0.215,-0.777 0.582,0.398 1.168,0.785 1.754,1.16 0.586,0.375 1.172,0.762 1.754,1.16 l 0.234,0.02 c 0.079,-0.032 0.196,-0.086 0.352,-0.157 0.156,-0.074 0.324,-0.156 0.508,-0.25 0.179,-0.093 0.375,-0.187 0.574,-0.285 0.199,-0.101 0.387,-0.191 0.562,-0.269 0.176,-0.082 0.333,-0.149 0.465,-0.207 0.137,-0.051 0.235,-0.078 0.297,-0.078 0.129,0 0.235,0.015 0.321,0.054 0.089,0.039 0.171,0.082 0.238,0.133 0.074,0.051 0.144,0.102 0.207,0.152 0.07,0.051 0.148,0.09 0.246,0.118 z m 9.863,-10.879 c 0.039,0 0.09,-0.02 0.141,-0.067 0.055,-0.039 0.105,-0.089 0.148,-0.144 0.043,-0.055 0.082,-0.106 0.114,-0.164 0.035,-0.055 0.054,-0.09 0.054,-0.121 0,-0.028 -0.043,-0.078 -0.121,-0.149 -0.086,-0.074 -0.187,-0.16 -0.316,-0.261 -0.129,-0.098 -0.27,-0.196 -0.422,-0.305 -0.152,-0.102 -0.297,-0.203 -0.438,-0.297 -0.136,-0.094 -0.261,-0.176 -0.371,-0.25 -0.113,-0.07 -0.187,-0.117 -0.23,-0.145 l -0.16,-0.043 c -0.188,0.028 -0.364,0.094 -0.528,0.2 -0.164,0.101 -0.308,0.23 -0.437,0.375 -0.125,0.148 -0.238,0.3 -0.328,0.465 -0.094,0.167 -0.16,0.324 -0.207,0.472 -0.395,-0.25 -0.786,-0.5 -1.184,-0.746 -0.395,-0.246 -0.797,-0.488 -1.199,-0.723 l -0.235,0 c -0.48,0.278 -0.878,0.606 -1.195,0.993 -0.32,0.386 -0.57,0.8 -0.766,1.246 -0.191,0.445 -0.328,0.918 -0.402,1.41 -0.082,0.492 -0.121,0.988 -0.121,1.48 0,1.262 0.305,2.328 0.906,3.196 0.602,0.867 1.532,1.562 2.793,2.078 l 0.184,0 c 0.109,-0.051 0.285,-0.121 0.527,-0.211 0.246,-0.094 0.516,-0.192 0.813,-0.305 0.297,-0.113 0.601,-0.226 0.918,-0.348 0.312,-0.125 0.601,-0.238 0.859,-0.351 0.262,-0.113 0.477,-0.211 0.641,-0.301 0.164,-0.086 0.246,-0.152 0.246,-0.191 0,-0.047 -0.035,-0.098 -0.11,-0.157 -0.074,-0.058 -0.156,-0.117 -0.25,-0.183 -0.089,-0.063 -0.171,-0.133 -0.246,-0.219 -0.074,-0.078 -0.113,-0.172 -0.113,-0.273 l 0,-5.836 c 0,-0.035 0.004,-0.074 0.008,-0.125 0.004,-0.043 0.008,-0.094 0.023,-0.141 0.012,-0.047 0.035,-0.086 0.063,-0.121 0.027,-0.031 0.066,-0.051 0.121,-0.051 0.121,0 0.238,0.028 0.351,0.082 0.118,0.055 0.219,0.117 0.305,0.192 0.07,0.027 0.121,0.039 0.164,0.039 z m -3.215,6.082 -2.175,0.933 c -0.145,-0.222 -0.258,-0.457 -0.344,-0.707 -0.082,-0.25 -0.149,-0.504 -0.192,-0.765 -0.043,-0.262 -0.07,-0.524 -0.086,-0.785 -0.011,-0.266 -0.019,-0.524 -0.019,-0.77 0,-0.129 0.008,-0.324 0.031,-0.578 0.02,-0.258 0.051,-0.543 0.098,-0.863 0.039,-0.317 0.098,-0.645 0.168,-0.973 0.074,-0.332 0.164,-0.633 0.269,-0.902 0.11,-0.27 0.231,-0.496 0.375,-0.668 0.141,-0.176 0.309,-0.266 0.496,-0.266 0.063,0 0.157,0.035 0.286,0.102 0.128,0.066 0.261,0.144 0.402,0.23 0.137,0.082 0.266,0.168 0.391,0.254 0.121,0.09 0.211,0.152 0.273,0.195 l 0.027,0 0,5.563 z m 11.871,0.629 c -0.058,-0.059 -0.168,-0.16 -0.32,-0.305 -0.152,-0.148 -0.308,-0.297 -0.476,-0.449 -0.164,-0.153 -0.325,-0.285 -0.481,-0.399 -0.156,-0.117 -0.266,-0.175 -0.336,-0.175 -0.012,0 -0.094,0.039 -0.246,0.109 -0.152,0.07 -0.34,0.16 -0.559,0.262 -0.218,0.109 -0.457,0.222 -0.722,0.347 -0.258,0.125 -0.5,0.243 -0.727,0.356 -0.226,0.109 -0.422,0.207 -0.586,0.285 -0.168,0.086 -0.265,0.133 -0.3,0.152 -0.165,-0.187 -0.278,-0.394 -0.352,-0.617 -0.066,-0.223 -0.105,-0.453 -0.105,-0.687 0,-0.2 0.07,-0.364 0.218,-0.504 0.145,-0.137 0.336,-0.262 0.574,-0.371 0.235,-0.118 0.504,-0.215 0.805,-0.313 0.301,-0.094 0.61,-0.195 0.922,-0.305 0.313,-0.109 0.621,-0.23 0.922,-0.363 0.301,-0.137 0.566,-0.297 0.809,-0.48 0.234,-0.188 0.425,-0.407 0.57,-0.657 0.144,-0.246 0.219,-0.546 0.219,-0.89 0,-0.461 -0.09,-0.863 -0.27,-1.207 -0.18,-0.344 -0.414,-0.656 -0.703,-0.934 -0.293,-0.277 -0.617,-0.535 -0.973,-0.765 -0.359,-0.235 -0.715,-0.469 -1.066,-0.707 l -0.192,-0.016 c -0.316,0.094 -0.625,0.215 -0.921,0.367 -0.297,0.152 -0.602,0.301 -0.903,0.445 -0.304,0.145 -0.613,0.274 -0.929,0.375 -0.313,0.106 -0.645,0.157 -0.997,0.157 -0.054,0.023 -0.113,0.054 -0.179,0.109 -0.063,0.051 -0.098,0.102 -0.098,0.156 0,0.051 0.07,0.137 0.203,0.266 0.129,0.129 0.281,0.266 0.453,0.414 0.172,0.148 0.336,0.289 0.493,0.414 0.152,0.133 0.261,0.219 0.312,0.27 l 0.258,0.035 3.351,-1.481 c 0.176,0.137 0.336,0.297 0.473,0.485 0.141,0.183 0.207,0.39 0.207,0.625 0,0.261 -0.074,0.484 -0.226,0.671 -0.153,0.184 -0.352,0.352 -0.606,0.497 -0.25,0.144 -0.535,0.277 -0.855,0.398 -0.321,0.117 -0.649,0.238 -0.981,0.363 -0.336,0.125 -0.668,0.258 -0.988,0.403 -0.317,0.14 -0.606,0.304 -0.856,0.5 -0.246,0.191 -0.449,0.418 -0.601,0.679 -0.153,0.258 -0.227,0.571 -0.227,0.926 0,0.359 0.102,0.703 0.317,1.035 0.211,0.332 0.476,0.641 0.789,0.926 0.316,0.289 0.656,0.547 1.015,0.781 0.364,0.235 0.696,0.434 1,0.606 l 0.215,0 c 0.219,-0.117 0.481,-0.25 0.774,-0.406 0.293,-0.157 0.593,-0.305 0.906,-0.446 0.312,-0.144 0.621,-0.265 0.926,-0.367 0.308,-0.102 0.586,-0.152 0.84,-0.152 l 0.128,-0.114 0.082,-0.304 z"
         style="fill:#151616;fill-opacity:1;fill-rule:evenodd;stroke:none"
         id="path3240"
         inkscape:connector-curvature="0" />
      <path
         d="m 462.082,824.116 63.016,0 0,-33.422 -63.016,0 0,33.422 z"
         style="fill:#52648a;fill-opacity:1;fill-rule:evenodd;stroke:none"
         id="path3242"
         inkscape:connector-curvature="0" />
      <path
         d="m 482.23,803.948 c 0,-0.359 -0.058,-0.726 -0.175,-1.101 -0.114,-0.379 -0.254,-0.742 -0.426,-1.098 -0.168,-0.351 -0.352,-0.695 -0.547,-1.019 -0.203,-0.328 -0.387,-0.629 -0.555,-0.899 -0.168,-0.269 -0.312,-0.504 -0.425,-0.699 -0.114,-0.195 -0.172,-0.34 -0.172,-0.437 0,-0.168 0.043,-0.325 0.136,-0.469 0.09,-0.149 0.192,-0.297 0.297,-0.442 0.11,-0.148 0.207,-0.304 0.297,-0.464 0.094,-0.164 0.141,-0.348 0.141,-0.547 0,-0.141 -0.035,-0.266 -0.102,-0.383 -0.066,-0.121 -0.16,-0.223 -0.269,-0.313 -0.11,-0.093 -0.235,-0.168 -0.375,-0.218 -0.137,-0.055 -0.278,-0.086 -0.422,-0.086 -0.242,0 -0.445,0.047 -0.61,0.129 -0.168,0.086 -0.3,0.195 -0.394,0.328 -0.102,0.136 -0.172,0.297 -0.211,0.472 -0.039,0.18 -0.059,0.368 -0.059,0.563 0,0.367 0.032,0.715 0.106,1.047 0.07,0.332 0.16,0.656 0.265,0.98 0.114,0.328 0.227,0.656 0.348,0.985 0.121,0.332 0.234,0.675 0.344,1.035 0.109,0.359 0.199,0.73 0.269,1.129 0.071,0.394 0.106,0.824 0.106,1.281 0,0.184 -0.024,0.398 -0.074,0.641 -0.043,0.242 -0.114,0.492 -0.2,0.75 -0.089,0.257 -0.195,0.511 -0.328,0.765 -0.133,0.254 -0.285,0.477 -0.457,0.676 -0.172,0.191 -0.367,0.352 -0.578,0.473 -0.215,0.125 -0.445,0.183 -0.695,0.183 -0.176,0 -0.348,-0.031 -0.516,-0.097 -0.168,-0.063 -0.336,-0.141 -0.496,-0.231 -0.164,-0.09 -0.324,-0.184 -0.484,-0.273 -0.157,-0.094 -0.313,-0.172 -0.469,-0.231 l 0,-3.465 c 0,-0.312 -0.105,-0.586 -0.312,-0.816 -0.204,-0.234 -0.45,-0.418 -0.735,-0.555 0.059,-0.015 0.145,-0.054 0.266,-0.105 0.121,-0.051 0.258,-0.106 0.41,-0.168 0.152,-0.059 0.312,-0.125 0.48,-0.196 0.172,-0.07 0.329,-0.132 0.473,-0.187 0.145,-0.055 0.273,-0.102 0.387,-0.141 0.109,-0.035 0.187,-0.054 0.226,-0.054 0.102,0 0.196,0.019 0.278,0.054 0.086,0.039 0.164,0.086 0.238,0.149 l 0.144,0.07 c 0.067,0 0.145,-0.039 0.231,-0.113 0.09,-0.078 0.156,-0.141 0.203,-0.18 l 0.059,-0.14 c 0,-0.032 -0.047,-0.094 -0.149,-0.184 -0.101,-0.09 -0.23,-0.184 -0.39,-0.293 -0.161,-0.106 -0.332,-0.223 -0.524,-0.344 -0.187,-0.121 -0.367,-0.238 -0.543,-0.344 -0.172,-0.109 -0.328,-0.207 -0.465,-0.289 -0.14,-0.086 -0.234,-0.14 -0.277,-0.168 l -0.246,-0.019 c -0.074,0.035 -0.207,0.094 -0.406,0.183 -0.192,0.086 -0.418,0.184 -0.672,0.297 -0.254,0.11 -0.516,0.227 -0.789,0.356 -0.274,0.125 -0.528,0.242 -0.754,0.359 -0.235,0.113 -0.422,0.215 -0.571,0.301 -0.148,0.09 -0.222,0.148 -0.222,0.184 0,0.07 0.058,0.14 0.176,0.226 0.121,0.078 0.25,0.199 0.386,0.36 0.141,0.16 0.266,0.363 0.387,0.613 0.117,0.258 0.176,0.59 0.176,1 l 0,6.804 c 0,0.129 -0.031,0.235 -0.094,0.317 -0.066,0.086 -0.144,0.152 -0.246,0.211 -0.098,0.055 -0.203,0.094 -0.32,0.129 -0.114,0.035 -0.219,0.066 -0.317,0.097 -0.101,0.032 -0.179,0.071 -0.246,0.11 -0.062,0.047 -0.097,0.105 -0.097,0.179 0,0.047 0.007,0.098 0.019,0.157 0.008,0.058 0.027,0.113 0.055,0.164 0.027,0.047 0.062,0.094 0.105,0.125 0.043,0.035 0.102,0.051 0.168,0.051 0.434,0 0.824,0.035 1.176,0.101 0.352,0.067 0.684,0.156 1,0.258 0.312,0.105 0.617,0.219 0.91,0.336 0.293,0.117 0.602,0.23 0.922,0.332 0.324,0.109 0.668,0.195 1.047,0.262 0.375,0.066 0.797,0.097 1.258,0.097 0.113,0 0.25,-0.015 0.422,-0.054 0.175,-0.036 0.359,-0.086 0.554,-0.153 0.196,-0.062 0.391,-0.14 0.594,-0.23 0.199,-0.09 0.375,-0.192 0.535,-0.297 0.16,-0.102 0.285,-0.211 0.387,-0.332 0.098,-0.121 0.144,-0.242 0.144,-0.363 0,-0.024 -0.05,-0.063 -0.152,-0.11 -0.098,-0.047 -0.227,-0.101 -0.383,-0.156 -0.156,-0.059 -0.324,-0.117 -0.511,-0.18 -0.188,-0.058 -0.364,-0.113 -0.536,-0.16 -0.168,-0.047 -0.316,-0.086 -0.449,-0.117 -0.129,-0.031 -0.219,-0.043 -0.258,-0.043 -0.043,0 -0.078,0.012 -0.101,0.043 -0.028,0.031 -0.047,0.062 -0.063,0.098 -0.062,0.168 -0.125,0.312 -0.187,0.429 -0.063,0.117 -0.145,0.215 -0.242,0.289 -0.098,0.075 -0.215,0.129 -0.356,0.168 -0.137,0.039 -0.308,0.055 -0.512,0.055 -0.277,0 -0.519,-0.047 -0.73,-0.137 -0.207,-0.09 -0.383,-0.215 -0.523,-0.375 -0.145,-0.16 -0.254,-0.343 -0.329,-0.551 -0.07,-0.21 -0.109,-0.429 -0.109,-0.66 l 0,-2.179 c 0.527,0.304 1.043,0.609 1.551,0.906 0.504,0.301 1.027,0.601 1.558,0.898 l 0.203,0.024 c 0.583,-0.262 1.09,-0.574 1.516,-0.949 0.43,-0.379 0.785,-0.797 1.063,-1.262 0.281,-0.457 0.492,-0.957 0.632,-1.492 0.137,-0.536 0.207,-1.086 0.207,-1.661 z m 9.622,0.333 c 0,-0.446 -0.036,-0.879 -0.102,-1.301 -0.066,-0.422 -0.188,-0.824 -0.355,-1.211 -0.168,-0.379 -0.395,-0.735 -0.68,-1.067 -0.281,-0.328 -0.641,-0.625 -1.074,-0.882 -0.059,-0.032 -0.176,-0.106 -0.344,-0.211 -0.168,-0.11 -0.352,-0.219 -0.543,-0.328 -0.192,-0.114 -0.371,-0.211 -0.535,-0.297 -0.168,-0.086 -0.274,-0.121 -0.321,-0.118 -0.636,0.165 -1.195,0.407 -1.679,0.731 -0.481,0.328 -0.887,0.711 -1.211,1.156 -0.32,0.445 -0.567,0.938 -0.735,1.473 -0.164,0.539 -0.25,1.097 -0.25,1.68 0,0.703 0.086,1.324 0.243,1.863 0.164,0.543 0.41,1.027 0.738,1.457 0.328,0.43 0.738,0.812 1.23,1.148 0.493,0.34 1.071,0.657 1.735,0.953 0.676,-0.086 1.258,-0.293 1.746,-0.621 0.484,-0.328 0.883,-0.726 1.203,-1.195 0.316,-0.473 0.555,-0.984 0.707,-1.547 0.148,-0.558 0.227,-1.121 0.227,-1.683 z m -2.059,-1.29 c 0,0.461 -0.043,0.934 -0.121,1.422 -0.078,0.485 -0.223,0.95 -0.422,1.387 -0.199,0.441 -0.469,0.84 -0.805,1.191 -0.336,0.356 -0.761,0.633 -1.277,0.836 -0.223,-0.179 -0.398,-0.398 -0.535,-0.652 -0.129,-0.254 -0.231,-0.523 -0.301,-0.801 -0.07,-0.281 -0.117,-0.566 -0.137,-0.851 -0.023,-0.289 -0.031,-0.563 -0.031,-0.825 0,-0.296 0.016,-0.597 0.051,-0.902 0.035,-0.305 0.094,-0.601 0.176,-0.898 0.086,-0.293 0.203,-0.578 0.347,-0.856 0.145,-0.273 0.328,-0.519 0.551,-0.754 l 0,-0.019 c 0.082,-0.102 0.176,-0.199 0.277,-0.305 0.106,-0.101 0.219,-0.195 0.336,-0.285 0.118,-0.09 0.246,-0.172 0.383,-0.234 0.133,-0.067 0.277,-0.106 0.426,-0.129 0.215,0.144 0.394,0.32 0.535,0.527 0.141,0.211 0.254,0.438 0.336,0.684 0.078,0.242 0.133,0.488 0.164,0.742 0.031,0.254 0.047,0.496 0.047,0.722 z m 17.488,-2.199 c 0.051,0 0.11,-0.019 0.168,-0.066 0.063,-0.043 0.121,-0.094 0.172,-0.153 0.055,-0.054 0.102,-0.113 0.141,-0.175 0.035,-0.063 0.054,-0.11 0.054,-0.141 0,-0.023 -0.043,-0.066 -0.128,-0.133 -0.083,-0.07 -0.192,-0.148 -0.321,-0.238 -0.137,-0.09 -0.281,-0.191 -0.437,-0.297 -0.16,-0.101 -0.313,-0.203 -0.457,-0.297 -0.145,-0.097 -0.274,-0.179 -0.387,-0.246 -0.109,-0.074 -0.188,-0.121 -0.227,-0.14 l -0.203,-0.02 c -0.312,0.102 -0.566,0.242 -0.769,0.422 -0.203,0.18 -0.364,0.379 -0.485,0.609 -0.117,0.223 -0.199,0.469 -0.246,0.731 -0.047,0.258 -0.07,0.523 -0.07,0.793 l 0,5.515 c -0.113,0.086 -0.234,0.172 -0.356,0.254 -0.121,0.078 -0.246,0.164 -0.375,0.254 -0.312,-0.156 -0.617,-0.32 -0.921,-0.492 -0.305,-0.176 -0.618,-0.336 -0.934,-0.492 l 0,-7.137 c 0,-0.066 -0.023,-0.117 -0.07,-0.148 -0.051,-0.028 -0.098,-0.043 -0.153,-0.043 l -1.765,0 c -0.051,0 -0.106,0.015 -0.149,0.043 -0.047,0.031 -0.074,0.082 -0.074,0.148 l 0,7.453 c 0,0.078 -0.004,0.164 -0.023,0.262 -0.016,0.094 -0.047,0.183 -0.094,0.262 -0.039,0.082 -0.098,0.148 -0.168,0.203 -0.074,0.054 -0.164,0.082 -0.27,0.082 -0.062,-0.035 -0.191,-0.102 -0.386,-0.199 -0.196,-0.094 -0.399,-0.204 -0.614,-0.313 -0.211,-0.113 -0.406,-0.211 -0.578,-0.297 -0.172,-0.09 -0.261,-0.137 -0.277,-0.144 l 0,-7.309 c 0,-0.066 -0.027,-0.117 -0.082,-0.148 -0.055,-0.028 -0.109,-0.043 -0.164,-0.043 l -1.75,0 c -0.055,0 -0.106,0.015 -0.141,0.054 -0.043,0.039 -0.062,0.082 -0.062,0.137 l 0,7.574 c 0,0.149 -0.047,0.254 -0.141,0.317 -0.09,0.066 -0.215,0.097 -0.367,0.097 -0.067,0 -0.129,-0.015 -0.188,-0.043 -0.058,-0.027 -0.109,-0.058 -0.156,-0.097 l -0.152,-0.086 c -0.086,0 -0.153,0.035 -0.196,0.105 -0.039,0.067 -0.082,0.121 -0.128,0.164 l 0.039,-0.062 c -0.036,0.031 -0.071,0.07 -0.102,0.109 -0.031,0.043 -0.051,0.082 -0.051,0.121 0,0.035 0.039,0.098 0.114,0.184 0.074,0.09 0.171,0.191 0.289,0.305 0.117,0.113 0.246,0.238 0.382,0.367 0.141,0.125 0.274,0.246 0.407,0.363 0.132,0.117 0.254,0.219 0.359,0.309 0.106,0.089 0.188,0.156 0.234,0.199 0.055,0.027 0.106,0.043 0.153,0.043 0.121,0 0.265,-0.067 0.441,-0.199 0.172,-0.133 0.34,-0.29 0.504,-0.473 0.168,-0.18 0.313,-0.367 0.438,-0.551 0.125,-0.187 0.199,-0.336 0.214,-0.441 l 3.086,1.664 0.25,-0.024 c 0.145,-0.097 0.289,-0.218 0.434,-0.355 0.145,-0.137 0.281,-0.277 0.406,-0.426 0.125,-0.148 0.235,-0.305 0.328,-0.469 0.098,-0.168 0.168,-0.332 0.223,-0.492 0.465,0.235 0.926,0.485 1.375,0.742 0.449,0.266 0.906,0.516 1.375,0.77 l -0.031,0 0.414,0.23 0.262,0 2.05,-1.386 0.09,-0.172 c 0.008,-0.051 -0.027,-0.106 -0.09,-0.168 -0.07,-0.059 -0.148,-0.117 -0.238,-0.176 -0.094,-0.059 -0.184,-0.109 -0.277,-0.164 -0.098,-0.051 -0.164,-0.09 -0.207,-0.117 l 0,-6.313 c 0,-0.027 0,-0.058 0.004,-0.101 0.003,-0.039 0.011,-0.078 0.023,-0.121 0.008,-0.039 0.027,-0.075 0.055,-0.106 0.027,-0.031 0.066,-0.047 0.113,-0.047 0.121,0 0.25,0.043 0.383,0.121 0.137,0.082 0.25,0.16 0.347,0.235 0.016,0 0.04,0 0.059,0.008 0.02,0.007 0.043,0.011 0.07,0.011 l 0.004,0 z m 6.645,8.414 c 0.035,-0.066 0.109,-0.211 0.23,-0.429 0.117,-0.223 0.254,-0.477 0.41,-0.774 0.157,-0.297 0.317,-0.613 0.485,-0.937 0.168,-0.328 0.324,-0.633 0.469,-0.914 0.148,-0.282 0.269,-0.52 0.363,-0.719 0.094,-0.192 0.144,-0.301 0.144,-0.32 0,-0.043 -0.101,-0.118 -0.297,-0.227 -0.195,-0.113 -0.445,-0.246 -0.75,-0.395 -0.304,-0.152 -0.636,-0.316 -1,-0.488 -0.359,-0.172 -0.707,-0.336 -1.042,-0.492 -0.333,-0.156 -0.629,-0.293 -0.891,-0.41 -0.262,-0.117 -0.438,-0.203 -0.531,-0.25 0.05,-0.235 0.125,-0.485 0.218,-0.746 0.098,-0.258 0.223,-0.5 0.383,-0.723 0.16,-0.223 0.352,-0.406 0.578,-0.551 0.227,-0.148 0.5,-0.218 0.825,-0.218 0.109,0 0.261,0.027 0.453,0.078 0.191,0.054 0.39,0.125 0.586,0.203 0.203,0.082 0.382,0.172 0.554,0.265 0.168,0.094 0.285,0.184 0.344,0.262 l 0.113,0.02 c 0.043,0 0.09,-0.016 0.129,-0.055 0.039,-0.039 0.074,-0.082 0.102,-0.137 0.027,-0.054 0.051,-0.109 0.066,-0.168 0.016,-0.054 0.024,-0.105 0.024,-0.144 0,-0.016 -0.004,-0.035 -0.008,-0.063 -0.004,-0.027 -0.016,-0.047 -0.031,-0.058 l -3.133,-1.907 -0.199,-0.043 c -0.665,0.192 -1.223,0.497 -1.676,0.915 -0.449,0.417 -0.813,0.898 -1.09,1.441 -0.274,0.539 -0.469,1.109 -0.586,1.715 -0.121,0.605 -0.18,1.195 -0.18,1.761 0,0.668 0.114,1.27 0.336,1.809 0.223,0.535 0.539,1 0.949,1.391 0.407,0.394 0.903,0.711 1.485,0.949 0.582,0.242 1.226,0.402 1.937,0.48 l 0.231,-0.121 z m -0.164,-4.195 -1.637,2.969 -0.422,-0.293 c -0.211,-0.418 -0.355,-0.86 -0.418,-1.317 -0.066,-0.461 -0.097,-0.922 -0.097,-1.379 0,-0.195 0.007,-0.398 0.027,-0.605 0.015,-0.203 0.039,-0.402 0.062,-0.602 l 2.485,1.227 z"
         style="fill:#ffffff;fill-opacity:1;fill-rule:evenodd;stroke:none"
         id="path3244"
         inkscape:connector-curvature="0" />
    </g>
  </g>
</svg>
