<?xml version="1.0" encoding="UTF-8" standalone="no"?>
<!-- Created with Inkscape (http://www.inkscape.org/) -->

<svg
   xmlns:dc="http://purl.org/dc/elements/1.1/"
   xmlns:cc="http://creativecommons.org/ns#"
   xmlns:rdf="http://www.w3.org/1999/02/22-rdf-syntax-ns#"
   xmlns:svg="http://www.w3.org/2000/svg"
   xmlns="http://www.w3.org/2000/svg"
   xmlns:sodipodi="http://sodipodi.sourceforge.net/DTD/sodipodi-0.dtd"
   xmlns:inkscape="http://www.inkscape.org/namespaces/inkscape"
   width="210mm"
   height="297mm"
   id="svg6080"
   version="1.1"
   inkscape:version="0.48.4 r"
   sodipodi:docname="tarcza.svg">
  <defs
     id="defs3" />
  <sodipodi:namedview
     inkscape:document-units="mm"
     id="base"
     pagecolor="#ffffff"
     bordercolor="#666666"
     borderopacity="1.0"
     inkscape:pageopacity="0.0"
     inkscape:pageshadow="2"
     inkscape:zoom="0.35"
     inkscape:cx="350"
     inkscape:cy="634.28571"
     inkscape:current-layer="layer1"
     showgrid="false"
     inkscape:window-width="1920"
     inkscape:window-height="1018"
     inkscape:window-x="-8"
     inkscape:window-y="-8"
     inkscape:window-maximized="1" />
  <metadata
     id="metadata4">
    <rdf:RDF>
      <cc:Work
         rdf:about="">
        <dc:format>image/svg+xml</dc:format>
        <dc:type
           rdf:resource="http://purl.org/dc/dcmitype/StillImage" />
        <dc:title></dc:title>
      </cc:Work>
    </rdf:RDF>
  </metadata>
  <g
     inkscape:label="Layer 1"
     inkscape:groupmode="layer"
     id="layer1">
    <g
       transform="matrix(1.25,0,0,-1.25,-61.031839,1116.1496)"
       id="g5573">
      <path
         d="m 137.793,832.726 c -0.945,-14.828 -13.273,-26.567 -28.34,-26.567 -15.066,0 -27.394,11.739 -28.344,26.563 3.426,2.953 5.598,7.324 5.598,12.199 0,4 -1.461,7.66 -3.879,10.473 0.039,0 0.078,0 0.113,0 5.121,0 9.508,3.125 11.364,7.574 l 30.484,0 c 1.856,-4.449 6.246,-7.574 11.363,-7.574 -2.433,-2.821 -3.906,-6.492 -3.906,-10.512 0,-4.855 2.149,-9.207 5.547,-12.16 l 0,0.004 z"
         style="fill:#ffd043;fill-opacity:1;fill-rule:evenodd;stroke:none"
         id="path3906"
         inkscape:connector-curvature="0" />
      <path
         d="m 137.793,832.726 c -0.902,-14.113 -12.109,-25.422 -26.18,-26.485 l -2.16,0.454 0,55.738 15.574,0 c 1.973,-4.16 6.215,-7.039 11.125,-7.039 -2.433,-2.821 -3.906,-6.492 -3.906,-10.512 0,-4.855 2.149,-9.207 5.547,-12.156 z"
         style="fill:#52648a;fill-opacity:1;fill-rule:evenodd;stroke:none"
         id="path3908"
         inkscape:connector-curvature="0" />
      <path
         d="m 105.945,809.245 c -11.949,10.254 -10.863,26.071 -16.297,39.11 0.821,-7.371 -0.761,-13.211 -5.25,-17.203 3.508,-10.493 10.809,-17.688 21.547,-21.907 z"
         style="fill:#ffde7e;fill-opacity:1;fill-rule:evenodd;stroke:none"
         id="path3910"
         inkscape:connector-curvature="0" />
      <path
         d="m 113.09,809.245 c 11.945,10.254 10.863,26.071 16.293,39.11 -0.821,-7.371 0.762,-13.211 5.25,-17.203 -3.508,-10.493 -10.809,-17.688 -21.543,-21.907 z"
         style="fill:#7586ac;fill-opacity:1;fill-rule:evenodd;stroke:none"
         id="path3912"
         inkscape:connector-curvature="0" />
      <path
         d="m 138.328,832.691 c -0.137,-2.118 -0.5,-4.172 -1.062,-6.137 -0.567,-1.961 -1.336,-3.844 -2.286,-5.621 -4.875,-9.11 -14.48,-15.305 -25.527,-15.305 l -0.004,0 c -2.148,0 -4.242,0.235 -6.258,0.68 -2.015,0.445 -3.949,1.101 -5.785,1.941 -9.426,4.324 -16.133,13.567 -16.828,24.442 -0.012,0.172 0.059,0.328 0.176,0.433 0.012,0.008 0.023,0.016 0.031,0.024 0.453,0.394 0.887,0.812 1.293,1.258 0.418,0.453 0.805,0.929 1.16,1.421 1.848,2.559 2.934,5.7 2.934,9.094 0,1.934 -0.352,3.785 -0.996,5.496 -0.11,0.281 -0.219,0.555 -0.34,0.821 -0.617,1.386 -1.434,2.671 -2.41,3.812 -0.192,0.223 -0.168,0.559 0.058,0.75 0.11,0.094 0.246,0.137 0.379,0.129 l 0.02,0 c 0.039,-0.004 -0.078,0 0.058,0 l 0,-0.004 c 1.403,0 2.743,0.246 3.989,0.695 0.508,0.18 0.996,0.399 1.468,0.645 2.426,1.269 4.356,3.363 5.414,5.906 0.086,0.207 0.286,0.332 0.493,0.332 l 30.484,0 c 0.234,0 0.434,-0.152 0.504,-0.359 0.246,-0.586 0.539,-1.145 0.871,-1.68 0.34,-0.543 0.723,-1.055 1.141,-1.531 2.156,-2.453 5.32,-4.004 8.847,-4.004 0.297,0 0.536,-0.238 0.536,-0.535 0,-0.149 -0.059,-0.281 -0.157,-0.379 -0.316,-0.367 -0.621,-0.758 -0.906,-1.16 -0.293,-0.418 -0.566,-0.844 -0.816,-1.282 -1.293,-2.269 -2.028,-4.89 -2.028,-7.691 l -0.004,0 c 0,-2.344 0.52,-4.57 1.453,-6.566 0.161,-0.348 0.325,-0.668 0.485,-0.957 0.887,-1.606 2.051,-3.036 3.43,-4.231 0.128,-0.113 0.191,-0.277 0.183,-0.437 z m -2.09,-5.844 c 0.52,1.816 0.864,3.707 1.008,5.652 -1.383,1.239 -2.555,2.707 -3.465,4.344 -0.195,0.355 -0.367,0.695 -0.519,1.02 -0.996,2.132 -1.551,4.507 -1.551,7.019 0,2.988 0.789,5.789 2.172,8.215 0.269,0.476 0.558,0.934 0.867,1.371 0.105,0.145 0.211,0.293 0.32,0.438 -3.406,0.281 -6.437,1.898 -8.566,4.324 -0.461,0.523 -0.879,1.082 -1.246,1.672 -0.305,0.488 -0.578,1 -0.82,1.531 l -29.782,0 c -1.183,-2.625 -3.222,-4.781 -5.765,-6.113 -0.516,-0.27 -1.051,-0.504 -1.602,-0.704 -1.066,-0.382 -2.199,-0.628 -3.375,-0.718 0.746,-0.996 1.383,-2.078 1.895,-3.227 0.132,-0.293 0.253,-0.59 0.363,-0.879 0.687,-1.824 1.066,-3.804 1.066,-5.871 0,-3.625 -1.16,-6.98 -3.133,-9.715 -0.386,-0.535 -0.8,-1.043 -1.242,-1.523 -0.379,-0.414 -0.781,-0.809 -1.203,-1.184 0.762,-10.363 7.184,-19.152 16.192,-23.281 1.765,-0.812 3.628,-1.441 5.57,-1.871 1.941,-0.43 3.957,-0.652 6.027,-0.652 l 0.004,0 c 10.645,0 19.895,5.968 24.586,14.742 0.91,1.699 1.652,3.511 2.199,5.41 z"
         style="fill:#151616;fill-opacity:1;fill-rule:evenodd;stroke:none"
         id="path3914"
         inkscape:connector-curvature="0" />
      <path
         d="m 138.473,861.437 -2.918,2.914 -49.524,-49.524 c -0.804,-0.804 -0.804,-2.109 0,-2.914 0.805,-0.804 2.11,-0.804 2.914,0 l 49.528,49.524 z"
         style="fill:#a05943;fill-opacity:1;fill-rule:evenodd;stroke:none"
         id="path3916"
         inkscape:connector-curvature="0" />
      <path
         d="m 138.105,861.437 -2.55,2.551 -49.34,-49.344 c -0.356,-0.352 -0.531,-0.813 -0.531,-1.274 0,-0.461 0.175,-0.922 0.531,-1.277 0.351,-0.352 0.812,-0.527 1.273,-0.527 0.461,0 0.922,0.175 1.278,0.527 l 49.339,49.344 z m -2.367,3.097 3.098,-3.097 -0.184,-0.18 -49.523,-49.527 -0.008,-0.008 c -0.453,-0.445 -1.043,-0.672 -1.633,-0.668 -0.593,0 -1.187,0.223 -1.64,0.676 -0.45,0.453 -0.676,1.047 -0.676,1.64 0,0.59 0.223,1.18 0.672,1.633 l 0.004,0.008 49.527,49.523 0.18,0.184 0.183,-0.184 z"
         style="fill:#151616;fill-opacity:1;fill-rule:evenodd;stroke:none"
         id="path3918"
         inkscape:connector-curvature="0" />
      <path
         d="m 132.547,855.515 c 0.351,-0.25 0.687,-0.531 1,-0.848 3.051,-3.047 3.051,-7.992 0,-11.043 -2.965,-2.965 -7.723,-3.047 -10.789,-0.246 9.168,-8.898 23.812,-8.82 32.875,0.246 7.125,7.125 8.699,17.699 4.722,26.352 -0.082,-3.219 -1.351,-6.41 -3.804,-8.863 -5.082,-5.082 -13.324,-5.082 -18.406,0 l -5.598,-5.598 z"
         style="fill:#989899;fill-opacity:1;fill-rule:evenodd;stroke:none"
         id="path3920"
         inkscape:connector-curvature="0" />
      <path
         d="m 132.941,855.542 c 0.098,-0.074 0.196,-0.152 0.289,-0.234 0.176,-0.149 0.34,-0.301 0.5,-0.457 1.575,-1.574 2.364,-3.641 2.364,-5.703 0,-2.067 -0.789,-4.129 -2.364,-5.707 -1.527,-1.528 -3.519,-2.313 -5.523,-2.36 -0.977,-0.019 -1.961,0.133 -2.898,0.469 4.129,-3.055 9.039,-4.566 13.937,-4.527 5.871,0.043 11.727,2.304 16.207,6.781 3.473,3.477 5.613,7.777 6.418,12.273 0.77,4.282 0.324,8.739 -1.328,12.821 -0.141,-1.309 -0.473,-2.602 -1,-3.828 -0.648,-1.504 -1.586,-2.914 -2.813,-4.141 -2.589,-2.59 -5.988,-3.887 -9.382,-3.887 -3.317,0 -6.633,1.235 -9.2,3.707 l -5.207,-5.207 z m -0.043,-0.629 c -0.164,0.141 -0.328,0.27 -0.5,0.391 l -0.246,0.176 5.813,5.812 0.18,0.184 0.183,-0.184 c 2.488,-2.488 5.754,-3.734 9.02,-3.734 3.265,0 6.527,1.246 9.019,3.734 1.18,1.184 2.082,2.535 2.703,3.981 0.645,1.504 0.989,3.101 1.028,4.707 l 0.031,1.105 0.461,-1.004 c 2.039,-4.433 2.633,-9.367 1.785,-14.093 -0.82,-4.598 -3.008,-8.997 -6.559,-12.547 -4.578,-4.578 -10.566,-6.887 -16.566,-6.934 -6.008,-0.043 -12.031,2.188 -16.668,6.688 l 0.352,0.375 0.004,-0.008 0.007,-0.004 c 1.485,-1.352 3.375,-2.004 5.254,-1.961 1.875,0.043 3.735,0.777 5.164,2.211 1.477,1.473 2.215,3.406 2.215,5.34 0,1.929 -0.738,3.863 -2.215,5.34 -0.152,0.152 -0.308,0.296 -0.465,0.425 z"
         style="fill:#151616;fill-opacity:1;fill-rule:evenodd;stroke:none"
         id="path3922"
         inkscape:connector-curvature="0" />
      <path
         d="m 132.754,840.843 c 2.641,-4.949 12.008,-2.594 17.219,0.695 5.211,3.293 8.41,8.875 9.609,14.844 -1.789,-5.359 -4.824,-10.012 -9.676,-13.074 -4.847,-3.063 -13.953,-6.16 -17.152,-2.465 z"
         style="fill:#d9d9da;fill-opacity:1;fill-rule:evenodd;stroke:none"
         id="path3924"
         inkscape:connector-curvature="0" />
      <path
         d="m 112.41,853.566 c -1.406,6.031 0.242,12.632 4.945,17.336 3.727,3.73 8.653,5.535 13.54,5.421 -1.137,-4.597 -0.059,-9.628 3.23,-13.402 l -4.395,-4.394 c -4.023,4.023 -10.542,4.023 -14.566,0 -1.418,-1.418 -2.336,-3.145 -2.754,-4.961 z"
         style="fill:#989899;fill-opacity:1;fill-rule:evenodd;stroke:none"
         id="path3926"
         inkscape:connector-curvature="0" />
      <path
         d="m 112.16,853.507 c -0.726,3.113 -0.648,6.375 0.231,9.457 0.847,2.973 2.441,5.777 4.781,8.121 1.851,1.852 4,3.238 6.289,4.156 2.379,0.954 4.914,1.399 7.437,1.34 l 0.321,-0.008 -0.078,-0.308 c -0.567,-2.293 -0.571,-4.695 -0.02,-6.992 0.539,-2.227 1.606,-4.356 3.199,-6.184 l 0.157,-0.18 -0.168,-0.171 -4.395,-4.395 -0.184,-0.18 -0.183,0.18 c -1.961,1.961 -4.531,2.941 -7.102,2.941 -2.57,0 -5.14,-0.98 -7.101,-2.941 -0.68,-0.68 -1.242,-1.43 -1.684,-2.23 -0.457,-0.825 -0.789,-1.704 -1,-2.606 l -0.246,-1.082 -0.254,1.082 z m 0.723,9.316 c -0.758,-2.66 -0.903,-5.46 -0.43,-8.171 0.199,0.586 0.453,1.16 0.758,1.711 0.469,0.843 1.059,1.632 1.769,2.343 2.063,2.063 4.766,3.094 7.465,3.094 2.625,0 5.246,-0.973 7.282,-2.914 l 4.05,4.051 c -1.562,1.847 -2.613,3.984 -3.152,6.215 -0.551,2.273 -0.566,4.644 -0.055,6.921 -2.351,0.012 -4.703,-0.421 -6.918,-1.308 -2.226,-0.895 -4.312,-2.242 -6.117,-4.047 -2.277,-2.273 -3.828,-5.004 -4.652,-7.895 z"
         style="fill:#151616;fill-opacity:1;fill-rule:evenodd;stroke:none"
         id="path3928"
         inkscape:connector-curvature="0" />
      <path
         d="m 135.555,864.351 10.199,7.285 -7.281,-10.199 -2.918,2.914 z"
         style="fill:#676767;fill-opacity:1;fill-rule:evenodd;stroke:none"
         id="path3930"
         inkscape:connector-curvature="0" />
      <path
         d="m 135.406,864.562 10.199,7.281 1.254,0.895 -0.898,-1.254 -7.281,-10.196 -0.176,-0.246 -3.344,3.344 0.246,0.176 z m 9.242,5.969 -8.695,-6.211 2.485,-2.485 6.21,8.696 z"
         style="fill:#151616;fill-opacity:1;fill-rule:evenodd;stroke:none"
         id="path3932"
         inkscape:connector-curvature="0" />
      <path
         d="m 109.195,862.433 0.512,0 0,-56.809 -0.512,0 0,56.809 z"
         style="fill:#151616;fill-opacity:1;fill-rule:evenodd;stroke:none"
         id="path3934"
         inkscape:connector-curvature="0" />
      <path
         d="m 80.332,860.355 50.344,-48.907 5.101,-0.726 -0.726,5.098 -48.91,50.347 c -1.25,-0.551 -2.422,-1.336 -3.45,-2.363 -1.023,-1.023 -1.812,-2.195 -2.359,-3.449 z"
         style="fill:#989899;fill-opacity:1;fill-rule:evenodd;stroke:none"
         id="path3936"
         inkscape:connector-curvature="0" />
      <path
         d="m 80.637,860.413 50.16,-48.722 4.676,-0.668 -0.668,4.679 -48.723,50.157 c -0.562,-0.258 -1.105,-0.567 -1.625,-0.922 -0.559,-0.379 -1.086,-0.817 -1.582,-1.313 -0.496,-0.496 -0.934,-1.027 -1.313,-1.582 -0.359,-0.519 -0.664,-1.066 -0.925,-1.629 z m 49.863,-49.148 -50.348,48.906 -0.129,0.125 0.071,0.164 c 0.285,0.649 0.633,1.274 1.043,1.871 0.398,0.586 0.859,1.141 1.375,1.657 0.515,0.515 1.07,0.972 1.652,1.375 0.598,0.41 1.227,0.753 1.875,1.039 l 0.164,0.074 0.121,-0.129 48.91,-50.348 0.059,-0.058 0.012,-0.086 0.726,-5.098 0.047,-0.34 -0.336,0.051 -5.101,0.727 -0.082,0.011 -0.059,0.059 z"
         style="fill:#151616;fill-opacity:1;fill-rule:evenodd;stroke:none"
         id="path3938"
         inkscape:connector-curvature="0" />
      <path
         d="m 79.781,866.718 c 4.024,4.023 10.547,4.023 14.571,0 0.097,-0.098 0.191,-0.195 0.281,-0.293 -4.02,1.481 -8.711,0.609 -11.942,-2.621 -3.226,-3.227 -4.101,-7.918 -2.621,-11.938 -0.097,0.09 -0.195,0.184 -0.289,0.278 -4.027,4.023 -4.027,10.551 0,14.574 z"
         style="fill:#676767;fill-opacity:1;fill-rule:evenodd;stroke:none"
         id="path3940"
         inkscape:connector-curvature="0" />
      <path
         d="m 79.598,866.898 c 2.062,2.062 4.765,3.093 7.468,3.093 2.704,0 5.407,-1.031 7.469,-3.093 0.035,-0.032 0.082,-0.082 0.145,-0.149 0.031,-0.031 0.078,-0.082 0.14,-0.148 l 0.727,-0.785 -1.004,0.367 c -1.996,0.738 -4.16,0.879 -6.223,0.426 -1.996,-0.438 -3.894,-1.434 -5.445,-2.985 -1.555,-1.554 -2.547,-3.453 -2.984,-5.445 -0.453,-2.063 -0.313,-4.231 0.421,-6.227 l 0.372,-1.004 -0.786,0.727 c -0.07,0.063 -0.121,0.113 -0.152,0.141 -0.047,0.047 -0.098,0.097 -0.148,0.144 -2.063,2.063 -3.094,4.766 -3.094,7.473 0,2.703 1.031,5.406 3.094,7.469 l 0,-0.004 z m 7.468,2.582 c -2.57,0 -5.14,-0.985 -7.105,-2.946 -1.961,-1.961 -2.941,-4.531 -2.941,-7.105 0,-2.359 0.828,-4.723 2.48,-6.609 -0.473,1.785 -0.508,3.664 -0.113,5.464 0.457,2.09 1.5,4.079 3.125,5.704 1.621,1.625 3.609,2.664 5.699,3.125 1.801,0.394 3.68,0.355 5.469,-0.118 -1.891,1.657 -4.25,2.485 -6.614,2.485 z"
         style="fill:#151616;fill-opacity:1;fill-rule:evenodd;stroke:none"
         id="path3942"
         inkscape:connector-curvature="0" />
      <path
         d="m 80.504,866.081 c 2.758,2.754 6.801,3.446 10.199,2.063 -3.262,0.554 -6.734,-0.426 -9.254,-2.942 -2.617,-2.621 -3.574,-6.273 -2.867,-9.648 -1.562,3.465 -0.922,7.68 1.922,10.527 z"
         style="fill:#989899;fill-opacity:1;fill-rule:evenodd;stroke:none"
         id="path3944"
         inkscape:connector-curvature="0" />
      <path
         d="m 81.383,868.031 -6.531,6.527 c -0.04,-0.731 -0.34,-1.453 -0.899,-2.012 -0.558,-0.562 -1.281,-0.863 -2.015,-0.902 l 6.531,-6.531 c 0.375,0.566 0.812,1.105 1.312,1.605 0.496,0.5 1.035,0.934 1.602,1.313 z"
         style="fill:#a05943;fill-opacity:1;fill-rule:evenodd;stroke:none"
         id="path3946"
         inkscape:connector-curvature="0" />
      <path
         d="m 80.98,868.066 -5.945,5.945 c -0.047,-0.223 -0.117,-0.438 -0.211,-0.648 -0.164,-0.364 -0.394,-0.704 -0.687,-1 -0.297,-0.297 -0.637,-0.528 -1.004,-0.688 -0.207,-0.094 -0.426,-0.168 -0.645,-0.215 l 5.942,-5.945 c 0.144,0.203 0.297,0.402 0.453,0.594 0.222,0.269 0.457,0.535 0.715,0.789 0.254,0.254 0.515,0.492 0.789,0.715 0.195,0.16 0.39,0.308 0.593,0.453 z m -5.945,6.675 6.754,-6.753 -0.266,-0.172 c -0.273,-0.184 -0.546,-0.383 -0.808,-0.602 -0.258,-0.211 -0.512,-0.437 -0.754,-0.68 -0.238,-0.238 -0.465,-0.488 -0.68,-0.75 -0.215,-0.265 -0.414,-0.535 -0.597,-0.812 l -0.176,-0.262 -0.223,0.223 -6.527,6.531 -0.41,0.406 0.578,0.032 c 0.34,0.019 0.679,0.097 1,0.242 0.304,0.137 0.594,0.328 0.844,0.582 0.253,0.254 0.449,0.543 0.585,0.847 0.141,0.317 0.223,0.657 0.243,1 l 0.031,0.575 0.406,-0.407 z"
         style="fill:#151616;fill-opacity:1;fill-rule:evenodd;stroke:none"
         id="path3948"
         inkscape:connector-curvature="0" />
      <path
         d="m 69.582,876.913 c 1.207,1.207 3.164,1.207 4.371,0 1.207,-1.207 1.207,-3.164 0,-4.367 -1.207,-1.207 -3.164,-1.207 -4.371,0 -1.207,1.203 -1.207,3.16 0,4.367 z"
         style="fill:#676767;fill-opacity:1;fill-rule:evenodd;stroke:none"
         id="path3950"
         inkscape:connector-curvature="0" />
      <path
         d="m 69.402,877.097 c 0.653,0.652 1.508,0.98 2.368,0.98 0.855,0 1.71,-0.328 2.367,-0.98 0.652,-0.652 0.98,-1.512 0.98,-2.367 0,-0.856 -0.328,-1.715 -0.98,-2.367 -0.657,-0.653 -1.512,-0.981 -2.367,-0.981 -0.86,0 -1.715,0.328 -2.368,0.981 -0.656,0.652 -0.98,1.511 -0.98,2.367 0,0.855 0.324,1.715 0.98,2.367 z m 0.364,-0.363 c -0.555,-0.555 -0.828,-1.282 -0.828,-2.004 0,-0.727 0.273,-1.449 0.828,-2.004 0.55,-0.551 1.277,-0.828 2.004,-0.828 0.722,0 1.449,0.277 2,0.828 0.554,0.555 0.832,1.277 0.832,2.004 0,0.722 -0.278,1.449 -0.832,2.004 -0.551,0.55 -1.278,0.828 -2,0.828 -0.727,0 -1.454,-0.278 -2.004,-0.828 z"
         style="fill:#151616;fill-opacity:1;fill-rule:evenodd;stroke:none"
         id="path3952"
         inkscape:connector-curvature="0" />
      <path
         d="m 82.875,863.988 53.082,-53.086 -0.363,-0.364 -53.082,53.086 0.363,0.364 z"
         style="fill:#151616;fill-opacity:1;fill-rule:evenodd;stroke:none"
         id="path3954"
         inkscape:connector-curvature="0" />
      <path
         d="m 82.492,861.527 -0.683,-1.129 48.175,-47.539 0.993,-0.114 -48.485,48.782 z"
         style="fill:#d9d9da;fill-opacity:1;fill-rule:evenodd;stroke:none"
         id="path3956"
         inkscape:connector-curvature="0" />
      <path
         d="m 71.805,877.089 c 0.871,0 1.578,-0.453 1.578,-1.012 0,-0.558 -0.707,-1.011 -1.578,-1.011 -0.875,0 -1.582,0.453 -1.582,1.011 0,0.559 0.707,1.012 1.582,1.012 z"
         style="fill:#989899;fill-opacity:1;fill-rule:evenodd;stroke:none"
         id="path3958"
         inkscape:connector-curvature="0" />
      <path
         d="m 137.492,863.382 5.52,5.445 -4.684,-6.285 -0.836,0.84 z"
         style="fill:#989899;fill-opacity:1;fill-rule:evenodd;stroke:none"
         id="path3960"
         inkscape:connector-curvature="0" />
      <path
         d="m 119.863,845.136 c 0.106,-0.098 0.946,0.617 1.875,1.594 0.93,0.98 1.598,1.855 1.492,1.953 -0.101,0.098 -0.941,-0.613 -1.871,-1.594 -0.929,-0.98 -1.597,-1.851 -1.496,-1.953 z"
         style="fill:#c0806e;fill-opacity:1;fill-rule:evenodd;stroke:none"
         id="path3962"
         inkscape:connector-curvature="0" />
      <path
         d="m 119.902,845.175 c 0.028,-0.027 0.239,0.125 0.555,0.395 0.34,0.285 0.777,0.711 1.242,1.199 0.465,0.488 0.863,0.949 1.133,1.301 0.254,0.328 0.395,0.546 0.363,0.578 -0.027,0.027 -0.238,-0.125 -0.554,-0.395 -0.34,-0.289 -0.778,-0.711 -1.243,-1.199 -0.464,-0.488 -0.863,-0.949 -1.132,-1.301 -0.254,-0.332 -0.395,-0.551 -0.364,-0.578 z m 0.621,0.316 c -0.359,-0.308 -0.621,-0.46 -0.695,-0.39 -0.074,0.07 0.067,0.336 0.356,0.715 0.273,0.351 0.671,0.816 1.14,1.308 0.465,0.492 0.91,0.914 1.25,1.207 0.36,0.305 0.617,0.461 0.692,0.391 0.074,-0.07 -0.067,-0.34 -0.352,-0.715 -0.273,-0.355 -0.676,-0.82 -1.141,-1.312 -0.464,-0.489 -0.91,-0.914 -1.25,-1.204 z"
         style="fill:#c0806e;fill-opacity:1;fill-rule:evenodd;stroke:none"
         id="path3964"
         inkscape:connector-curvature="0" />
      <path
         d="m 93.996,819.499 c 0.106,-0.101 0.942,0.614 1.871,1.594 0.934,0.977 1.602,1.852 1.496,1.949 -0.101,0.102 -0.941,-0.613 -1.871,-1.594 -0.93,-0.98 -1.597,-1.851 -1.496,-1.949 z"
         style="fill:#c0806e;fill-opacity:1;fill-rule:evenodd;stroke:none"
         id="path3966"
         inkscape:connector-curvature="0" />
      <path
         d="m 94.031,819.534 c 0.031,-0.027 0.242,0.125 0.559,0.395 0.336,0.285 0.773,0.707 1.238,1.195 l 0.012,0.012 c 0.461,0.484 0.855,0.945 1.125,1.297 0.254,0.328 0.394,0.547 0.363,0.574 -0.027,0.027 -0.238,-0.125 -0.555,-0.394 -0.335,-0.286 -0.773,-0.704 -1.238,-1.192 l -0.004,-0.008 -0.004,-0.004 c -0.465,-0.488 -0.859,-0.949 -1.129,-1.3 -0.253,-0.328 -0.394,-0.547 -0.367,-0.575 z m 0.625,0.317 c -0.359,-0.309 -0.621,-0.461 -0.695,-0.391 -0.074,0.071 0.066,0.336 0.355,0.711 0.27,0.356 0.672,0.82 1.137,1.309 l 0.004,0.004 0.004,0.007 c 0.465,0.489 0.906,0.911 1.246,1.2 0.359,0.308 0.617,0.461 0.691,0.39 0.075,-0.07 -0.066,-0.336 -0.351,-0.711 -0.27,-0.351 -0.668,-0.816 -1.133,-1.304 l -0.012,-0.012 c -0.464,-0.492 -0.906,-0.914 -1.246,-1.203 z"
         style="fill:#c0806e;fill-opacity:1;fill-rule:evenodd;stroke:none"
         id="path3968"
         inkscape:connector-curvature="0" />
      <path
         d="m 119.883,845.132 c 0.047,-0.039 0.328,0.16 0.75,0.52 0.441,0.375 1.019,0.929 1.629,1.57 l 0.015,0.016 c 0.61,0.644 1.137,1.25 1.489,1.71 0.339,0.442 0.523,0.739 0.48,0.782 -0.047,0.043 -0.332,-0.16 -0.758,-0.52 -0.445,-0.379 -1.027,-0.937 -1.636,-1.578 l 0,-0.004 c -0.614,-0.64 -1.137,-1.25 -1.493,-1.715 -0.339,-0.441 -0.523,-0.738 -0.48,-0.781 l 0.004,0 z m -0.074,-0.074 c -0.09,0.09 0.097,0.433 0.468,0.918 0.356,0.469 0.887,1.078 1.496,1.722 l 0.004,0 0,0.004 c 0.614,0.645 1.196,1.204 1.645,1.586 0.469,0.399 0.801,0.602 0.894,0.516 0.09,-0.086 -0.097,-0.43 -0.468,-0.918 -0.356,-0.465 -0.883,-1.074 -1.496,-1.719 l -0.004,-0.008 -0.012,-0.007 c -0.609,-0.645 -1.191,-1.2 -1.637,-1.579 -0.465,-0.398 -0.801,-0.601 -0.89,-0.515 z"
         style="fill:#c0806e;fill-opacity:1;fill-rule:evenodd;stroke:none"
         id="path3970"
         inkscape:connector-curvature="0" />
      <path
         d="m 94.012,819.491 c 0.05,-0.039 0.336,0.165 0.758,0.52 0.441,0.379 1.023,0.937 1.632,1.578 l 0.004,0.004 c 0.61,0.645 1.137,1.25 1.492,1.715 0.34,0.441 0.524,0.738 0.481,0.781 -0.047,0.047 -0.332,-0.156 -0.758,-0.519 -0.445,-0.379 -1.027,-0.934 -1.637,-1.579 l -0.007,-0.007 c -0.61,-0.645 -1.133,-1.25 -1.489,-1.711 -0.336,-0.442 -0.519,-0.735 -0.476,-0.778 l 0,-0.004 z m 0.824,0.442 c -0.469,-0.399 -0.805,-0.602 -0.895,-0.516 l 0,0.004 c -0.089,0.086 0.098,0.43 0.465,0.914 0.356,0.465 0.883,1.074 1.492,1.719 l 0.012,0.008 c 0.613,0.648 1.195,1.207 1.645,1.586 0.468,0.398 0.8,0.601 0.894,0.515 0.09,-0.086 -0.097,-0.429 -0.469,-0.918 -0.359,-0.464 -0.886,-1.078 -1.5,-1.722 l -0.003,-0.004 c -0.614,-0.645 -1.196,-1.203 -1.641,-1.586 z"
         style="fill:#c0806e;fill-opacity:1;fill-rule:evenodd;stroke:none"
         id="path3972"
         inkscape:connector-curvature="0" />
      <path
         d="m 118.273,843.796 c 0.098,-0.094 0.622,0.262 1.387,0.914 0.785,0.668 1.813,1.653 2.891,2.789 1.078,1.137 2.008,2.211 2.637,3.032 0.609,0.8 0.941,1.339 0.839,1.433 -0.097,0.094 -0.621,-0.262 -1.386,-0.914 -0.786,-0.672 -1.809,-1.652 -2.891,-2.789 l -3.477,-4.465 z m 1.454,0.836 c -0.809,-0.687 -1.383,-1.047 -1.524,-0.91 -0.144,0.133 0.184,0.723 0.832,1.566 0.629,0.825 1.559,1.903 2.641,3.039 l 0,0.004 c 1.082,1.137 2.109,2.125 2.898,2.797 0.809,0.688 1.383,1.047 1.528,0.91 0.14,-0.136 -0.188,-0.726 -0.832,-1.57 -0.633,-0.82 -1.563,-1.898 -2.645,-3.039 -1.082,-1.141 -2.109,-2.125 -2.898,-2.797 z m 2.023,3.629 0,-0.004 c -1.078,-1.137 -2.008,-2.211 -2.637,-3.031 -0.609,-0.797 -0.937,-1.336 -0.84,-1.43 l 3.477,4.465 z"
         style="fill:#c0806e;fill-opacity:1;fill-rule:evenodd;stroke:none"
         id="path3974"
         inkscape:connector-curvature="0" />
      <path
         d="m 92.406,818.156 c 0.098,-0.094 0.621,0.261 1.387,0.914 0.785,0.671 1.812,1.652 2.891,2.789 l 0.007,0.007 c 1.075,1.137 2.004,2.211 2.629,3.028 0.61,0.797 0.942,1.336 0.84,1.429 -0.098,0.094 -0.617,-0.261 -1.383,-0.914 -0.785,-0.668 -1.812,-1.652 -2.89,-2.789 l -0.004,0 -0.008,-0.007 c -1.078,-1.137 -2.004,-2.211 -2.629,-3.028 -0.609,-0.797 -0.937,-1.336 -0.84,-1.429 z m 1.453,0.835 c -0.777,-0.66 -1.336,-1.015 -1.504,-0.925 l -0.003,0 -0.016,0.015 c -0.145,0.137 0.184,0.723 0.828,1.567 0.629,0.82 1.559,1.894 2.637,3.035 l 0.011,0.012 c 1.083,1.136 2.11,2.121 2.899,2.793 0.809,0.687 1.379,1.046 1.519,0.91 0.145,-0.133 -0.183,-0.723 -0.828,-1.567 -0.629,-0.82 -1.558,-1.898 -2.636,-3.035 l -0.008,-0.008 c -1.082,-1.136 -2.11,-2.125 -2.899,-2.797 z"
         style="fill:#c0806e;fill-opacity:1;fill-rule:evenodd;stroke:none"
         id="path3976"
         inkscape:connector-curvature="0" />
      <path
         d="m 116.668,842.109 c 0.164,-0.157 0.988,0.398 2.184,1.418 1.218,1.035 2.808,2.558 4.48,4.32 1.676,1.762 3.113,3.43 4.086,4.699 0.957,1.246 1.465,2.098 1.301,2.254 -0.164,0.156 -0.989,-0.394 -2.184,-1.414 -1.219,-1.039 -2.808,-2.563 -4.48,-4.32 l 0,-0.004 c -1.672,-1.762 -3.114,-3.426 -4.086,-4.699 -0.957,-1.247 -1.465,-2.098 -1.301,-2.254 z m 2.254,1.339 c -1.242,-1.058 -2.113,-1.613 -2.324,-1.414 -0.211,0.2 0.3,1.098 1.289,2.391 0.976,1.273 2.418,2.945 4.093,4.707 l 0,0.004 c 1.676,1.762 3.266,3.289 4.489,4.328 1.238,1.055 2.113,1.609 2.32,1.41 0.211,-0.199 -0.301,-1.097 -1.289,-2.39 -0.977,-1.274 -2.418,-2.942 -4.09,-4.707 l -0.004,0 c -1.672,-1.766 -3.265,-3.289 -4.484,-4.329 z m 4.41,4.399 z"
         style="fill:#c0806e;fill-opacity:1;fill-rule:evenodd;stroke:none"
         id="path3978"
         inkscape:connector-curvature="0" />
      <path
         d="m 90.801,816.468 c 0.164,-0.156 0.988,0.398 2.183,1.418 1.219,1.039 2.809,2.559 4.481,4.32 l 0.004,0.004 c 1.672,1.762 3.109,3.426 4.082,4.696 0.957,1.25 1.465,2.097 1.301,2.253 -0.164,0.157 -0.989,-0.394 -2.184,-1.414 -1.219,-1.039 -2.809,-2.562 -4.48,-4.32 l 0,-0.004 c -1.672,-1.762 -3.114,-3.426 -4.086,-4.695 -0.957,-1.25 -1.465,-2.102 -1.301,-2.258 z m 2.25,1.34 c -1.239,-1.059 -2.113,-1.613 -2.321,-1.414 -0.21,0.199 0.301,1.097 1.29,2.394 0.976,1.274 2.418,2.942 4.093,4.703 l 0,0.004 c 1.676,1.762 3.266,3.289 4.485,4.328 1.242,1.055 2.113,1.61 2.324,1.411 0.207,-0.2 -0.301,-1.098 -1.289,-2.391 -0.977,-1.27 -2.414,-2.937 -4.09,-4.703 l -0.004,-0.004 c -1.676,-1.762 -3.266,-3.289 -4.488,-4.328 z"
         style="fill:#c0806e;fill-opacity:1;fill-rule:evenodd;stroke:none"
         id="path3980"
         inkscape:connector-curvature="0" />
      <path
         d="m 115.066,840.425 c 0.246,-0.23 1.43,0.559 3.153,2.023 1.738,1.485 4.011,3.661 6.402,6.176 l 0.004,0.004 c 2.387,2.516 4.441,4.895 5.832,6.711 1.375,1.793 2.102,3.016 1.855,3.25 -0.246,0.231 -1.429,-0.558 -3.152,-2.023 -1.738,-1.485 -4.012,-3.66 -6.398,-6.176 -2.391,-2.516 -4.446,-4.899 -5.836,-6.715 -1.375,-1.793 -2.102,-3.019 -1.86,-3.25 z m 3.219,1.945 c -1.765,-1.504 -3,-2.293 -3.289,-2.019 -0.289,0.273 0.438,1.551 1.848,3.387 1.39,1.82 3.449,4.203 5.84,6.722 2.394,2.52 4.668,4.699 6.41,6.184 1.765,1.504 3,2.293 3.289,2.019 0.289,-0.273 -0.438,-1.55 -1.844,-3.386 -1.394,-1.817 -3.449,-4.2 -5.84,-6.719 l -0.004,-0.004 c -2.394,-2.52 -4.668,-4.699 -6.41,-6.184 z"
         style="fill:#c0806e;fill-opacity:1;fill-rule:evenodd;stroke:none"
         id="path3982"
         inkscape:connector-curvature="0" />
      <path
         d="m 89.199,814.784 c 0.246,-0.23 1.43,0.559 3.153,2.024 1.738,1.484 4.011,3.66 6.402,6.176 l 0,0.004 c 2.391,2.515 4.445,4.894 5.836,6.71 1.371,1.793 2.101,3.02 1.855,3.25 -0.246,0.235 -1.429,-0.558 -3.152,-2.023 -1.738,-1.484 -4.012,-3.656 -6.402,-6.176 -2.391,-2.515 -4.446,-4.898 -5.836,-6.711 -1.371,-1.797 -2.102,-3.019 -1.856,-3.254 z m 3.219,1.946 c -1.766,-1.5 -3,-2.293 -3.289,-2.02 -0.289,0.278 0.437,1.551 1.848,3.391 1.39,1.816 3.449,4.199 5.839,6.719 2.395,2.519 4.668,4.699 6.411,6.183 1.765,1.504 3,2.297 3.289,2.02 0.289,-0.274 -0.438,-1.547 -1.848,-3.387 -1.391,-1.816 -3.449,-4.199 -5.84,-6.719 l 0,-0.004 c -2.394,-2.519 -4.668,-4.699 -6.41,-6.183 z"
         style="fill:#c0806e;fill-opacity:1;fill-rule:evenodd;stroke:none"
         id="path3984"
         inkscape:connector-curvature="0" />
      <path
         d="m 129.293,869.437 c -1.547,2.898 -7.031,1.519 -10.082,-0.406 -3.051,-1.93 -4.926,-5.2 -5.629,-8.692 1.051,3.137 2.828,5.859 5.668,7.656 2.84,1.793 8.172,3.606 10.043,1.442 z"
         style="fill:#d9d9da;fill-opacity:1;fill-rule:evenodd;stroke:none"
         id="path3986"
         inkscape:connector-curvature="0" />
      <path
         d="m 75.137,807.878 c 24.011,4.238 48.023,3.899 72.035,0 l 0,-11.793 c -24.012,2.547 -48.024,2.336 -72.035,0 l 0,11.793 z"
         style="fill:#ffde7e;fill-opacity:1;fill-rule:evenodd;stroke:none"
         id="path3988"
         inkscape:connector-curvature="0" />
      <path
         d="m 75.062,808.316 c 24.059,4.246 48.122,3.906 72.18,0 l 0.371,-0.063 0,-12.656 -0.488,0.051 c -23.98,2.543 -47.965,2.332 -71.945,0 l -0.485,-0.047 0,12.648 0.367,0.067 z m 71.665,-0.813 c -23.715,3.813 -47.43,4.145 -71.145,0.004 l 0,-10.934 c 23.715,2.278 47.43,2.481 71.145,0.004 l 0,10.926 z"
         style="fill:#151616;fill-opacity:1;fill-rule:evenodd;stroke:none"
         id="path3990"
         inkscape:connector-curvature="0" />
      <path
         d="m 147.172,796.085 0,5.899 c 5.894,-5.899 7.859,0 11.793,0 -1.965,-1.965 -3.297,-5.27 -5.899,-5.899 1.754,-3.867 3.934,-3.929 5.899,-5.894 -3.934,0 -5.188,-5.211 -11.793,0 l -4.086,3.566 4.086,2.328 z"
         style="fill:#ffd043;fill-opacity:1;fill-rule:evenodd;stroke:none"
         id="path3992"
         inkscape:connector-curvature="0" />
      <path
         d="m 146.727,796.343 0,5.641 c 0,0.242 0.199,0.441 0.445,0.441 0.121,0 0.23,-0.047 0.312,-0.129 3.688,-3.687 5.723,-2.465 7.758,-1.246 1.145,0.688 2.293,1.375 3.723,1.375 0.242,0 0.441,-0.199 0.441,-0.441 0,-0.125 -0.051,-0.235 -0.129,-0.313 -0.632,-0.637 -1.207,-1.422 -1.781,-2.211 -1.101,-1.515 -2.203,-3.031 -3.808,-3.644 1.066,-2.114 2.285,-2.914 3.507,-3.711 0.696,-0.457 1.395,-0.918 2.082,-1.602 0.172,-0.172 0.172,-0.453 0,-0.625 -0.086,-0.09 -0.199,-0.133 -0.312,-0.133 -1.195,0 -2.156,-0.547 -3.117,-1.097 -2.157,-1.231 -4.313,-2.465 -8.95,1.195 l 0.274,0.348 -0.277,-0.348 c -0.016,0.012 -0.028,0.023 -0.043,0.039 l -4.059,3.543 c -0.184,0.16 -0.203,0.441 -0.043,0.625 0.043,0.047 0.09,0.082 0.145,0.109 l 3.832,2.184 z m 0.886,4.613 0,-4.871 c 0,-0.152 -0.082,-0.301 -0.222,-0.383 l -0.219,0.383 0.215,-0.383 -3.543,-2.019 3.59,-3.137 0.011,-0.008 c 4.168,-3.289 6.067,-2.207 7.961,-1.121 0.789,0.449 1.578,0.899 2.512,1.102 -0.398,0.312 -0.805,0.578 -1.207,0.844 -1.406,0.918 -2.813,1.839 -4.035,4.511 -0.016,0.035 -0.031,0.071 -0.039,0.11 -0.059,0.238 0.09,0.476 0.328,0.535 l 0,-0.004 c 1.574,0.379 2.695,1.922 3.816,3.465 0.34,0.465 0.68,0.933 1.035,1.375 -0.738,-0.231 -1.429,-0.649 -2.121,-1.063 -2.187,-1.312 -4.375,-2.625 -8.082,0.664 z"
         style="fill:#151616;fill-opacity:1;fill-rule:evenodd;stroke:none"
         id="path3994"
         inkscape:connector-curvature="0" />
      <path
         d="m 147.172,796.085 -4.086,-2.328 0,2.734 c 1.359,-0.125 2.723,-0.261 4.086,-0.406 z"
         style="fill:#fabb00;fill-opacity:1;fill-rule:evenodd;stroke:none"
         id="path3996"
         inkscape:connector-curvature="0" />
      <path
         d="m 147.363,795.687 -4.058,-2.313 c -0.211,-0.121 -0.485,-0.047 -0.606,0.164 -0.039,0.071 -0.058,0.145 -0.058,0.219 l 0,2.734 c 0,0.247 0.199,0.446 0.445,0.446 0.027,0 0.055,-0.004 0.078,-0.008 0.703,-0.066 1.371,-0.129 2.008,-0.191 0.715,-0.075 1.402,-0.145 2.047,-0.211 0.242,-0.028 0.418,-0.243 0.39,-0.489 -0.015,-0.156 -0.113,-0.289 -0.246,-0.351 z m -3.836,-1.168 2.231,1.269 -0.672,0.067 c -0.539,0.054 -1.059,0.105 -1.559,0.152 l 0,-1.488 z"
         style="fill:#151616;fill-opacity:1;fill-rule:evenodd;stroke:none"
         id="path3998"
         inkscape:connector-curvature="0" />
      <path
         d="m 86.102,807.355 c 0.054,-0.227 0.05,-0.446 -0.016,-0.66 -0.066,-0.219 -0.172,-0.411 -0.316,-0.582 -0.141,-0.172 -0.317,-0.325 -0.52,-0.45 -0.207,-0.125 -0.418,-0.215 -0.637,-0.269 -0.258,-0.063 -0.547,-0.071 -0.871,-0.02 -0.324,0.055 -0.66,0.114 -1.015,0.184 -0.352,0.07 -0.715,0.125 -1.09,0.164 -0.375,0.039 -0.735,0.016 -1.086,-0.074 -0.203,-0.051 -0.403,-0.153 -0.594,-0.309 -0.195,-0.156 -0.352,-0.371 -0.477,-0.641 -0.121,-0.269 -0.195,-0.605 -0.218,-1.003 -0.028,-0.403 0.031,-0.875 0.168,-1.418 0.101,-0.414 0.308,-0.75 0.621,-1.004 0.312,-0.25 0.668,-0.438 1.07,-0.559 0.402,-0.117 0.824,-0.18 1.262,-0.18 0.441,-0.003 0.84,0.039 1.199,0.129 0.156,0.039 0.352,0.098 0.59,0.172 0.238,0.078 0.484,0.168 0.738,0.278 0.254,0.109 0.504,0.238 0.75,0.378 0.246,0.145 0.461,0.305 0.645,0.481 0.183,0.172 0.324,0.359 0.414,0.562 0.09,0.2 0.109,0.414 0.051,0.641 -0.063,0.25 -0.196,0.441 -0.407,0.582 -0.207,0.137 -0.441,0.176 -0.699,0.109 -0.336,-0.082 -0.641,-0.21 -0.914,-0.382 -0.277,-0.172 -0.547,-0.356 -0.809,-0.551 -0.261,-0.192 -0.531,-0.375 -0.8,-0.547 -0.274,-0.172 -0.575,-0.297 -0.899,-0.379 -0.226,-0.055 -0.445,-0.07 -0.656,-0.039 -0.211,0.031 -0.398,0.098 -0.566,0.199 -0.168,0.106 -0.309,0.242 -0.43,0.41 -0.121,0.168 -0.211,0.364 -0.266,0.579 -0.039,0.164 -0.051,0.332 -0.035,0.496 0.016,0.164 0.059,0.32 0.129,0.461 0.066,0.14 0.16,0.265 0.277,0.375 0.121,0.105 0.266,0.183 0.438,0.226 0.238,0.059 0.484,0.055 0.734,-0.016 0.25,-0.07 0.438,-0.218 0.559,-0.445 l -0.129,-0.183 c -0.109,0.14 -0.258,0.261 -0.445,0.363 -0.188,0.101 -0.407,0.121 -0.664,0.058 -0.243,-0.101 -0.395,-0.226 -0.461,-0.375 -0.067,-0.152 -0.082,-0.293 -0.051,-0.425 0.062,-0.243 0.183,-0.414 0.363,-0.524 0.18,-0.109 0.371,-0.136 0.574,-0.086 0.141,0.035 0.321,0.133 0.547,0.293 0.227,0.157 0.477,0.336 0.754,0.535 0.281,0.196 0.578,0.387 0.895,0.571 0.32,0.183 0.64,0.312 0.961,0.394 0.234,0.059 0.46,0.082 0.687,0.071 0.227,-0.008 0.438,-0.071 0.633,-0.184 0.191,-0.113 0.367,-0.285 0.519,-0.523 0.157,-0.235 0.282,-0.551 0.379,-0.946 0.141,-0.562 0.164,-1.058 0.074,-1.492 -0.089,-0.434 -0.269,-0.812 -0.535,-1.133 -0.269,-0.324 -0.605,-0.597 -1.015,-0.812 -0.41,-0.219 -0.864,-0.391 -1.364,-0.516 -1.367,-0.34 -2.453,-0.258 -3.261,0.25 -0.809,0.508 -1.383,1.438 -1.723,2.793 -0.113,0.453 -0.164,0.926 -0.16,1.422 0.004,0.492 0.086,0.961 0.246,1.402 0.16,0.442 0.398,0.832 0.723,1.168 0.32,0.336 0.742,0.571 1.265,0.699 0.188,0.047 0.414,0.067 0.684,0.055 0.266,-0.012 0.547,-0.039 0.836,-0.078 0.293,-0.039 0.59,-0.09 0.89,-0.152 0.301,-0.059 0.575,-0.117 0.825,-0.164 0.25,-0.051 0.465,-0.094 0.652,-0.125 0.187,-0.032 0.309,-0.039 0.371,-0.024 0.133,0.031 0.242,0.102 0.32,0.207 0.082,0.11 0.11,0.305 0.079,0.586 l 0.207,-0.023 z m 1.109,-3.211 c 0.152,0.191 0.305,0.426 0.457,0.703 0.148,0.281 0.301,0.527 0.449,0.742 0.258,-0.062 0.477,-0.18 0.656,-0.355 0.184,-0.176 0.336,-0.375 0.457,-0.602 0.18,0.223 0.348,0.449 0.5,0.691 0.157,0.239 0.332,0.461 0.532,0.668 0.426,-0.234 0.754,-0.546 0.988,-0.941 0.145,0.231 0.305,0.449 0.48,0.66 0.176,0.211 0.348,0.426 0.512,0.641 0.203,-0.117 0.387,-0.25 0.559,-0.395 0.176,-0.144 0.363,-0.273 0.57,-0.383 -0.039,-0.097 -0.086,-0.187 -0.141,-0.269 -0.054,-0.086 -0.082,-0.184 -0.078,-0.297 0.016,-0.176 0.039,-0.355 0.071,-0.531 0.031,-0.18 0.062,-0.356 0.093,-0.528 0.012,-0.066 0.028,-0.167 0.047,-0.304 0.02,-0.141 0.047,-0.301 0.086,-0.481 0.035,-0.183 0.074,-0.367 0.121,-0.554 0.047,-0.188 0.098,-0.36 0.153,-0.512 0.054,-0.152 0.117,-0.277 0.179,-0.371 0.067,-0.098 0.137,-0.137 0.207,-0.125 0.063,0.012 0.125,0.047 0.192,0.101 0.062,0.055 0.121,0.106 0.179,0.149 l 0.18,-0.188 c -0.062,-0.109 -0.133,-0.215 -0.219,-0.316 -0.086,-0.098 -0.171,-0.195 -0.265,-0.289 -0.094,-0.094 -0.188,-0.192 -0.274,-0.289 -0.09,-0.098 -0.168,-0.199 -0.226,-0.309 -0.215,0.086 -0.418,0.188 -0.617,0.301 -0.2,0.117 -0.34,0.293 -0.414,0.535 -0.157,0.527 -0.293,1.07 -0.403,1.629 -0.113,0.559 -0.215,1.113 -0.312,1.66 -0.016,0.094 -0.051,0.196 -0.102,0.301 -0.051,0.102 -0.109,0.195 -0.172,0.273 -0.152,-0.148 -0.258,-0.285 -0.32,-0.406 -0.059,-0.121 -0.09,-0.238 -0.094,-0.359 -0.004,-0.117 0.012,-0.246 0.051,-0.387 0.035,-0.141 0.07,-0.309 0.105,-0.508 0.059,-0.332 0.125,-0.66 0.192,-0.976 0.07,-0.321 0.14,-0.645 0.215,-0.973 0.043,-0.164 0.097,-0.273 0.156,-0.332 0.059,-0.059 0.152,-0.129 0.281,-0.203 -0.18,-0.145 -0.328,-0.293 -0.441,-0.445 -0.117,-0.153 -0.242,-0.317 -0.371,-0.493 -0.149,0.137 -0.305,0.25 -0.473,0.344 -0.168,0.094 -0.34,0.18 -0.519,0.266 0.05,0.09 0.097,0.179 0.136,0.273 0.039,0.094 0.051,0.196 0.031,0.305 -0.089,0.523 -0.191,1.043 -0.304,1.555 -0.11,0.515 -0.211,1.035 -0.305,1.558 -0.016,0.086 -0.058,0.16 -0.129,0.223 -0.074,0.058 -0.137,0.117 -0.187,0.176 -0.09,-0.09 -0.176,-0.2 -0.254,-0.325 -0.082,-0.121 -0.117,-0.254 -0.11,-0.39 0.02,-0.199 0.047,-0.422 0.086,-0.664 0.039,-0.242 0.082,-0.489 0.125,-0.739 0.043,-0.25 0.09,-0.496 0.133,-0.742 0.043,-0.242 0.082,-0.465 0.117,-0.664 0.032,-0.18 0.078,-0.308 0.141,-0.379 0.059,-0.07 0.144,-0.148 0.25,-0.238 -0.141,-0.137 -0.277,-0.277 -0.41,-0.418 -0.137,-0.145 -0.25,-0.305 -0.352,-0.484 -0.133,0.121 -0.293,0.238 -0.476,0.343 -0.18,0.106 -0.36,0.192 -0.535,0.258 0.031,0.063 0.062,0.117 0.101,0.16 0.035,0.043 0.07,0.094 0.098,0.145 0.027,0.055 0.043,0.121 0.051,0.199 0.003,0.078 -0.004,0.188 -0.028,0.32 -0.015,0.079 -0.035,0.207 -0.062,0.383 -0.024,0.172 -0.059,0.371 -0.102,0.594 -0.043,0.219 -0.09,0.449 -0.137,0.691 -0.046,0.239 -0.097,0.461 -0.152,0.664 -0.059,0.204 -0.113,0.375 -0.172,0.516 -0.054,0.141 -0.113,0.227 -0.168,0.258 -0.035,0.008 -0.07,0.012 -0.109,0.004 -0.07,-0.012 -0.137,-0.047 -0.192,-0.106 -0.054,-0.058 -0.101,-0.117 -0.14,-0.172 l -0.172,0.153 z m 12.109,-2.332 c -0.148,-0.242 -0.343,-0.473 -0.578,-0.688 -0.238,-0.215 -0.449,-0.433 -0.633,-0.648 -0.207,0.109 -0.386,0.258 -0.531,0.437 -0.148,0.18 -0.289,0.364 -0.426,0.551 -0.152,-0.207 -0.308,-0.406 -0.468,-0.598 -0.157,-0.195 -0.317,-0.394 -0.477,-0.601 -0.465,0.195 -0.789,0.48 -0.977,0.851 -0.187,0.375 -0.308,0.793 -0.363,1.254 -0.051,0.383 -0.07,0.711 -0.066,0.977 0.004,0.269 0.031,0.504 0.082,0.711 0.051,0.203 0.129,0.387 0.222,0.547 0.098,0.164 0.219,0.328 0.356,0.492 0.137,0.168 0.293,0.348 0.469,0.539 0.172,0.191 0.367,0.422 0.574,0.691 0.512,-0.214 1.027,-0.39 1.547,-0.527 -0.012,-0.211 -0.035,-0.426 -0.059,-0.641 -0.027,-0.211 -0.027,-0.425 0,-0.644 0.008,-0.07 0.02,-0.192 0.035,-0.359 0.02,-0.168 0.039,-0.36 0.067,-0.575 0.027,-0.215 0.058,-0.437 0.101,-0.668 0.039,-0.23 0.086,-0.441 0.137,-0.632 0.051,-0.192 0.109,-0.344 0.18,-0.461 0.066,-0.122 0.144,-0.172 0.23,-0.161 0.098,0.012 0.18,0.051 0.254,0.122 0.07,0.07 0.137,0.14 0.192,0.21 l 0.132,-0.179 z m -3.312,2.121 c 0.043,-0.344 0.09,-0.684 0.14,-1.02 0.047,-0.34 0.094,-0.679 0.137,-1.023 0.016,-0.125 0.07,-0.234 0.16,-0.32 0.09,-0.086 0.184,-0.168 0.274,-0.247 0.082,0.067 0.148,0.141 0.199,0.219 0.051,0.078 0.113,0.153 0.184,0.219 -0.055,0.258 -0.102,0.52 -0.133,0.785 -0.039,0.328 -0.071,0.652 -0.09,0.977 -0.02,0.328 -0.051,0.656 -0.09,0.992 -0.012,0.086 -0.019,0.168 -0.031,0.246 -0.008,0.074 -0.024,0.156 -0.043,0.242 -0.086,0.047 -0.188,0.113 -0.309,0.199 -0.121,0.086 -0.226,0.125 -0.324,0.114 -0.062,-0.008 -0.102,-0.075 -0.121,-0.2 -0.016,-0.121 -0.023,-0.261 -0.02,-0.421 0.004,-0.157 0.012,-0.309 0.032,-0.457 0.019,-0.149 0.031,-0.25 0.035,-0.305 z m 5.992,-2.07 c -0.195,-0.247 -0.418,-0.493 -0.668,-0.743 -0.254,-0.246 -0.492,-0.48 -0.719,-0.707 -0.172,0.172 -0.351,0.328 -0.539,0.469 -0.187,0.141 -0.383,0.274 -0.586,0.395 0.078,0.168 0.133,0.32 0.164,0.457 0.028,0.14 0.047,0.281 0.055,0.422 0.004,0.14 0.004,0.285 -0.008,0.429 -0.008,0.145 -0.019,0.305 -0.031,0.481 -0.074,1.058 -0.16,2.113 -0.258,3.16 -0.012,0.168 -0.027,0.328 -0.047,0.472 -0.019,0.149 -0.051,0.29 -0.093,0.422 -0.047,0.137 -0.11,0.266 -0.184,0.387 -0.078,0.125 -0.184,0.246 -0.313,0.367 0.004,0.063 0.024,0.117 0.063,0.16 0.039,0.043 0.059,0.098 0.062,0.161 0.231,-0.223 0.426,-0.489 0.586,-0.793 0.078,0.129 0.172,0.254 0.274,0.382 0.105,0.129 0.219,0.243 0.34,0.344 0.121,0.102 0.254,0.188 0.394,0.258 0.141,0.07 0.289,0.109 0.449,0.121 0.114,0.008 0.231,-0.004 0.352,-0.035 l 0.004,-0.231 c -0.039,0.008 -0.094,0.008 -0.168,0 -0.223,-0.015 -0.379,-0.125 -0.461,-0.332 -0.082,-0.207 -0.125,-0.449 -0.129,-0.722 -0.004,-0.274 0.008,-0.551 0.047,-0.824 0.035,-0.278 0.055,-0.489 0.066,-0.641 0.008,-0.106 0.02,-0.27 0.036,-0.488 0.015,-0.219 0.031,-0.469 0.05,-0.739 0.02,-0.273 0.039,-0.558 0.063,-0.859 0.019,-0.301 0.047,-0.586 0.074,-0.848 0.031,-0.265 0.063,-0.492 0.098,-0.687 0.035,-0.195 0.07,-0.324 0.105,-0.387 0.07,-0.058 0.145,-0.086 0.223,-0.082 0.113,0.008 0.219,0.063 0.316,0.16 0.098,0.102 0.184,0.188 0.258,0.254 L 102,801.863 z m 2.652,0.027 c -0.199,-0.238 -0.429,-0.481 -0.691,-0.719 -0.262,-0.238 -0.508,-0.465 -0.742,-0.68 -0.168,0.176 -0.34,0.34 -0.524,0.489 -0.183,0.144 -0.371,0.281 -0.57,0.414 0.082,0.164 0.145,0.312 0.18,0.449 0.035,0.141 0.058,0.281 0.066,0.422 0.012,0.141 0.016,0.281 0.012,0.426 -0.004,0.144 -0.012,0.304 -0.016,0.484 -0.039,1.059 -0.09,2.113 -0.148,3.168 -0.008,0.168 -0.016,0.324 -0.028,0.473 -0.015,0.148 -0.043,0.289 -0.082,0.425 -0.043,0.137 -0.097,0.266 -0.171,0.391 -0.071,0.129 -0.172,0.254 -0.297,0.379 0.007,0.062 0.027,0.117 0.066,0.156 0.039,0.043 0.063,0.098 0.066,0.16 0.227,-0.234 0.415,-0.504 0.563,-0.812 0.082,0.125 0.18,0.246 0.285,0.371 0.109,0.125 0.227,0.234 0.352,0.332 0.125,0.098 0.257,0.18 0.402,0.246 0.141,0.063 0.293,0.098 0.453,0.106 0.113,0.003 0.231,-0.012 0.352,-0.051 l -0.004,-0.227 c -0.039,0.004 -0.098,0.008 -0.168,0.004 -0.227,-0.008 -0.383,-0.113 -0.473,-0.316 -0.09,-0.203 -0.14,-0.442 -0.156,-0.719 -0.012,-0.273 -0.008,-0.547 0.019,-0.824 0.024,-0.278 0.04,-0.492 0.047,-0.645 0,-0.101 0.008,-0.265 0.016,-0.488 0.008,-0.219 0.016,-0.465 0.027,-0.738 0.008,-0.274 0.02,-0.563 0.028,-0.864 0.011,-0.3 0.027,-0.582 0.05,-0.847 0.02,-0.266 0.043,-0.496 0.071,-0.692 0.027,-0.195 0.058,-0.324 0.093,-0.39 0.067,-0.059 0.137,-0.09 0.219,-0.086 0.113,0.004 0.219,0.051 0.321,0.148 0.101,0.098 0.191,0.176 0.269,0.246 l 0.113,-0.191 z m 12.125,-0.129 c -0.089,-0.113 -0.215,-0.242 -0.379,-0.391 -0.164,-0.152 -0.332,-0.304 -0.503,-0.457 -0.172,-0.152 -0.329,-0.293 -0.477,-0.418 -0.148,-0.129 -0.246,-0.218 -0.293,-0.273 -0.27,0.18 -0.484,0.422 -0.645,0.723 -0.16,0.3 -0.285,0.621 -0.371,0.964 -0.086,0.344 -0.14,0.692 -0.16,1.047 -0.023,0.352 -0.031,0.684 -0.027,0.989 0.008,0.273 0.035,0.488 0.09,0.648 0.054,0.16 0.14,0.289 0.25,0.387 0.109,0.101 0.242,0.179 0.402,0.234 0.156,0.059 0.34,0.121 0.551,0.192 -0.16,0.121 -0.274,0.269 -0.348,0.445 -0.074,0.176 -0.125,0.355 -0.16,0.539 -0.031,0.187 -0.055,0.375 -0.066,0.562 -0.016,0.188 -0.036,0.356 -0.067,0.5 -0.027,0.145 -0.078,0.266 -0.148,0.36 -0.071,0.094 -0.18,0.14 -0.324,0.144 -0.09,0 -0.168,-0.023 -0.243,-0.074 -0.074,-0.051 -0.14,-0.121 -0.195,-0.207 -0.059,-0.09 -0.105,-0.187 -0.141,-0.293 -0.031,-0.109 -0.05,-0.215 -0.05,-0.32 -0.008,-0.305 0.023,-0.617 0.086,-0.942 0.062,-0.32 0.089,-0.648 0.086,-0.976 -0.02,-0.934 -0.211,-1.781 -0.583,-2.539 -0.371,-0.762 -0.874,-1.477 -1.515,-2.141 -0.055,0.074 -0.121,0.149 -0.199,0.227 -0.082,0.078 -0.16,0.152 -0.246,0.215 -0.082,0.066 -0.164,0.121 -0.243,0.164 -0.082,0.039 -0.148,0.062 -0.203,0.062 -0.058,0 -0.117,-0.027 -0.176,-0.082 -0.062,-0.055 -0.117,-0.117 -0.168,-0.191 -0.05,-0.071 -0.093,-0.141 -0.128,-0.211 -0.039,-0.075 -0.067,-0.121 -0.082,-0.145 l -0.157,0.11 c 0.117,0.281 0.282,0.566 0.485,0.855 0.207,0.289 0.386,0.555 0.535,0.793 0.277,-0.102 0.512,-0.219 0.699,-0.352 0.188,-0.132 0.332,-0.277 0.445,-0.441 0.09,0.223 0.172,0.563 0.239,1.02 0.07,0.457 0.109,0.96 0.117,1.507 0.008,0.426 -0.012,0.871 -0.063,1.336 -0.047,0.469 -0.125,0.895 -0.23,1.285 -0.106,0.387 -0.242,0.707 -0.414,0.965 -0.176,0.258 -0.379,0.387 -0.621,0.391 -0.082,0 -0.149,-0.035 -0.207,-0.106 -0.059,-0.07 -0.09,-0.183 -0.09,-0.335 -0.004,-0.106 0.023,-0.243 0.078,-0.411 0.051,-0.172 0.109,-0.367 0.176,-0.589 0.062,-0.223 0.121,-0.473 0.172,-0.754 0.05,-0.286 0.074,-0.59 0.07,-0.918 -0.008,-0.418 -0.063,-0.821 -0.16,-1.211 -0.102,-0.387 -0.231,-0.766 -0.395,-1.133 -0.164,-0.367 -0.351,-0.719 -0.566,-1.055 -0.215,-0.34 -0.445,-0.668 -0.692,-0.984 -0.078,0.082 -0.168,0.168 -0.261,0.258 -0.094,0.089 -0.196,0.175 -0.297,0.254 -0.106,0.078 -0.203,0.14 -0.297,0.191 -0.098,0.051 -0.184,0.074 -0.266,0.078 -0.054,0 -0.113,-0.027 -0.172,-0.078 -0.054,-0.051 -0.109,-0.113 -0.156,-0.184 -0.051,-0.07 -0.097,-0.14 -0.144,-0.214 -0.047,-0.071 -0.082,-0.129 -0.106,-0.18 l -0.152,0.148 c 0.023,0.074 0.09,0.192 0.199,0.352 0.106,0.164 0.223,0.332 0.352,0.5 0.125,0.172 0.246,0.328 0.363,0.472 0.113,0.141 0.191,0.239 0.234,0.286 0.231,-0.094 0.442,-0.207 0.633,-0.336 0.192,-0.133 0.383,-0.282 0.582,-0.446 0.094,0.153 0.145,0.297 0.164,0.438 0.02,0.141 0.031,0.285 0.031,0.437 0.004,0.153 -0.007,0.391 -0.039,0.715 -0.031,0.321 -0.078,0.68 -0.144,1.078 -0.067,0.403 -0.149,0.809 -0.25,1.231 -0.102,0.418 -0.223,0.805 -0.359,1.156 -0.141,0.352 -0.293,0.641 -0.461,0.863 -0.168,0.227 -0.36,0.34 -0.567,0.344 -0.187,0.004 -0.32,-0.051 -0.406,-0.156 -0.086,-0.106 -0.133,-0.258 -0.137,-0.449 -0.004,-0.184 0.043,-0.379 0.137,-0.582 0.09,-0.204 0.211,-0.407 0.355,-0.614 0.145,-0.207 0.301,-0.414 0.473,-0.613 0.168,-0.199 0.324,-0.391 0.473,-0.566 0.144,-0.18 0.265,-0.344 0.359,-0.493 0.094,-0.144 0.137,-0.265 0.137,-0.363 -0.008,-0.336 -0.125,-0.617 -0.36,-0.844 -0.23,-0.222 -0.515,-0.332 -0.855,-0.328 -0.231,0.004 -0.441,0.078 -0.621,0.223 -0.184,0.144 -0.274,0.344 -0.27,0.602 0.004,0.07 0.039,0.179 0.11,0.316 0.07,0.141 0.172,0.238 0.3,0.293 l 0.18,-0.149 c -0.097,-0.039 -0.172,-0.097 -0.223,-0.179 -0.046,-0.078 -0.074,-0.168 -0.074,-0.262 -0.004,-0.129 0.032,-0.246 0.102,-0.352 0.07,-0.105 0.172,-0.16 0.308,-0.164 0.114,0 0.215,0.028 0.309,0.086 0.094,0.059 0.145,0.153 0.145,0.282 0.003,0.191 -0.075,0.363 -0.231,0.511 -0.16,0.145 -0.336,0.317 -0.527,0.516 -0.196,0.195 -0.371,0.43 -0.528,0.707 -0.152,0.277 -0.226,0.637 -0.218,1.078 0.007,0.609 0.164,1.098 0.464,1.461 0.297,0.363 0.77,0.543 1.415,0.531 0.265,-0.004 0.515,-0.058 0.753,-0.16 0.243,-0.098 0.454,-0.246 0.633,-0.445 0.164,0.23 0.328,0.406 0.485,0.531 0.16,0.121 0.39,0.18 0.699,0.172 0.32,-0.004 0.621,-0.09 0.898,-0.262 0.278,-0.168 0.493,-0.39 0.641,-0.668 0.051,0.153 0.121,0.278 0.215,0.383 0.094,0.102 0.207,0.184 0.332,0.246 0.125,0.063 0.258,0.11 0.398,0.137 0.141,0.031 0.285,0.043 0.43,0.043 0.328,-0.008 0.59,-0.051 0.789,-0.137 0.195,-0.082 0.344,-0.191 0.445,-0.332 0.102,-0.137 0.168,-0.297 0.203,-0.48 0.032,-0.18 0.055,-0.368 0.075,-0.563 0.015,-0.191 0.035,-0.387 0.054,-0.582 0.02,-0.199 0.067,-0.383 0.137,-0.555 l 0.422,0.008 0.008,-0.254 c -0.235,-0.011 -0.473,-0.043 -0.719,-0.097 -0.246,-0.051 -0.484,-0.106 -0.711,-0.168 -0.062,-0.024 -0.113,-0.114 -0.152,-0.274 -0.039,-0.16 -0.063,-0.355 -0.067,-0.59 -0.004,-0.257 0.012,-0.543 0.051,-0.855 0.039,-0.316 0.098,-0.613 0.172,-0.891 0.074,-0.277 0.172,-0.515 0.285,-0.703 0.113,-0.191 0.242,-0.289 0.387,-0.293 0.109,0 0.222,0.043 0.332,0.133 0.109,0.094 0.191,0.188 0.242,0.293 l 0.113,-0.207 z m 3.657,0.117 c -0.118,-0.125 -0.278,-0.265 -0.481,-0.422 -0.199,-0.16 -0.406,-0.316 -0.617,-0.468 -0.207,-0.157 -0.406,-0.29 -0.594,-0.411 -0.187,-0.117 -0.32,-0.199 -0.406,-0.242 -0.223,0.172 -0.402,0.371 -0.539,0.602 -0.137,0.226 -0.242,0.469 -0.32,0.726 -0.075,0.258 -0.122,0.524 -0.137,0.797 -0.02,0.278 -0.02,0.547 -0.008,0.813 0.012,0.175 0.023,0.363 0.043,0.562 0.02,0.199 0.051,0.399 0.102,0.594 0.05,0.195 0.121,0.375 0.211,0.543 0.089,0.168 0.214,0.309 0.371,0.422 0.226,0.156 0.449,0.32 0.668,0.484 0.214,0.164 0.457,0.301 0.718,0.41 0.203,-0.277 0.395,-0.562 0.575,-0.851 0.175,-0.293 0.335,-0.594 0.48,-0.906 -0.312,-0.168 -0.633,-0.325 -0.953,-0.465 -0.32,-0.141 -0.637,-0.285 -0.953,-0.438 -0.035,-0.055 -0.055,-0.117 -0.059,-0.191 -0.004,-0.129 0,-0.301 0.012,-0.512 0.012,-0.215 0.043,-0.43 0.094,-0.641 0.047,-0.211 0.125,-0.394 0.23,-0.554 0.102,-0.16 0.242,-0.242 0.422,-0.25 0.094,-0.008 0.191,0.015 0.285,0.062 0.094,0.047 0.188,0.106 0.274,0.172 0.089,0.067 0.175,0.137 0.257,0.203 0.086,0.071 0.164,0.121 0.239,0.156 l 0.086,-0.195 z m -1.032,2.383 c -0.125,0.23 -0.246,0.441 -0.355,0.633 -0.109,0.191 -0.254,0.387 -0.43,0.578 -0.035,-0.27 -0.051,-0.516 -0.043,-0.738 0.008,-0.223 0.004,-0.469 -0.008,-0.743 0,-0.015 0.004,-0.05 0.02,-0.097 0.137,0.058 0.277,0.117 0.414,0.176 0.133,0.062 0.27,0.125 0.402,0.191 z m 3.649,3.449 c -0.028,0.004 -0.078,0.008 -0.16,0.008 -0.079,0.004 -0.161,0 -0.246,-0.008 -0.086,-0.008 -0.165,-0.023 -0.235,-0.047 -0.07,-0.019 -0.109,-0.054 -0.113,-0.101 -0.008,-0.082 0.058,-0.172 0.191,-0.266 0.129,-0.098 0.297,-0.215 0.492,-0.351 0.2,-0.141 0.415,-0.301 0.649,-0.481 0.234,-0.183 0.445,-0.398 0.633,-0.644 0.191,-0.247 0.34,-0.528 0.453,-0.844 0.113,-0.317 0.152,-0.676 0.117,-1.074 -0.055,-0.633 -0.238,-1.219 -0.551,-1.754 -0.312,-0.539 -0.679,-1.035 -1.097,-1.492 -0.118,-0.125 -0.231,-0.254 -0.344,-0.387 -0.113,-0.129 -0.25,-0.231 -0.406,-0.297 -0.274,0.195 -0.547,0.387 -0.821,0.574 -0.277,0.192 -0.566,0.356 -0.879,0.496 0.106,0.192 0.188,0.352 0.243,0.481 0.054,0.129 0.097,0.25 0.125,0.371 0.023,0.117 0.043,0.246 0.058,0.387 0.012,0.14 0.028,0.324 0.047,0.546 0.035,0.407 0.063,0.821 0.082,1.235 0.02,0.41 0.043,0.824 0.074,1.23 0.391,0.071 0.782,0.18 1.164,0.324 -0.117,0.067 -0.254,0.149 -0.414,0.247 -0.16,0.101 -0.312,0.21 -0.457,0.332 -0.14,0.121 -0.258,0.25 -0.351,0.394 -0.094,0.141 -0.133,0.289 -0.117,0.449 0.019,0.227 0.089,0.403 0.21,0.528 0.118,0.125 0.262,0.218 0.434,0.269 0.168,0.055 0.352,0.082 0.547,0.086 0.191,0.004 0.379,-0.004 0.555,-0.019 l 0.179,-0.028 -0.062,-0.164 z m -0.422,-2.187 -0.067,-0.77 c -0.046,-0.527 -0.085,-1.055 -0.109,-1.582 -0.027,-0.527 -0.055,-1.055 -0.086,-1.582 0.102,-0.148 0.223,-0.258 0.371,-0.336 0.145,-0.078 0.289,-0.168 0.426,-0.265 0.207,0.253 0.344,0.539 0.414,0.859 0.067,0.316 0.113,0.629 0.141,0.941 0.023,0.243 0.019,0.493 -0.004,0.758 -0.027,0.262 -0.078,0.52 -0.156,0.77 -0.082,0.25 -0.196,0.476 -0.348,0.683 -0.152,0.207 -0.344,0.371 -0.574,0.496 l -0.008,0.028 z"
         style="fill:#151616;fill-opacity:1;fill-rule:evenodd;stroke:none"
         id="path4000"
         inkscape:connector-curvature="0" />
      <path
         d="m 127.113,807.8 c 0.141,-0.016 0.258,-0.066 0.348,-0.148 0.086,-0.082 0.125,-0.192 0.109,-0.325 -0.004,-0.05 -0.011,-0.093 -0.027,-0.136 -0.012,-0.043 -0.027,-0.086 -0.047,-0.125 -0.164,-0.176 -0.328,-0.356 -0.488,-0.535 -0.16,-0.18 -0.344,-0.336 -0.551,-0.469 0,0.16 -0.004,0.324 -0.008,0.492 -0.008,0.164 -0.004,0.328 0.012,0.488 0.012,0.098 0.027,0.196 0.051,0.293 0.023,0.098 0.058,0.184 0.105,0.254 0.047,0.074 0.113,0.129 0.192,0.168 0.082,0.039 0.183,0.055 0.304,0.043 z m -0.617,-1.937 c 0.152,-0.145 0.305,-0.293 0.449,-0.442 0.149,-0.148 0.297,-0.297 0.453,-0.441 -0.128,-0.125 -0.218,-0.266 -0.277,-0.43 -0.059,-0.164 -0.094,-0.336 -0.113,-0.512 -0.063,-0.605 -0.125,-1.101 -0.188,-1.48 -0.058,-0.383 -0.097,-0.684 -0.113,-0.906 -0.016,-0.219 0,-0.371 0.051,-0.457 0.047,-0.086 0.144,-0.137 0.297,-0.153 0.066,-0.008 0.136,0.008 0.218,0.043 0.079,0.035 0.145,0.071 0.2,0.106 l 0.066,-0.297 c -0.004,-0.008 -0.019,-0.028 -0.051,-0.055 -0.031,-0.031 -0.066,-0.062 -0.105,-0.094 -0.039,-0.031 -0.078,-0.058 -0.117,-0.086 -0.039,-0.023 -0.063,-0.039 -0.075,-0.046 -0.175,-0.133 -0.355,-0.27 -0.543,-0.403 -0.187,-0.133 -0.382,-0.254 -0.578,-0.363 -0.121,0.16 -0.254,0.312 -0.394,0.461 -0.141,0.148 -0.281,0.297 -0.418,0.449 0.16,0.242 0.262,0.508 0.301,0.797 0.039,0.293 0.074,0.578 0.101,0.859 0.004,0.055 0.02,0.153 0.039,0.293 0.016,0.137 0.035,0.293 0.055,0.465 0.016,0.172 0.031,0.356 0.043,0.547 0.012,0.191 0.019,0.367 0.019,0.527 0,0.157 -0.011,0.286 -0.039,0.391 -0.023,0.102 -0.058,0.156 -0.109,0.164 -0.086,0.008 -0.172,-0.016 -0.254,-0.07 -0.082,-0.059 -0.164,-0.098 -0.238,-0.121 l -0.078,0.273 c 0.007,0.024 0.078,0.082 0.211,0.18 0.132,0.094 0.277,0.199 0.437,0.308 0.164,0.114 0.316,0.219 0.465,0.317 0.148,0.097 0.242,0.156 0.285,0.176 z m 4.578,-4.969 c -0.129,-0.11 -0.304,-0.231 -0.519,-0.367 -0.219,-0.137 -0.438,-0.274 -0.664,-0.403 -0.223,-0.133 -0.434,-0.246 -0.633,-0.347 -0.199,-0.098 -0.344,-0.164 -0.43,-0.2 -0.203,0.196 -0.363,0.414 -0.476,0.657 -0.11,0.242 -0.192,0.492 -0.239,0.757 -0.047,0.262 -0.066,0.532 -0.054,0.809 0.011,0.273 0.035,0.543 0.078,0.805 0.027,0.176 0.062,0.359 0.101,0.558 0.039,0.196 0.094,0.391 0.164,0.578 0.071,0.188 0.16,0.36 0.266,0.52 0.105,0.156 0.242,0.285 0.414,0.379 0.242,0.133 0.477,0.269 0.711,0.41 0.234,0.145 0.488,0.254 0.762,0.332 0.172,-0.297 0.332,-0.598 0.476,-0.906 0.149,-0.309 0.278,-0.625 0.387,-0.949 -0.328,-0.137 -0.66,-0.258 -0.996,-0.364 -0.332,-0.105 -0.664,-0.218 -0.992,-0.336 -0.039,-0.05 -0.067,-0.113 -0.078,-0.183 -0.02,-0.125 -0.036,-0.297 -0.043,-0.512 -0.012,-0.215 -0.004,-0.43 0.023,-0.644 0.027,-0.215 0.086,-0.407 0.172,-0.579 0.086,-0.168 0.219,-0.265 0.394,-0.293 0.094,-0.015 0.192,-0.003 0.29,0.036 0.101,0.035 0.199,0.082 0.292,0.14 0.094,0.059 0.188,0.117 0.278,0.176 0.09,0.059 0.176,0.102 0.254,0.133 l 0.062,-0.207 z m -0.777,2.48 c -0.102,0.242 -0.195,0.465 -0.285,0.668 -0.09,0.199 -0.211,0.406 -0.367,0.617 -0.067,-0.265 -0.106,-0.507 -0.122,-0.73 -0.015,-0.223 -0.043,-0.469 -0.085,-0.738 0,-0.016 0,-0.047 0.007,-0.098 0.149,0.043 0.289,0.086 0.43,0.133 0.145,0.047 0.285,0.097 0.422,0.148 z m 3.594,2.157 c -0.086,0.023 -0.176,0.042 -0.274,0.066 -0.101,0.019 -0.191,0.031 -0.277,0.031 -0.086,-0.004 -0.16,-0.023 -0.219,-0.062 -0.059,-0.035 -0.098,-0.106 -0.117,-0.2 -0.024,-0.132 0.012,-0.238 0.105,-0.312 0.094,-0.074 0.192,-0.152 0.293,-0.242 0.106,-0.086 0.188,-0.199 0.254,-0.336 0.067,-0.141 0.063,-0.336 -0.008,-0.594 0.219,0.125 0.438,0.281 0.661,0.465 0.218,0.187 0.414,0.371 0.586,0.551 0.332,-0.391 0.574,-0.797 0.734,-1.211 0.16,-0.414 0.191,-0.887 0.101,-1.406 -0.058,-0.325 -0.183,-0.641 -0.382,-0.946 -0.196,-0.301 -0.422,-0.59 -0.684,-0.863 -0.262,-0.274 -0.531,-0.531 -0.816,-0.774 -0.282,-0.246 -0.543,-0.468 -0.786,-0.671 -0.25,0.207 -0.488,0.421 -0.722,0.644 -0.235,0.219 -0.488,0.422 -0.758,0.61 0.133,0.156 0.234,0.285 0.305,0.382 0.07,0.098 0.125,0.184 0.156,0.258 0.035,0.078 0.059,0.152 0.066,0.227 0.008,0.078 0.024,0.172 0.043,0.281 l 0.426,2.41 c 0.031,0.184 0.02,0.324 -0.035,0.43 -0.055,0.101 -0.117,0.191 -0.191,0.269 -0.071,0.078 -0.137,0.164 -0.196,0.25 -0.058,0.086 -0.07,0.211 -0.043,0.371 0.039,0.227 0.133,0.407 0.282,0.532 0.148,0.121 0.32,0.203 0.507,0.238 0.192,0.035 0.387,0.035 0.586,-0.004 0.203,-0.039 0.375,-0.109 0.524,-0.207 l -0.121,-0.187 z m -0.282,-1.875 c -0.058,-0.461 -0.121,-0.915 -0.191,-1.36 -0.07,-0.445 -0.145,-0.894 -0.223,-1.344 -0.015,-0.07 -0.015,-0.156 -0.004,-0.257 0.012,-0.098 0.032,-0.184 0.059,-0.254 0.098,-0.11 0.191,-0.188 0.289,-0.243 0.098,-0.054 0.203,-0.113 0.32,-0.183 0.161,0.152 0.289,0.316 0.391,0.5 0.102,0.183 0.172,0.379 0.207,0.594 0.039,0.214 0.066,0.441 0.078,0.683 0.016,0.242 0.012,0.485 -0.012,0.723 -0.023,0.242 -0.074,0.476 -0.152,0.703 -0.078,0.227 -0.187,0.426 -0.328,0.609 l -0.434,-0.171 z m 6.348,-4.602 c -0.219,-0.184 -0.477,-0.34 -0.769,-0.465 -0.297,-0.129 -0.567,-0.262 -0.809,-0.41 -0.16,0.176 -0.281,0.371 -0.363,0.59 -0.078,0.219 -0.157,0.437 -0.223,0.656 -0.211,-0.141 -0.422,-0.281 -0.637,-0.41 -0.211,-0.133 -0.429,-0.27 -0.648,-0.414 -0.371,0.336 -0.586,0.711 -0.641,1.125 -0.058,0.414 -0.035,0.847 0.063,1.305 0.078,0.378 0.164,0.691 0.254,0.945 0.089,0.25 0.195,0.465 0.308,0.64 0.117,0.176 0.246,0.329 0.391,0.45 0.144,0.121 0.312,0.238 0.496,0.351 0.183,0.11 0.391,0.231 0.617,0.356 0.227,0.121 0.484,0.277 0.77,0.461 0.414,-0.368 0.843,-0.7 1.289,-1 -0.082,-0.196 -0.168,-0.391 -0.266,-0.582 -0.094,-0.196 -0.164,-0.399 -0.207,-0.61 -0.016,-0.07 -0.043,-0.187 -0.082,-0.355 -0.039,-0.164 -0.082,-0.352 -0.125,-0.563 -0.047,-0.211 -0.086,-0.433 -0.125,-0.664 -0.035,-0.23 -0.062,-0.445 -0.074,-0.644 -0.012,-0.2 -0.008,-0.364 0.019,-0.496 0.024,-0.133 0.078,-0.207 0.164,-0.227 0.098,-0.02 0.188,-0.008 0.282,0.035 0.089,0.039 0.171,0.086 0.25,0.137 l 0.066,-0.211 z m -2.437,3.082 c -0.075,-0.34 -0.141,-0.676 -0.204,-1.012 -0.062,-0.336 -0.132,-0.672 -0.203,-1.011 -0.027,-0.125 -0.011,-0.243 0.047,-0.356 0.059,-0.109 0.117,-0.219 0.18,-0.32 0.098,0.035 0.183,0.082 0.258,0.14 0.074,0.059 0.156,0.11 0.246,0.145 0.031,0.266 0.074,0.527 0.129,0.789 0.07,0.32 0.148,0.641 0.234,0.953 0.09,0.317 0.168,0.637 0.238,0.969 0.016,0.086 0.035,0.164 0.051,0.238 0.016,0.074 0.027,0.156 0.039,0.246 -0.066,0.071 -0.144,0.168 -0.23,0.289 -0.082,0.121 -0.172,0.192 -0.266,0.211 -0.066,0.012 -0.125,-0.035 -0.18,-0.148 -0.058,-0.11 -0.109,-0.242 -0.16,-0.391 -0.047,-0.148 -0.086,-0.297 -0.117,-0.441 -0.031,-0.149 -0.051,-0.246 -0.062,-0.301 z m 5.132,-3.039 c -0.254,-0.18 -0.539,-0.352 -0.855,-0.516 -0.313,-0.16 -0.609,-0.316 -0.895,-0.465 -0.113,0.215 -0.238,0.418 -0.379,0.606 -0.136,0.187 -0.285,0.371 -0.441,0.547 0.121,0.137 0.219,0.269 0.289,0.39 0.07,0.125 0.129,0.254 0.176,0.387 0.047,0.133 0.086,0.274 0.117,0.414 0.035,0.141 0.07,0.297 0.109,0.469 0.239,1.035 0.465,2.066 0.68,3.098 0.039,0.164 0.07,0.32 0.094,0.464 0.027,0.149 0.035,0.293 0.031,0.434 -0.004,0.141 -0.023,0.281 -0.062,0.422 -0.039,0.141 -0.102,0.289 -0.188,0.441 0.02,0.059 0.055,0.106 0.106,0.137 0.046,0.027 0.082,0.074 0.105,0.137 0.156,-0.285 0.266,-0.594 0.328,-0.934 0.113,0.098 0.238,0.195 0.375,0.285 0.137,0.094 0.278,0.172 0.426,0.231 0.144,0.062 0.297,0.105 0.449,0.133 0.156,0.023 0.313,0.019 0.469,-0.016 0.109,-0.027 0.219,-0.07 0.324,-0.137 l -0.062,-0.222 c -0.036,0.019 -0.09,0.035 -0.16,0.05 -0.219,0.051 -0.399,-0.011 -0.54,-0.183 -0.136,-0.176 -0.25,-0.395 -0.336,-0.653 -0.085,-0.261 -0.152,-0.531 -0.195,-0.804 -0.047,-0.274 -0.09,-0.485 -0.125,-0.633 -0.023,-0.102 -0.058,-0.262 -0.109,-0.477 -0.047,-0.214 -0.106,-0.457 -0.164,-0.722 -0.063,-0.266 -0.129,-0.543 -0.196,-0.84 -0.066,-0.293 -0.125,-0.57 -0.171,-0.832 -0.051,-0.258 -0.086,-0.488 -0.11,-0.684 -0.027,-0.199 -0.031,-0.332 -0.012,-0.402 0.047,-0.074 0.11,-0.121 0.188,-0.141 0.109,-0.027 0.227,-0.004 0.348,0.063 0.125,0.066 0.23,0.121 0.324,0.164 l 0.062,-0.211 z"
         style="fill:#151616;fill-opacity:1;fill-rule:evenodd;stroke:none"
         id="path4002"
         inkscape:connector-curvature="0" />
      <path
         d="m 75.137,796.085 0,5.899 c -5.895,-5.899 -7.86,0 -11.793,0 1.965,-1.965 3.297,-5.27 5.898,-5.899 -1.754,-3.867 -3.933,-3.929 -5.898,-5.894 3.933,0 5.187,-5.211 11.793,0 l 4.086,3.566 -4.086,2.328 z"
         style="fill:#ffd043;fill-opacity:1;fill-rule:evenodd;stroke:none"
         id="path4004"
         inkscape:connector-curvature="0" />
      <path
         d="m 74.695,796.085 0,4.871 c -3.707,-3.289 -5.894,-1.976 -8.082,-0.664 -0.691,0.414 -1.383,0.832 -2.121,1.063 0.356,-0.442 0.696,-0.91 1.035,-1.375 1.121,-1.543 2.243,-3.086 3.817,-3.465 l 0,0.004 c 0.238,-0.059 0.386,-0.297 0.328,-0.535 -0.008,-0.039 -0.024,-0.075 -0.039,-0.11 -1.223,-2.672 -2.629,-3.593 -4.035,-4.511 -0.407,-0.266 -0.809,-0.532 -1.207,-0.844 0.933,-0.203 1.722,-0.653 2.511,-1.102 1.895,-1.086 3.793,-2.168 7.961,1.121 l 0.012,0.008 3.59,3.137 -3.547,2.019 0.219,0.383 -0.219,-0.383 c -0.145,0.082 -0.223,0.231 -0.223,0.383 z m 0.887,5.899 0,-5.641 3.832,-2.184 c 0.055,-0.027 0.102,-0.062 0.145,-0.109 0.16,-0.184 0.14,-0.465 -0.043,-0.625 l -4.059,-3.543 c -0.016,-0.016 -0.031,-0.027 -0.047,-0.039 l -0.273,0.348 0.273,-0.348 c -4.637,-3.66 -6.793,-2.426 -8.949,-1.195 -0.961,0.55 -1.922,1.097 -3.117,1.097 -0.114,0 -0.227,0.043 -0.313,0.133 -0.172,0.172 -0.172,0.453 0,0.625 0.684,0.684 1.383,1.145 2.082,1.602 1.223,0.797 2.442,1.593 3.508,3.711 -1.605,0.613 -2.707,2.129 -3.809,3.644 -0.574,0.789 -1.148,1.574 -1.781,2.211 -0.082,0.078 -0.129,0.188 -0.129,0.313 0,0.242 0.2,0.441 0.442,0.441 1.429,0 2.578,-0.687 3.722,-1.375 2.036,-1.219 4.071,-2.441 7.758,1.246 0.082,0.078 0.192,0.129 0.313,0.129 0.246,0 0.445,-0.199 0.445,-0.441 z"
         style="fill:#151616;fill-opacity:1;fill-rule:evenodd;stroke:none"
         id="path4006"
         inkscape:connector-curvature="0" />
      <path
         d="m 75.137,796.085 4.086,-2.328 0,2.707 c -1.36,-0.121 -2.723,-0.246 -4.086,-0.379 z"
         style="fill:#fabb00;fill-opacity:1;fill-rule:evenodd;stroke:none"
         id="path4008"
         inkscape:connector-curvature="0" />
      <path
         d="m 76.57,795.781 2.211,-1.262 0,1.461 c -0.765,-0.067 -1.504,-0.133 -2.211,-0.199 z m 2.434,-2.407 -4.055,2.313 c -0.137,0.062 -0.238,0.195 -0.254,0.355 -0.023,0.246 0.157,0.461 0.399,0.485 l 0.043,-0.442 -0.039,0.442 c 1.457,0.14 2.812,0.265 4.078,0.375 0.015,0.004 0.031,0.004 0.047,0.004 0.246,0 0.445,-0.2 0.445,-0.442 l 0,-2.707 c 0,-0.074 -0.02,-0.148 -0.059,-0.219 -0.121,-0.211 -0.394,-0.285 -0.605,-0.164 z"
         style="fill:#151616;fill-opacity:1;fill-rule:evenodd;stroke:none"
         id="path4010"
         inkscape:connector-curvature="0" />
    </g>
  </g>
</svg>
