<?xml version="1.0" encoding="UTF-8" standalone="no"?>
<!-- Created with Inkscape (http://www.inkscape.org/) -->

<svg
   xmlns:dc="http://purl.org/dc/elements/1.1/"
   xmlns:cc="http://creativecommons.org/ns#"
   xmlns:rdf="http://www.w3.org/1999/02/22-rdf-syntax-ns#"
   xmlns:svg="http://www.w3.org/2000/svg"
   xmlns="http://www.w3.org/2000/svg"
   xmlns:sodipodi="http://sodipodi.sourceforge.net/DTD/sodipodi-0.dtd"
   xmlns:inkscape="http://www.inkscape.org/namespaces/inkscape"
   width="210mm"
   height="297mm"
   id="svg6080"
   version="1.1"
   inkscape:version="0.48.4 r"
   sodipodi:docname="logo.svg">
  <defs
     id="defs3" />
  <sodipodi:namedview
     inkscape:document-units="mm"
     id="base"
     pagecolor="#ffffff"
     bordercolor="#666666"
     borderopacity="1.0"
     inkscape:pageopacity="0.0"
     inkscape:pageshadow="2"
     inkscape:zoom="0.35"
     inkscape:cx="350"
     inkscape:cy="634.28571"
     inkscape:current-layer="layer1"
     showgrid="false"
     inkscape:window-width="1920"
     inkscape:window-height="1018"
     inkscape:window-x="-8"
     inkscape:window-y="-8"
     inkscape:window-maximized="1" />
  <metadata
     id="metadata4">
    <rdf:RDF>
      <cc:Work
         rdf:about="">
        <dc:format>image/svg+xml</dc:format>
        <dc:type
           rdf:resource="http://purl.org/dc/dcmitype/StillImage" />
        <dc:title></dc:title>
      </cc:Work>
    </rdf:RDF>
  </metadata>
  <g
     inkscape:label="Layer 1"
     inkscape:groupmode="layer"
     id="layer1">
    <g
       transform="matrix(1.25,0,0,-1.25,-169.48893,1338.0233)"
       id="g5665">
      <g
         id="g3800"
         transform="matrix(1,0,0,-1,0,1587.4016)">
        <path
           d="m 88.234,565.867 753.344,0 0,3.719 -753.344,0 0,-3.719 z"
           style="fill:#a05943;fill-opacity:1;fill-rule:evenodd;stroke:#4e4e4d;stroke-width:0.45352;stroke-linecap:butt;stroke-linejoin:miter;stroke-miterlimit:4;stroke-opacity:1;stroke-dasharray:none"
           id="path3802"
           inkscape:connector-curvature="0" />
      </g>
      <g
         id="g3804"
         transform="matrix(1,0,0,-1,0,1587.4016)">
        <path
           d="m 850.25,575.355 -6.641,-4.078 0,-7.105 6.641,-4.078 22.984,7.633 -22.984,7.628 z"
           style="fill:#989899;fill-opacity:1;fill-rule:evenodd;stroke:#4e4e4d;stroke-width:0.45352;stroke-linecap:butt;stroke-linejoin:miter;stroke-miterlimit:4;stroke-opacity:1;stroke-dasharray:none"
           id="path3806"
           inkscape:connector-curvature="0" />
      </g>
      <g
         id="g3808"
         transform="matrix(1,0,0,-1,0,1587.4016)">
        <path
           d="m 850.25,564.172 22.984,3.555 -22.984,3.55 0,-7.105 z"
           style="fill:#afb0b0;fill-opacity:1;fill-rule:evenodd;stroke:#4e4e4d;stroke-width:0.45352;stroke-linecap:butt;stroke-linejoin:miter;stroke-miterlimit:4;stroke-opacity:1;stroke-dasharray:none"
           id="path3810"
           inkscape:connector-curvature="0" />
      </g>
      <g
         id="g3812"
         transform="matrix(1,0,0,-1,0,1587.4016)">
        <path
           d="m 840.449,560.652 c 0.969,0 1.75,3.168 1.75,7.075 0,6.3 -1.887,9.453 -2.988,5 -1.102,-4.457 -0.32,-12.075 1.238,-12.075 z"
           style="fill:#676767;fill-opacity:1;fill-rule:evenodd;stroke:#4e4e4d;stroke-width:0.45352;stroke-linecap:butt;stroke-linejoin:miter;stroke-miterlimit:4;stroke-opacity:1;stroke-dasharray:none"
           id="path3814"
           inkscape:connector-curvature="0" />
      </g>
      <g
         id="g3816"
         transform="matrix(1,0,0,-1,0,1587.4016)">
        <path
           d="m 842.645,560.652 c 0.964,0 1.75,3.168 1.75,7.075 0,6.3 -1.887,9.453 -2.989,5 -1.101,-4.457 -0.32,-12.075 1.239,-12.075 z"
           style="fill:#676767;fill-opacity:1;fill-rule:evenodd;stroke:#4e4e4d;stroke-width:0.45352;stroke-linecap:butt;stroke-linejoin:miter;stroke-miterlimit:4;stroke-opacity:1;stroke-dasharray:none"
           id="path3818"
           inkscape:connector-curvature="0" />
      </g>
      <g
         id="g3820"
         transform="matrix(1,0,0,-1,0,1587.4016)">
        <path
           d="m 837.469,560.652 c 0.969,0 1.754,3.168 1.754,7.075 0,6.3 -1.887,9.453 -2.989,5 -1.105,-4.457 -0.324,-12.071 1.235,-12.075 z"
           style="fill:#676767;fill-opacity:1;fill-rule:evenodd;stroke:#4e4e4d;stroke-width:0.45352;stroke-linecap:butt;stroke-linejoin:miter;stroke-miterlimit:4;stroke-opacity:1;stroke-dasharray:none"
           id="path3822"
           inkscape:connector-curvature="0" />
      </g>
      <g
         id="g3824"
         transform="matrix(1,0,0,-1,0,1587.4016)">
        <path
           d="m 540.059,565.867 66.98,0 0,39.098 -66.98,0 0,-39.098 z"
           style="fill:none;stroke:#000000;stroke-width:0.16;stroke-linecap:butt;stroke-linejoin:miter;stroke-miterlimit:4;stroke-opacity:1;stroke-dasharray:none"
           id="path3826"
           inkscape:connector-curvature="0" />
      </g>
      <path
         d="m 607.039,1021.534 -66.98,0 0,-92.582 33.492,22.399 33.488,-22.399 0,92.582 z"
         style="fill:#ffde7e;fill-opacity:1;fill-rule:evenodd;stroke:none"
         id="path3828"
         inkscape:connector-curvature="0" />
      <path
         d="m 573.551,1021.534 33.488,0 0,-39.098 -33.488,0 0,39.098 z"
         style="fill:#7586ac;fill-opacity:1;fill-rule:evenodd;stroke:none"
         id="path3830"
         inkscape:connector-curvature="0" />
      <path
         d="m 540.059,928.952 0,53.485 33.492,0 0,-31.086 -33.492,-22.399 z"
         style="fill:#7586ac;fill-opacity:1;fill-rule:evenodd;stroke:none"
         id="path3832"
         inkscape:connector-curvature="0" />
      <g
         id="g3834"
         transform="matrix(1,0,0,-1,0,1587.4016)">
        <path
           d="m 613.285,565.867 66.98,0 0,39.098 -66.98,0 0,-39.098 z"
           style="fill:none;stroke:#000000;stroke-width:0.16;stroke-linecap:butt;stroke-linejoin:miter;stroke-miterlimit:4;stroke-opacity:1;stroke-dasharray:none"
           id="path3836"
           inkscape:connector-curvature="0" />
      </g>
      <path
         d="m 680.266,1021.534 -66.981,0 0,-61.496 33.492,22.399 33.489,-22.399 0,61.496 z"
         style="fill:#ffde7e;fill-opacity:1;fill-rule:evenodd;stroke:none"
         id="path3838"
         inkscape:connector-curvature="0" />
      <path
         d="m 646.777,1021.534 33.488,0 0,-39.098 -33.488,0 0,39.098 z"
         style="fill:#7586ac;fill-opacity:1;fill-rule:evenodd;stroke:none"
         id="path3840"
         inkscape:connector-curvature="0" />
      <path
         d="m 613.285,960.038 0,22.399 33.492,0 -33.492,-22.399 z"
         style="fill:#7586ac;fill-opacity:1;fill-rule:evenodd;stroke:none"
         id="path3842"
         inkscape:connector-curvature="0" />
      <g
         id="g3844"
         transform="matrix(1,0,0,-1,0,1587.4016)">
        <path
           d="m 686.512,565.867 66.98,0 0,39.098 -66.98,0 0,-39.098 z"
           style="fill:none;stroke:#000000;stroke-width:0.16;stroke-linecap:butt;stroke-linejoin:miter;stroke-miterlimit:4;stroke-opacity:1;stroke-dasharray:none"
           id="path3846"
           inkscape:connector-curvature="0" />
      </g>
      <path
         d="m 753.492,1021.534 -66.98,0 0,-61.496 33.492,22.399 33.488,-22.399 0,61.496 z"
         style="fill:#ffde7e;fill-opacity:1;fill-rule:evenodd;stroke:none"
         id="path3848"
         inkscape:connector-curvature="0" />
      <path
         d="m 720.004,1021.534 33.488,0 0,-39.098 -33.488,0 0,39.098 z"
         style="fill:#7586ac;fill-opacity:1;fill-rule:evenodd;stroke:none"
         id="path3850"
         inkscape:connector-curvature="0" />
      <path
         d="m 686.512,960.038 0,22.399 33.492,0 -33.492,-22.399 z"
         style="fill:#7586ac;fill-opacity:1;fill-rule:evenodd;stroke:none"
         id="path3852"
         inkscape:connector-curvature="0" />
      <path
         d="m 826.719,1021.534 -66.981,0 0,-61.496 33.492,22.399 33.489,-22.399 0,61.496 z"
         style="fill:#ffde7e;fill-opacity:1;fill-rule:evenodd;stroke:none"
         id="path3854"
         inkscape:connector-curvature="0" />
      <path
         d="m 793.23,1021.534 33.488,0 0,-39.098 -33.488,0 0,39.098 z"
         style="fill:#7586ac;fill-opacity:1;fill-rule:evenodd;stroke:none"
         id="path3856"
         inkscape:connector-curvature="0" />
      <path
         d="m 759.738,960.038 0,22.399 33.492,0 -33.492,-22.399 z"
         style="fill:#7586ac;fill-opacity:1;fill-rule:evenodd;stroke:none"
         id="path3858"
         inkscape:connector-curvature="0" />
      <path
         d="m 782.574,999.964 c 0,-0.887 -0.187,-1.723 -0.574,-2.508 -0.379,-0.789 -0.898,-1.48 -1.551,-2.074 -0.66,-0.594 -1.418,-1.066 -2.281,-1.414 -0.863,-0.348 -1.785,-0.523 -2.758,-0.523 -1.082,0 -2.023,0.183 -2.824,0.554 -0.801,0.367 -1.465,0.864 -1.992,1.489 -0.528,0.625 -0.918,1.343 -1.18,2.164 -0.258,0.816 -0.391,1.675 -0.391,2.574 0,0.637 0.086,1.246 0.262,1.832 0.176,0.586 0.426,1.129 0.754,1.637 0.324,0.503 0.711,0.968 1.168,1.382 0.457,0.418 0.961,0.774 1.516,1.071 0.554,0.297 1.152,0.527 1.797,0.687 0.636,0.164 1.312,0.242 2.015,0.242 0.102,0 0.168,-0.07 0.207,-0.218 0.039,-0.153 0.055,-0.325 0.055,-0.516 0,-0.199 -0.008,-0.391 -0.02,-0.578 -0.015,-0.184 -0.019,-0.313 -0.019,-0.391 0.066,0.063 0.183,0.168 0.336,0.313 0.16,0.144 0.332,0.293 0.504,0.449 0.175,0.156 0.343,0.293 0.507,0.414 0.165,0.117 0.278,0.176 0.348,0.176 l 0.047,0 c 0.711,-0.324 1.32,-0.731 1.836,-1.211 0.512,-0.484 0.937,-1.02 1.269,-1.613 0.329,-0.59 0.575,-1.223 0.731,-1.891 0.16,-0.668 0.238,-1.352 0.238,-2.047 z m -2.551,-0.933 c 0,0.472 -0.039,0.98 -0.109,1.523 -0.07,0.539 -0.195,1.062 -0.379,1.574 -0.183,0.512 -0.43,0.981 -0.746,1.418 -0.312,0.434 -0.715,0.785 -1.199,1.039 l -0.172,0.024 c -0.441,0 -0.66,-0.207 -0.66,-0.621 l 0,-7.727 c 0,-0.207 -0.082,-0.398 -0.238,-0.578 -0.157,-0.172 -0.352,-0.332 -0.579,-0.473 -0.226,-0.14 -0.461,-0.265 -0.711,-0.375 -0.246,-0.109 -0.457,-0.191 -0.632,-0.254 0.175,-0.054 0.355,-0.09 0.539,-0.109 0.179,-0.024 0.367,-0.031 0.558,-0.031 0.688,0 1.301,0.129 1.836,0.39 0.539,0.258 0.992,0.606 1.36,1.032 0.367,0.429 0.652,0.918 0.839,1.472 0.196,0.551 0.293,1.113 0.293,1.696 z m -5.73,6.761 c -0.406,-0.074 -0.754,-0.222 -1.047,-0.441 -0.297,-0.219 -0.543,-0.485 -0.746,-0.797 -0.203,-0.309 -0.367,-0.652 -0.492,-1.027 -0.125,-0.375 -0.219,-0.758 -0.289,-1.141 -0.067,-0.383 -0.11,-0.766 -0.137,-1.141 -0.023,-0.375 -0.035,-0.714 -0.035,-1.019 0,-0.426 0.027,-0.887 0.082,-1.395 0.055,-0.5 0.16,-0.996 0.316,-1.48 0.153,-0.481 0.367,-0.93 0.641,-1.344 0.273,-0.418 0.633,-0.75 1.07,-0.992 0.156,0.078 0.274,0.152 0.36,0.234 0.082,0.082 0.144,0.172 0.187,0.27 0.043,0.097 0.067,0.203 0.074,0.316 0.012,0.117 0.016,0.246 0.016,0.391 l 0,9.566 z m 12.43,1.149 c 0.058,-0.028 0.156,-0.063 0.297,-0.11 0.136,-0.043 0.289,-0.093 0.457,-0.156 0.164,-0.062 0.335,-0.121 0.519,-0.191 0.176,-0.067 0.336,-0.137 0.484,-0.2 0.145,-0.062 0.266,-0.125 0.36,-0.183 0.094,-0.055 0.14,-0.102 0.14,-0.133 0,-0.027 -0.027,-0.082 -0.085,-0.172 -0.055,-0.082 -0.129,-0.18 -0.219,-0.293 -0.086,-0.109 -0.184,-0.222 -0.285,-0.344 -0.106,-0.121 -0.211,-0.23 -0.313,-0.332 -0.101,-0.101 -0.191,-0.183 -0.266,-0.246 -0.082,-0.066 -0.132,-0.097 -0.16,-0.097 -0.039,0 -0.121,0.023 -0.246,0.074 -0.125,0.055 -0.261,0.113 -0.41,0.18 -0.152,0.066 -0.293,0.132 -0.426,0.195 -0.136,0.066 -0.23,0.109 -0.285,0.137 l 0.02,0 -0.282,0.125 c -0.054,-0.063 -0.089,-0.125 -0.105,-0.2 -0.012,-0.07 -0.016,-0.14 -0.016,-0.218 0,-0.157 0.043,-0.344 0.141,-0.555 0.094,-0.219 0.219,-0.426 0.371,-0.613 0.148,-0.196 0.32,-0.356 0.508,-0.493 0.191,-0.136 0.383,-0.203 0.578,-0.203 0.07,0 0.176,0 0.32,0.012 0.145,0.012 0.293,0.016 0.442,0.012 0.148,0 0.277,-0.02 0.394,-0.055 0.117,-0.035 0.172,-0.094 0.172,-0.184 0,-0.285 0.004,-0.492 0.008,-0.625 0.004,-0.128 -0.027,-0.214 -0.086,-0.261 -0.062,-0.043 -0.172,-0.063 -0.328,-0.055 -0.152,0.01 -0.387,0.012 -0.695,0.012 -0.016,-0.488 -0.028,-1.039 -0.032,-1.656 -0.007,-0.614 -0.015,-1.258 -0.027,-1.942 -0.008,-0.676 -0.027,-1.367 -0.051,-2.074 -0.023,-0.707 -0.051,-1.395 -0.09,-2.063 -0.039,-0.671 -0.089,-1.304 -0.152,-1.902 -0.066,-0.598 -0.145,-1.121 -0.238,-1.574 -0.016,-0.055 -0.043,-0.102 -0.078,-0.133 -0.043,-0.035 -0.094,-0.051 -0.153,-0.051 l -0.449,0 c -0.133,0.055 -0.25,0.239 -0.344,0.551 -0.093,0.313 -0.175,0.715 -0.234,1.203 -0.063,0.485 -0.109,1.039 -0.149,1.649 -0.035,0.617 -0.066,1.25 -0.093,1.906 -0.028,0.648 -0.051,1.301 -0.071,1.949 -0.019,0.649 -0.046,1.246 -0.074,1.801 -0.023,0.551 -0.062,1.031 -0.101,1.441 -0.047,0.41 -0.106,0.711 -0.18,0.895 -0.055,0 -0.121,0 -0.211,-0.012 -0.082,-0.01 -0.164,0 -0.242,0 -0.086,0.01 -0.153,0.031 -0.211,0.059 -0.059,0.023 -0.086,0.074 -0.086,0.152 0,0.18 -0.008,0.332 -0.027,0.453 -0.016,0.125 -0.012,0.219 0.007,0.289 0.02,0.07 0.075,0.121 0.164,0.152 0.086,0.032 0.239,0.047 0.454,0.047 -0.059,0.27 -0.129,0.539 -0.207,0.805 -0.079,0.266 -0.118,0.543 -0.118,0.828 0,0.25 0.055,0.481 0.172,0.699 0.117,0.215 0.258,0.422 0.43,0.61 0.176,0.187 0.363,0.367 0.566,0.543 0.2,0.172 0.395,0.336 0.578,0.5 l 0.243,0.043 z m 7.945,-3.157 c 0.035,-0.066 0.109,-0.211 0.23,-0.429 0.118,-0.223 0.254,-0.477 0.411,-0.774 0.156,-0.297 0.316,-0.613 0.484,-0.937 0.168,-0.328 0.324,-0.633 0.469,-0.914 0.148,-0.282 0.269,-0.52 0.363,-0.719 0.094,-0.191 0.145,-0.301 0.145,-0.32 0,-0.043 -0.102,-0.118 -0.293,-0.227 -0.2,-0.113 -0.45,-0.246 -0.754,-0.394 -0.305,-0.153 -0.637,-0.317 -1,-0.489 -0.36,-0.175 -0.707,-0.336 -1.043,-0.492 -0.332,-0.156 -0.629,-0.293 -0.891,-0.41 -0.262,-0.121 -0.437,-0.203 -0.531,-0.25 0.051,-0.234 0.129,-0.484 0.219,-0.746 0.097,-0.258 0.222,-0.5 0.382,-0.723 0.161,-0.222 0.352,-0.406 0.579,-0.551 0.226,-0.148 0.5,-0.218 0.828,-0.218 0.105,0 0.257,0.027 0.449,0.078 0.191,0.054 0.39,0.125 0.586,0.203 0.203,0.082 0.387,0.172 0.554,0.266 0.168,0.093 0.286,0.183 0.344,0.261 l 0.113,0.02 c 0.043,0 0.09,-0.016 0.133,-0.055 0.035,-0.039 0.071,-0.082 0.098,-0.137 0.027,-0.054 0.051,-0.109 0.066,-0.168 0.02,-0.054 0.024,-0.105 0.024,-0.144 0,-0.016 -0.004,-0.035 -0.008,-0.063 -0.004,-0.027 -0.016,-0.046 -0.027,-0.058 l -3.137,-1.906 -0.199,-0.043 c -0.664,0.191 -1.223,0.496 -1.676,0.914 -0.449,0.418 -0.813,0.898 -1.09,1.441 -0.273,0.539 -0.469,1.109 -0.586,1.715 -0.121,0.605 -0.18,1.195 -0.18,1.762 0,0.668 0.114,1.269 0.336,1.808 0.223,0.535 0.539,1 0.95,1.391 0.406,0.394 0.902,0.711 1.484,0.949 0.582,0.242 1.227,0.402 1.938,0.481 l 0.23,-0.122 z m -0.16,-4.195 -1.641,2.969 -0.418,-0.293 c -0.215,-0.418 -0.359,-0.859 -0.422,-1.317 -0.066,-0.46 -0.093,-0.921 -0.093,-1.378 0,-0.196 0.004,-0.399 0.023,-0.606 0.016,-0.203 0.039,-0.406 0.066,-0.601 l 2.485,1.226 z m 9.961,2.32 c -0.203,-0.121 -0.407,-0.25 -0.614,-0.382 -0.203,-0.137 -0.414,-0.274 -0.625,-0.407 l 0.032,0.02 c -0.047,-0.035 -0.094,-0.067 -0.153,-0.094 -0.05,-0.027 -0.109,-0.047 -0.171,-0.066 -0.051,0 -0.126,0.039 -0.219,0.129 -0.09,0.086 -0.184,0.191 -0.281,0.304 -0.098,0.114 -0.188,0.231 -0.274,0.34 -0.086,0.11 -0.144,0.192 -0.187,0.238 -0.172,-0.14 -0.289,-0.304 -0.356,-0.488 -0.066,-0.183 -0.101,-0.375 -0.101,-0.586 l 0,-5.172 c 0.164,-0.078 0.316,-0.16 0.468,-0.246 0.153,-0.086 0.309,-0.168 0.465,-0.25 0.02,0.008 0.078,0.039 0.172,0.094 0.094,0.051 0.195,0.109 0.301,0.172 0.101,0.058 0.199,0.113 0.281,0.164 0.082,0.043 0.133,0.066 0.141,0.066 0.043,0 0.093,-0.015 0.144,-0.054 0.051,-0.039 0.098,-0.082 0.137,-0.129 0.039,-0.055 0.074,-0.106 0.094,-0.164 0.023,-0.059 0.039,-0.11 0.039,-0.149 0,-0.023 -0.055,-0.082 -0.16,-0.172 -0.102,-0.089 -0.239,-0.191 -0.399,-0.308 -0.16,-0.117 -0.34,-0.242 -0.539,-0.383 -0.191,-0.133 -0.383,-0.262 -0.559,-0.383 -0.179,-0.121 -0.343,-0.23 -0.484,-0.324 -0.144,-0.094 -0.234,-0.16 -0.285,-0.191 l -0.223,0 c -0.402,0.226 -0.808,0.457 -1.215,0.679 -0.406,0.231 -0.816,0.453 -1.238,0.668 l -0.109,0.16 c 0,0.043 0.035,0.106 0.109,0.184 0.067,0.078 0.152,0.168 0.242,0.254 0.098,0.09 0.188,0.172 0.282,0.25 0.089,0.074 0.156,0.133 0.199,0.164 l 0,5.32 c 0,0.063 -0.004,0.141 -0.012,0.239 -0.008,0.089 -0.023,0.183 -0.051,0.265 -0.023,0.086 -0.066,0.16 -0.121,0.223 -0.054,0.062 -0.133,0.097 -0.234,0.097 -0.133,0 -0.258,-0.031 -0.375,-0.093 -0.113,-0.059 -0.223,-0.129 -0.324,-0.211 -0.032,-0.012 -0.063,-0.024 -0.082,-0.031 -0.02,-0.01 -0.039,-0.01 -0.059,-0.01 -0.043,0 -0.086,0.015 -0.133,0.043 -0.047,0.031 -0.09,0.066 -0.137,0.109 -0.043,0.039 -0.078,0.082 -0.109,0.125 -0.031,0.043 -0.051,0.086 -0.055,0.117 0,0.028 0.043,0.09 0.133,0.192 0.094,0.101 0.207,0.222 0.352,0.359 0.14,0.141 0.297,0.285 0.465,0.434 0.171,0.148 0.328,0.285 0.48,0.414 0.152,0.129 0.289,0.234 0.406,0.32 0.121,0.082 0.2,0.129 0.239,0.129 l 0.05,0 c 0.321,-0.156 0.606,-0.352 0.868,-0.578 0.261,-0.235 0.457,-0.504 0.593,-0.817 0.094,0.164 0.207,0.325 0.344,0.485 0.137,0.156 0.285,0.304 0.453,0.433 0.164,0.133 0.34,0.243 0.535,0.332 0.196,0.086 0.395,0.145 0.602,0.161 l 0.203,-0.079 c 0.199,-0.277 0.395,-0.554 0.582,-0.828 0.195,-0.273 0.383,-0.551 0.566,-0.836 l -0.089,-0.254 -0.004,0 z m 5.676,-6.367 c 0.043,0 0.085,-0.015 0.14,-0.054 0.047,-0.04 0.098,-0.082 0.153,-0.137 0.046,-0.055 0.089,-0.11 0.121,-0.16 0.035,-0.055 0.058,-0.102 0.062,-0.133 0,-0.043 -0.043,-0.102 -0.129,-0.184 -0.09,-0.078 -0.203,-0.172 -0.344,-0.281 -0.136,-0.102 -0.289,-0.215 -0.453,-0.328 -0.168,-0.113 -0.324,-0.223 -0.476,-0.328 -0.153,-0.102 -0.289,-0.196 -0.407,-0.281 -0.117,-0.079 -0.199,-0.137 -0.25,-0.168 l -0.23,0 -2.301,1.386 -0.113,0.184 c 0,0.027 0.031,0.07 0.086,0.133 0.058,0.058 0.125,0.125 0.195,0.187 0.078,0.07 0.149,0.137 0.219,0.195 0.074,0.063 0.121,0.106 0.148,0.133 l 0,6.063 c -0.054,0 -0.144,-0.01 -0.269,-0.024 -0.125,-0.011 -0.25,-0.015 -0.379,-0.011 -0.129,0 -0.242,0.019 -0.34,0.05 -0.098,0.028 -0.144,0.09 -0.144,0.188 l 0,0.609 c 0.043,0.086 0.14,0.153 0.281,0.2 0.144,0.046 0.301,0.109 0.476,0.175 0.176,0.075 0.352,0.176 0.532,0.305 0.179,0.133 0.328,0.328 0.453,0.586 0.078,0.184 0.152,0.375 0.211,0.586 0.062,0.211 0.113,0.426 0.16,0.648 0.043,0.227 0.078,0.442 0.113,0.66 0.035,0.215 0.07,0.422 0.106,0.618 0.007,0.043 0.039,0.074 0.082,0.105 0.043,0.031 0.082,0.059 0.117,0.078 l 0.578,0 c 0.148,0 0.227,-0.07 0.227,-0.211 l 0,-3.277 c 0.062,0 0.183,0.012 0.359,0.027 0.168,0.016 0.344,0.024 0.519,0.024 0.176,0 0.332,-0.016 0.465,-0.055 0.137,-0.039 0.203,-0.105 0.203,-0.207 l 0,-0.566 c 0,-0.145 0,-0.258 -0.019,-0.336 -0.012,-0.082 -0.051,-0.137 -0.102,-0.164 -0.058,-0.028 -0.14,-0.039 -0.257,-0.043 -0.114,0 -0.266,0 -0.454,0.011 -0.191,0.016 -0.429,0.024 -0.718,0.024 l 0,-6.254 c 0.113,-0.063 0.218,-0.133 0.316,-0.203 0.098,-0.078 0.203,-0.145 0.32,-0.207 0.039,0.031 0.094,0.066 0.16,0.117 0.071,0.043 0.141,0.094 0.208,0.141 0.074,0.046 0.144,0.085 0.21,0.125 0.067,0.039 0.122,0.054 0.161,0.054 l 0.004,0 z m 10.043,-0.152 c 0.042,0 0.089,-0.02 0.144,-0.067 0.055,-0.039 0.102,-0.089 0.148,-0.144 0.043,-0.055 0.082,-0.106 0.114,-0.164 0.035,-0.055 0.051,-0.09 0.051,-0.121 0,-0.028 -0.04,-0.078 -0.122,-0.153 -0.082,-0.07 -0.183,-0.156 -0.312,-0.257 -0.129,-0.098 -0.27,-0.196 -0.422,-0.305 -0.152,-0.102 -0.297,-0.203 -0.437,-0.297 -0.137,-0.094 -0.262,-0.176 -0.375,-0.25 -0.11,-0.07 -0.184,-0.117 -0.227,-0.144 l -0.164,-0.043 c -0.184,0.027 -0.363,0.093 -0.524,0.199 -0.164,0.101 -0.308,0.23 -0.437,0.375 -0.129,0.148 -0.238,0.301 -0.328,0.465 -0.094,0.168 -0.164,0.324 -0.207,0.472 -0.395,-0.25 -0.785,-0.5 -1.184,-0.746 -0.394,-0.246 -0.797,-0.488 -1.199,-0.722 l -0.234,0 c -0.481,0.277 -0.879,0.605 -1.196,0.992 -0.32,0.383 -0.57,0.801 -0.765,1.246 -0.196,0.445 -0.328,0.918 -0.407,1.41 -0.078,0.492 -0.117,0.988 -0.117,1.48 0,1.262 0.301,2.329 0.903,3.196 0.605,0.867 1.535,1.562 2.797,2.078 l 0.183,0 c 0.109,-0.051 0.285,-0.121 0.527,-0.211 0.247,-0.094 0.516,-0.191 0.813,-0.305 0.297,-0.113 0.601,-0.226 0.918,-0.347 0.312,-0.125 0.601,-0.239 0.859,-0.352 0.262,-0.113 0.473,-0.211 0.641,-0.301 0.164,-0.086 0.246,-0.152 0.246,-0.191 0,-0.047 -0.035,-0.098 -0.109,-0.156 -0.075,-0.059 -0.157,-0.118 -0.25,-0.184 -0.09,-0.062 -0.176,-0.137 -0.246,-0.219 -0.079,-0.078 -0.114,-0.172 -0.114,-0.273 l 0,-5.836 c 0,-0.035 0,-0.074 0.008,-0.125 0,-0.043 0.008,-0.094 0.024,-0.141 0.011,-0.047 0.035,-0.086 0.062,-0.121 0.027,-0.031 0.066,-0.051 0.121,-0.051 0.121,0 0.238,0.028 0.352,0.082 0.117,0.055 0.218,0.118 0.304,0.192 0.071,0.027 0.121,0.039 0.164,0.039 l -0.003,0 z m -3.211,6.082 -2.18,0.934 c -0.141,-0.223 -0.254,-0.458 -0.34,-0.708 -0.082,-0.25 -0.148,-0.503 -0.191,-0.765 -0.043,-0.262 -0.075,-0.524 -0.086,-0.785 -0.016,-0.266 -0.02,-0.524 -0.02,-0.77 0,-0.129 0.008,-0.324 0.031,-0.578 0.02,-0.258 0.051,-0.543 0.094,-0.863 0.043,-0.317 0.102,-0.645 0.172,-0.973 0.07,-0.332 0.16,-0.633 0.27,-0.902 0.105,-0.27 0.23,-0.496 0.375,-0.668 0.14,-0.176 0.304,-0.266 0.496,-0.266 0.062,0 0.156,0.035 0.285,0.102 0.125,0.066 0.262,0.144 0.398,0.23 0.141,0.082 0.27,0.168 0.395,0.254 0.121,0.09 0.211,0.152 0.273,0.195 l 0.028,0 0,5.563 z"
         style="fill:#151616;fill-opacity:1;fill-rule:evenodd;stroke:none"
         id="path3860"
         inkscape:connector-curvature="0" />
      <path
         d="m 700.945,1007.081 c 0.043,0 0.117,-0.039 0.231,-0.109 0.109,-0.078 0.238,-0.176 0.383,-0.293 0.144,-0.117 0.3,-0.246 0.461,-0.383 0.164,-0.137 0.316,-0.273 0.464,-0.406 0.153,-0.133 0.286,-0.25 0.403,-0.356 0.117,-0.101 0.203,-0.175 0.25,-0.218 l 0.058,-0.141 c 0,-0.074 -0.043,-0.152 -0.133,-0.23 -0.093,-0.086 -0.167,-0.149 -0.218,-0.207 l -0.164,-0.063 c -0.047,0 -0.102,0.023 -0.16,0.063 -0.055,0.031 -0.118,0.078 -0.188,0.121 -0.062,0.05 -0.141,0.089 -0.219,0.129 -0.082,0.039 -0.168,0.054 -0.254,0.054 -0.074,0 -0.136,-0.023 -0.191,-0.07 -0.047,-0.047 -0.09,-0.106 -0.121,-0.172 -0.031,-0.066 -0.051,-0.137 -0.063,-0.215 -0.015,-0.07 -0.027,-0.133 -0.031,-0.179 -0.055,-0.379 -0.09,-0.747 -0.113,-1.102 -0.02,-0.356 -0.078,-0.688 -0.176,-0.992 -0.098,-0.309 -0.258,-0.582 -0.488,-0.824 -0.223,-0.247 -0.571,-0.446 -1.039,-0.61 0.386,-0.137 0.703,-0.312 0.949,-0.523 0.246,-0.215 0.441,-0.453 0.582,-0.727 0.141,-0.269 0.238,-0.562 0.289,-0.887 0.051,-0.32 0.078,-0.652 0.078,-0.996 0,-0.066 -0.008,-0.179 -0.019,-0.336 -0.016,-0.152 -0.032,-0.328 -0.043,-0.515 -0.016,-0.188 -0.02,-0.387 -0.02,-0.586 0,-0.203 0.008,-0.391 0.031,-0.563 0.02,-0.164 0.059,-0.304 0.118,-0.414 0.054,-0.105 0.132,-0.164 0.238,-0.164 0.105,0 0.195,0.016 0.265,0.043 0.075,0.028 0.137,0.059 0.196,0.098 0.058,0.039 0.113,0.07 0.172,0.109 0.054,0.039 0.125,0.063 0.207,0.078 0.027,0 0.066,-0.019 0.121,-0.054 0.054,-0.039 0.105,-0.082 0.152,-0.133 0.047,-0.051 0.09,-0.106 0.129,-0.156 0.035,-0.055 0.055,-0.102 0.055,-0.137 0,-0.008 -0.047,-0.055 -0.141,-0.129 -0.098,-0.074 -0.219,-0.164 -0.367,-0.266 -0.149,-0.097 -0.313,-0.211 -0.484,-0.328 -0.176,-0.117 -0.348,-0.226 -0.508,-0.336 -0.164,-0.101 -0.305,-0.195 -0.43,-0.281 -0.129,-0.082 -0.211,-0.141 -0.262,-0.168 l -0.234,-0.019 c -0.277,0.101 -0.523,0.214 -0.742,0.335 -0.219,0.122 -0.407,0.262 -0.559,0.426 -0.152,0.16 -0.269,0.348 -0.355,0.567 -0.082,0.215 -0.125,0.468 -0.125,0.75 l 0,3.668 c 0,0.238 -0.063,0.429 -0.188,0.574 -0.125,0.144 -0.285,0.258 -0.472,0.332 -0.188,0.082 -0.399,0.133 -0.629,0.16 -0.231,0.027 -0.446,0.043 -0.649,0.043 l -1.336,0 0,-2.832 c 0,-0.176 -0.039,-0.34 -0.105,-0.492 -0.074,-0.153 -0.168,-0.289 -0.285,-0.422 -0.118,-0.129 -0.254,-0.242 -0.403,-0.348 -0.148,-0.105 -0.301,-0.199 -0.457,-0.277 0.051,-0.02 0.125,-0.055 0.235,-0.102 0.109,-0.047 0.234,-0.101 0.375,-0.16 0.14,-0.062 0.293,-0.125 0.445,-0.195 0.156,-0.07 0.301,-0.129 0.437,-0.184 0.137,-0.05 0.254,-0.097 0.348,-0.133 0.098,-0.031 0.164,-0.046 0.199,-0.046 0.086,0 0.172,0.015 0.258,0.054 0.086,0.035 0.164,0.078 0.242,0.114 0.071,0.043 0.137,0.082 0.196,0.121 0.054,0.035 0.101,0.054 0.125,0.054 0.046,0 0.101,-0.015 0.16,-0.047 0.054,-0.031 0.109,-0.07 0.16,-0.117 0.051,-0.043 0.094,-0.097 0.133,-0.152 0.039,-0.051 0.062,-0.102 0.074,-0.141 0,-0.031 -0.047,-0.09 -0.141,-0.175 -0.097,-0.079 -0.218,-0.168 -0.367,-0.27 -0.148,-0.102 -0.312,-0.211 -0.492,-0.324 -0.18,-0.117 -0.348,-0.223 -0.512,-0.324 -0.16,-0.102 -0.308,-0.196 -0.437,-0.274 -0.133,-0.082 -0.223,-0.137 -0.27,-0.164 l -0.242,-0.019 c -0.078,0.035 -0.211,0.093 -0.406,0.183 -0.196,0.086 -0.422,0.188 -0.676,0.297 -0.25,0.109 -0.516,0.23 -0.789,0.355 -0.273,0.125 -0.523,0.247 -0.75,0.36 -0.227,0.117 -0.414,0.215 -0.563,0.305 -0.148,0.089 -0.226,0.148 -0.226,0.179 0,0.071 0.066,0.149 0.191,0.239 0.125,0.085 0.258,0.207 0.407,0.363 0.144,0.156 0.277,0.359 0.402,0.609 0.125,0.258 0.187,0.586 0.187,0.992 l 0,6.539 c 0,0.141 -0.011,0.282 -0.031,0.43 -0.016,0.145 -0.062,0.277 -0.125,0.406 -0.066,0.125 -0.156,0.227 -0.273,0.309 -0.118,0.078 -0.274,0.129 -0.461,0.141 l -0.547,-0.414 -0.242,0 -0.348,0.261 -0.09,0.176 c 0,0.035 0.051,0.098 0.156,0.195 0.106,0.098 0.235,0.207 0.391,0.328 0.156,0.125 0.328,0.258 0.523,0.399 0.192,0.141 0.376,0.273 0.551,0.394 0.176,0.122 0.332,0.231 0.465,0.325 0.141,0.093 0.231,0.16 0.285,0.203 l 0.246,0.019 c 0.227,-0.105 0.461,-0.238 0.7,-0.39 0.242,-0.153 0.461,-0.321 0.664,-0.504 0.195,-0.188 0.363,-0.391 0.488,-0.621 0.129,-0.223 0.195,-0.465 0.195,-0.727 l 0,-3.566 1.571,0 c 0.453,0 0.804,0.062 1.05,0.191 0.254,0.129 0.438,0.301 0.563,0.516 0.121,0.215 0.191,0.468 0.215,0.758 0.023,0.285 0.039,0.589 0.039,0.906 0.004,0.316 0.019,0.64 0.035,0.972 0.023,0.332 0.086,0.649 0.203,0.954 0.109,0.304 0.281,0.586 0.516,0.839 0.23,0.262 0.566,0.477 1,0.653 0.031,0.011 0.05,0.019 0.058,0.019 l 0.039,0 z m 11.102,-8.203 c 0,-0.441 -0.035,-0.879 -0.102,-1.301 -0.07,-0.421 -0.187,-0.824 -0.355,-1.207 -0.172,-0.382 -0.395,-0.738 -0.68,-1.07 -0.281,-0.328 -0.64,-0.621 -1.074,-0.883 -0.059,-0.031 -0.176,-0.101 -0.344,-0.211 -0.168,-0.105 -0.351,-0.218 -0.543,-0.328 -0.195,-0.113 -0.375,-0.211 -0.535,-0.293 -0.168,-0.086 -0.273,-0.125 -0.324,-0.117 -0.633,0.16 -1.192,0.402 -1.676,0.73 -0.48,0.325 -0.887,0.708 -1.211,1.153 -0.324,0.449 -0.566,0.937 -0.734,1.476 -0.168,0.536 -0.25,1.094 -0.25,1.676 0,0.703 0.082,1.328 0.242,1.867 0.164,0.539 0.41,1.024 0.738,1.457 0.328,0.426 0.739,0.809 1.231,1.149 0.492,0.336 1.07,0.652 1.734,0.949 0.676,-0.086 1.258,-0.293 1.742,-0.621 0.485,-0.324 0.887,-0.727 1.207,-1.195 0.317,-0.469 0.551,-0.985 0.703,-1.547 0.153,-0.559 0.231,-1.121 0.231,-1.684 z m -2.059,-1.289 c 0,0.461 -0.043,0.938 -0.121,1.426 -0.082,0.484 -0.222,0.945 -0.422,1.387 -0.199,0.437 -0.468,0.836 -0.808,1.187 -0.336,0.359 -0.762,0.633 -1.278,0.84 -0.218,-0.184 -0.394,-0.402 -0.531,-0.656 -0.133,-0.25 -0.23,-0.52 -0.301,-0.801 -0.074,-0.281 -0.117,-0.566 -0.136,-0.852 -0.024,-0.289 -0.032,-0.562 -0.032,-0.824 0,-0.297 0.016,-0.598 0.051,-0.902 0.035,-0.305 0.094,-0.602 0.176,-0.895 0.086,-0.297 0.199,-0.578 0.348,-0.855 0.144,-0.274 0.328,-0.524 0.546,-0.754 l 0,-0.024 c 0.086,-0.097 0.18,-0.199 0.282,-0.304 0.105,-0.098 0.218,-0.196 0.336,-0.285 0.117,-0.09 0.246,-0.172 0.382,-0.231 0.133,-0.066 0.274,-0.109 0.426,-0.129 0.211,0.141 0.395,0.317 0.535,0.524 0.141,0.211 0.25,0.437 0.336,0.683 0.078,0.242 0.133,0.492 0.164,0.742 0.032,0.254 0.047,0.497 0.047,0.723 z m 12.883,-2.094 c 0.039,0 0.086,-0.023 0.145,-0.07 0.05,-0.047 0.105,-0.102 0.156,-0.164 0.058,-0.063 0.101,-0.121 0.14,-0.176 0.04,-0.058 0.055,-0.101 0.055,-0.129 0,-0.07 -0.09,-0.183 -0.269,-0.324 -0.176,-0.141 -0.383,-0.285 -0.618,-0.434 -0.234,-0.152 -0.46,-0.289 -0.675,-0.421 -0.215,-0.129 -0.364,-0.219 -0.446,-0.27 l -0.23,-0.019 c -0.203,0.105 -0.399,0.214 -0.586,0.339 -0.188,0.129 -0.344,0.266 -0.481,0.422 -0.132,0.157 -0.242,0.324 -0.324,0.512 -0.082,0.187 -0.121,0.391 -0.121,0.613 l 0,6.184 c -0.129,0.09 -0.25,0.176 -0.363,0.265 -0.117,0.086 -0.238,0.172 -0.367,0.262 l -1.856,-0.945 0,-7.195 c 0,-0.051 -0.023,-0.102 -0.07,-0.137 -0.047,-0.035 -0.098,-0.059 -0.152,-0.059 l -1.715,0 c -0.051,0 -0.102,0.024 -0.141,0.059 -0.039,0.035 -0.058,0.086 -0.058,0.137 l 0,7.41 c 0,0.136 -0.055,0.261 -0.168,0.383 -0.114,0.117 -0.247,0.175 -0.403,0.175 -0.148,0 -0.269,-0.05 -0.363,-0.144 -0.027,-0.012 -0.051,-0.024 -0.07,-0.031 -0.02,0 -0.047,-0.01 -0.075,-0.01 -0.058,0 -0.125,0.035 -0.199,0.105 -0.078,0.071 -0.137,0.125 -0.183,0.156 l -0.075,0.133 c 0,0.028 0.043,0.086 0.125,0.172 0.082,0.09 0.184,0.192 0.309,0.305 0.125,0.113 0.262,0.238 0.414,0.375 0.152,0.133 0.301,0.262 0.438,0.379 0.136,0.117 0.261,0.226 0.371,0.32 0.105,0.094 0.183,0.156 0.218,0.191 l 0.227,0.043 c 0.441,-0.175 0.785,-0.414 1.047,-0.707 0.254,-0.293 0.418,-0.652 0.484,-1.078 l 3.172,1.785 0.262,-0.019 2.027,-1.395 0.094,-0.168 c 0.008,-0.043 -0.02,-0.089 -0.082,-0.152 -0.059,-0.062 -0.133,-0.121 -0.211,-0.184 -0.086,-0.058 -0.168,-0.113 -0.25,-0.164 -0.082,-0.054 -0.145,-0.089 -0.188,-0.121 l 0,-6.41 c 0,-0.039 0,-0.086 0.004,-0.129 0.004,-0.047 0.016,-0.086 0.039,-0.121 0.016,-0.031 0.047,-0.047 0.09,-0.047 0.094,0 0.18,0.02 0.258,0.059 0.078,0.043 0.152,0.09 0.223,0.148 0.07,0.055 0.14,0.114 0.215,0.168 0.066,0.055 0.144,0.094 0.226,0.121 z m 6.145,0.067 c 0.039,0 0.086,-0.016 0.136,-0.055 0.047,-0.039 0.102,-0.082 0.153,-0.133 0.047,-0.054 0.09,-0.113 0.125,-0.164 0.035,-0.054 0.054,-0.101 0.062,-0.133 0,-0.039 -0.047,-0.101 -0.133,-0.183 -0.089,-0.078 -0.199,-0.172 -0.343,-0.278 -0.137,-0.105 -0.289,-0.214 -0.454,-0.328 -0.164,-0.117 -0.324,-0.226 -0.476,-0.332 -0.152,-0.101 -0.285,-0.195 -0.402,-0.277 -0.122,-0.082 -0.204,-0.141 -0.25,-0.172 l -0.235,0 -2.301,1.387 -0.113,0.183 c 0,0.028 0.031,0.071 0.086,0.133 0.059,0.059 0.125,0.125 0.199,0.192 0.075,0.066 0.149,0.132 0.219,0.191 0.07,0.063 0.121,0.105 0.149,0.133 l 0,6.062 c -0.059,0 -0.149,-0.01 -0.27,-0.019 -0.125,-0.016 -0.254,-0.02 -0.383,-0.016 -0.129,0 -0.242,0.02 -0.34,0.051 -0.093,0.027 -0.144,0.09 -0.144,0.187 l 0,0.61 c 0.047,0.086 0.14,0.152 0.285,0.199 0.141,0.051 0.301,0.109 0.473,0.18 0.175,0.07 0.351,0.172 0.535,0.304 0.179,0.129 0.328,0.329 0.453,0.582 0.078,0.184 0.152,0.379 0.211,0.59 0.062,0.207 0.113,0.426 0.156,0.645 0.043,0.226 0.082,0.445 0.117,0.664 0.031,0.215 0.067,0.422 0.102,0.613 0.012,0.043 0.043,0.078 0.082,0.11 0.047,0.031 0.086,0.054 0.117,0.074 l 0.578,0 c 0.152,0 0.227,-0.071 0.227,-0.211 l 0,-3.278 c 0.066,0 0.187,0.012 0.359,0.028 0.168,0.015 0.348,0.027 0.52,0.027 0.175,0 0.332,-0.019 0.468,-0.058 0.133,-0.036 0.204,-0.106 0.204,-0.207 0,-0.239 0,-0.426 0.003,-0.567 0,-0.14 -0.003,-0.254 -0.023,-0.336 -0.012,-0.078 -0.051,-0.133 -0.102,-0.16 -0.054,-0.031 -0.14,-0.043 -0.257,-0.047 -0.114,0 -0.266,0 -0.454,0.016 -0.191,0.012 -0.429,0.019 -0.718,0.019 l 0,-6.254 c 0.113,-0.062 0.222,-0.128 0.316,-0.203 0.098,-0.074 0.207,-0.14 0.32,-0.203 0.043,0.028 0.094,0.067 0.165,0.113 0.066,0.047 0.136,0.094 0.207,0.141 0.07,0.047 0.14,0.086 0.207,0.125 0.07,0.039 0.121,0.055 0.16,0.055 l 0.004,0 z m 10.043,-0.153 c 0.039,0 0.089,-0.019 0.14,-0.062 0.055,-0.043 0.106,-0.09 0.149,-0.149 0.043,-0.054 0.086,-0.105 0.113,-0.16 0.035,-0.054 0.055,-0.093 0.055,-0.121 0,-0.027 -0.043,-0.082 -0.121,-0.152 -0.083,-0.074 -0.188,-0.16 -0.317,-0.262 -0.129,-0.094 -0.269,-0.195 -0.422,-0.305 -0.152,-0.101 -0.297,-0.203 -0.433,-0.296 -0.141,-0.094 -0.266,-0.176 -0.375,-0.25 -0.114,-0.067 -0.188,-0.118 -0.231,-0.145 l -0.16,-0.039 c -0.187,0.027 -0.363,0.094 -0.527,0.195 -0.164,0.106 -0.309,0.231 -0.434,0.379 -0.129,0.145 -0.242,0.297 -0.332,0.461 -0.094,0.168 -0.16,0.328 -0.207,0.477 -0.395,-0.254 -0.785,-0.504 -1.184,-0.75 -0.394,-0.242 -0.793,-0.485 -1.199,-0.723 l -0.23,0 c -0.485,0.277 -0.879,0.606 -1.199,0.992 -0.317,0.387 -0.571,0.801 -0.766,1.246 -0.191,0.45 -0.328,0.918 -0.402,1.411 -0.082,0.496 -0.118,0.988 -0.118,1.48 0,1.262 0.301,2.328 0.903,3.195 0.601,0.871 1.531,1.563 2.793,2.078 l 0.183,0 c 0.11,-0.05 0.285,-0.117 0.528,-0.207 0.246,-0.093 0.515,-0.195 0.812,-0.304 0.297,-0.114 0.602,-0.231 0.918,-0.352 0.316,-0.125 0.602,-0.238 0.859,-0.351 0.262,-0.11 0.477,-0.211 0.641,-0.297 0.164,-0.086 0.246,-0.153 0.246,-0.196 0,-0.043 -0.035,-0.097 -0.109,-0.156 -0.074,-0.058 -0.156,-0.117 -0.25,-0.183 -0.09,-0.063 -0.172,-0.133 -0.246,-0.215 -0.075,-0.082 -0.114,-0.176 -0.114,-0.274 l 0,-5.84 c 0,-0.035 0.004,-0.074 0.008,-0.125 0.004,-0.043 0.012,-0.089 0.024,-0.14 0.015,-0.043 0.035,-0.086 0.062,-0.121 0.028,-0.032 0.067,-0.047 0.121,-0.047 0.121,0 0.239,0.023 0.352,0.078 0.117,0.055 0.219,0.117 0.305,0.195 0.07,0.028 0.121,0.035 0.164,0.035 z m -3.215,6.086 -2.176,0.934 c -0.141,-0.227 -0.258,-0.461 -0.344,-0.711 -0.082,-0.25 -0.148,-0.504 -0.191,-0.766 -0.043,-0.261 -0.071,-0.519 -0.086,-0.785 -0.012,-0.265 -0.02,-0.519 -0.02,-0.769 0,-0.129 0.012,-0.325 0.032,-0.578 0.019,-0.258 0.05,-0.543 0.097,-0.864 0.039,-0.316 0.098,-0.64 0.168,-0.972 0.074,-0.332 0.164,-0.633 0.27,-0.903 0.109,-0.269 0.234,-0.492 0.375,-0.668 0.14,-0.175 0.308,-0.265 0.496,-0.265 0.062,0 0.156,0.035 0.285,0.105 0.129,0.067 0.262,0.141 0.402,0.227 0.137,0.082 0.266,0.172 0.391,0.258 0.121,0.089 0.211,0.152 0.273,0.191 l 0.028,0 0,5.566 z m 9.398,1.348 c 0,-0.359 -0.012,-0.609 -0.035,-0.754 -0.023,-0.144 -0.094,-0.234 -0.211,-0.269 -0.121,-0.036 -0.301,-0.036 -0.543,0 -0.246,0.035 -0.59,0.05 -1.035,0.05 l 0,-6.375 c 0.102,-0.062 0.199,-0.125 0.293,-0.195 0.094,-0.066 0.199,-0.133 0.305,-0.199 0.043,0.023 0.093,0.066 0.156,0.121 0.066,0.051 0.133,0.105 0.203,0.156 0.07,0.051 0.141,0.094 0.203,0.129 0.063,0.039 0.117,0.055 0.156,0.055 0.043,0 0.09,-0.016 0.137,-0.059 0.051,-0.039 0.102,-0.09 0.141,-0.14 0.047,-0.055 0.082,-0.106 0.113,-0.165 0.031,-0.054 0.047,-0.093 0.047,-0.121 0,-0.039 -0.043,-0.101 -0.129,-0.183 -0.082,-0.09 -0.191,-0.18 -0.316,-0.285 -0.129,-0.11 -0.274,-0.215 -0.434,-0.332 -0.16,-0.114 -0.313,-0.223 -0.461,-0.321 -0.148,-0.105 -0.281,-0.195 -0.402,-0.273 -0.118,-0.086 -0.2,-0.145 -0.242,-0.176 l -0.27,0 c -0.383,0.238 -0.762,0.469 -1.145,0.699 -0.375,0.231 -0.757,0.453 -1.144,0.668 l -0.121,0.164 c 0,0.035 0.031,0.086 0.097,0.16 0.067,0.067 0.137,0.145 0.219,0.223 0.078,0.082 0.156,0.16 0.238,0.231 0.075,0.07 0.129,0.121 0.165,0.156 l 0,6.062 c -0.067,0 -0.172,-0.01 -0.313,-0.019 -0.144,-0.016 -0.285,-0.02 -0.43,-0.02 -0.144,0 -0.273,0.028 -0.382,0.059 -0.106,0.031 -0.161,0.098 -0.161,0.191 l 0,0.621 c 0,0.071 0.032,0.125 0.098,0.153 0.059,0.027 0.141,0.047 0.238,0.058 0.094,0.012 0.196,0.028 0.305,0.039 0.113,0.016 0.215,0.047 0.309,0.094 0.097,0.047 0.175,0.117 0.238,0.211 0.066,0.094 0.098,0.234 0.098,0.418 0,0.152 0.007,0.313 0.023,0.477 0.012,0.16 0.02,0.32 0.02,0.476 0,0.168 -0.024,0.301 -0.075,0.406 -0.043,0.098 -0.101,0.18 -0.175,0.231 -0.071,0.055 -0.153,0.094 -0.243,0.121 -0.093,0.027 -0.179,0.051 -0.261,0.078 -0.086,0.024 -0.168,0.055 -0.239,0.09 -0.078,0.035 -0.129,0.094 -0.164,0.18 0,0.054 0.004,0.109 0.012,0.164 0.008,0.058 0.02,0.113 0.043,0.164 0.023,0.051 0.059,0.09 0.102,0.121 0.042,0.031 0.101,0.043 0.179,0.043 0.133,0 0.285,-0.024 0.449,-0.078 0.168,-0.055 0.325,-0.078 0.481,-0.078 0.297,0 0.586,0.043 0.859,0.14 0.274,0.094 0.543,0.196 0.809,0.313 0.265,0.117 0.539,0.218 0.816,0.312 0.278,0.098 0.567,0.141 0.871,0.141 0.094,-0.035 0.168,-0.098 0.211,-0.176 0.051,-0.074 0.075,-0.16 0.075,-0.258 0,-0.039 -0.04,-0.082 -0.118,-0.133 -0.078,-0.043 -0.175,-0.101 -0.297,-0.171 -0.121,-0.067 -0.253,-0.145 -0.386,-0.231 -0.137,-0.09 -0.266,-0.191 -0.387,-0.309 -0.121,-0.121 -0.219,-0.253 -0.297,-0.402 -0.078,-0.148 -0.117,-0.316 -0.117,-0.5 l 0,-0.035 c 0.078,0.113 0.18,0.234 0.297,0.363 0.121,0.129 0.25,0.25 0.39,0.36 0.141,0.109 0.293,0.203 0.454,0.281 0.156,0.07 0.32,0.109 0.48,0.109 0.055,0 0.102,-0.019 0.145,-0.062 0.035,-0.039 0.058,-0.078 0.058,-0.121 l 0,-2.344 c 0,-0.051 -0.027,-0.098 -0.07,-0.145 -0.047,-0.043 -0.102,-0.066 -0.152,-0.066 -0.063,0 -0.118,0.027 -0.172,0.086 -0.055,0.059 -0.114,0.121 -0.176,0.191 -0.059,0.075 -0.125,0.141 -0.199,0.196 -0.075,0.058 -0.161,0.086 -0.254,0.086 -0.215,0 -0.383,-0.067 -0.496,-0.196 -0.114,-0.125 -0.203,-0.277 -0.254,-0.445 0.066,0 0.199,0.012 0.394,0.027 0.199,0.02 0.395,0.024 0.598,0.024 0.203,0 0.387,-0.016 0.543,-0.055 0.156,-0.039 0.238,-0.105 0.238,-0.207 z m 5.828,-7.281 c 0.043,0 0.086,-0.016 0.141,-0.055 0.047,-0.039 0.098,-0.082 0.152,-0.133 0.047,-0.054 0.09,-0.113 0.121,-0.164 0.036,-0.054 0.059,-0.101 0.063,-0.133 0,-0.039 -0.043,-0.101 -0.129,-0.183 -0.09,-0.078 -0.203,-0.172 -0.344,-0.278 -0.136,-0.105 -0.289,-0.214 -0.453,-0.328 -0.164,-0.117 -0.324,-0.226 -0.476,-0.332 -0.153,-0.101 -0.29,-0.195 -0.407,-0.277 -0.117,-0.082 -0.199,-0.141 -0.25,-0.172 l -0.23,0 -2.301,1.387 -0.113,0.183 c 0,0.028 0.031,0.071 0.086,0.133 0.058,0.059 0.125,0.125 0.195,0.192 0.078,0.066 0.152,0.132 0.219,0.191 0.074,0.063 0.121,0.105 0.148,0.133 l 0,6.062 c -0.054,0 -0.144,-0.01 -0.269,-0.019 -0.125,-0.016 -0.25,-0.02 -0.379,-0.016 -0.129,0 -0.242,0.02 -0.34,0.051 -0.098,0.027 -0.145,0.09 -0.145,0.187 l 0,0.61 c 0.043,0.086 0.141,0.152 0.282,0.199 0.144,0.051 0.3,0.109 0.476,0.18 0.176,0.07 0.352,0.172 0.531,0.304 0.18,0.129 0.329,0.329 0.454,0.582 0.082,0.184 0.152,0.379 0.21,0.59 0.063,0.207 0.114,0.426 0.161,0.645 0.043,0.226 0.078,0.445 0.113,0.664 0.035,0.215 0.07,0.422 0.105,0.613 0.008,0.043 0.039,0.078 0.082,0.11 0.047,0.031 0.082,0.054 0.118,0.074 l 0.578,0 c 0.148,0 0.226,-0.071 0.226,-0.211 l 0,-3.278 c 0.063,0 0.184,0.012 0.36,0.028 0.168,0.015 0.343,0.027 0.519,0.027 0.176,0 0.332,-0.019 0.465,-0.058 0.137,-0.036 0.203,-0.106 0.203,-0.207 0,-0.239 0,-0.426 0.004,-0.567 0.004,-0.14 -0.004,-0.254 -0.019,-0.336 -0.016,-0.078 -0.051,-0.133 -0.106,-0.16 -0.055,-0.031 -0.137,-0.043 -0.254,-0.047 -0.113,0 -0.265,0 -0.453,0.016 -0.191,0.012 -0.43,0.019 -0.719,0.019 l 0,-6.254 c 0.114,-0.062 0.219,-0.128 0.317,-0.203 0.097,-0.074 0.203,-0.14 0.32,-0.203 0.039,0.028 0.09,0.067 0.16,0.113 0.07,0.047 0.141,0.094 0.207,0.141 0.074,0.047 0.145,0.086 0.207,0.125 0.071,0.039 0.121,0.055 0.164,0.055 z"
         style="fill:#151616;fill-opacity:1;fill-rule:evenodd;stroke:none"
         id="path3862"
         inkscape:connector-curvature="0" />
      <path
         d="m 635.766,999.968 c 0,-0.887 -0.188,-1.723 -0.575,-2.508 -0.379,-0.789 -0.898,-1.48 -1.55,-2.074 -0.661,-0.594 -1.418,-1.07 -2.282,-1.414 -0.863,-0.352 -1.785,-0.524 -2.757,-0.524 -1.082,0 -2.024,0.184 -2.825,0.555 -0.8,0.367 -1.465,0.863 -1.992,1.488 -0.527,0.625 -0.922,1.344 -1.18,2.165 -0.257,0.816 -0.39,1.675 -0.39,2.574 0,0.636 0.086,1.246 0.262,1.832 0.175,0.586 0.425,1.129 0.75,1.636 0.328,0.504 0.714,0.969 1.171,1.383 0.457,0.414 0.961,0.774 1.516,1.071 0.555,0.296 1.152,0.523 1.797,0.687 0.637,0.164 1.312,0.242 2.016,0.242 0.101,0 0.168,-0.074 0.207,-0.222 0.039,-0.149 0.054,-0.321 0.054,-0.516 0,-0.195 -0.008,-0.387 -0.019,-0.574 -0.016,-0.184 -0.02,-0.313 -0.02,-0.391 0.067,0.063 0.184,0.168 0.336,0.313 0.16,0.144 0.332,0.293 0.504,0.449 0.176,0.156 0.344,0.293 0.508,0.414 0.164,0.117 0.277,0.176 0.348,0.176 l 0.046,0 c 0.711,-0.328 1.321,-0.731 1.832,-1.211 0.516,-0.485 0.938,-1.024 1.274,-1.613 0.328,-0.594 0.574,-1.223 0.73,-1.891 0.161,-0.672 0.239,-1.352 0.239,-2.047 z m -2.551,-0.934 c 0,0.473 -0.039,0.977 -0.11,1.524 -0.07,0.539 -0.195,1.062 -0.378,1.574 -0.184,0.512 -0.43,0.981 -0.747,1.418 -0.312,0.434 -0.714,0.785 -1.199,1.039 l -0.172,0.024 c -0.441,0 -0.66,-0.211 -0.66,-0.622 l 0,-7.726 c 0,-0.207 -0.082,-0.402 -0.242,-0.578 -0.152,-0.172 -0.348,-0.332 -0.574,-0.473 -0.227,-0.141 -0.461,-0.266 -0.711,-0.379 -0.246,-0.105 -0.457,-0.187 -0.633,-0.25 0.176,-0.054 0.356,-0.09 0.539,-0.113 0.18,-0.02 0.367,-0.031 0.559,-0.031 0.687,0 1.301,0.132 1.836,0.39 0.539,0.262 0.992,0.606 1.359,1.035 0.367,0.43 0.652,0.918 0.84,1.473 0.195,0.551 0.293,1.113 0.293,1.695 z m -5.731,6.762 c -0.406,-0.074 -0.754,-0.223 -1.046,-0.441 -0.297,-0.223 -0.547,-0.485 -0.747,-0.797 -0.203,-0.309 -0.367,-0.652 -0.492,-1.027 -0.125,-0.375 -0.219,-0.758 -0.289,-1.141 -0.066,-0.383 -0.109,-0.766 -0.137,-1.141 -0.023,-0.375 -0.035,-0.715 -0.035,-1.019 0,-0.426 0.028,-0.887 0.082,-1.395 0.055,-0.5 0.16,-0.996 0.317,-1.48 0.152,-0.481 0.367,-0.93 0.64,-1.344 0.274,-0.418 0.629,-0.75 1.071,-0.992 0.156,0.078 0.273,0.152 0.359,0.234 0.082,0.082 0.145,0.172 0.188,0.27 0.043,0.097 0.066,0.203 0.074,0.316 0.011,0.117 0.015,0.246 0.015,0.387 l 0,9.57 z m 28.547,0.477 c 0.067,0 0.145,-0.043 0.235,-0.121 0.093,-0.082 0.168,-0.145 0.218,-0.184 l 0.075,-0.152 c 0,-0.063 -0.055,-0.137 -0.164,-0.227 -0.106,-0.086 -0.243,-0.187 -0.403,-0.308 -0.164,-0.122 -0.336,-0.262 -0.523,-0.415 -0.188,-0.152 -0.36,-0.316 -0.524,-0.5 -0.164,-0.183 -0.297,-0.382 -0.402,-0.601 -0.109,-0.211 -0.164,-0.445 -0.164,-0.688 l 0,-7.347 c 0,-0.055 0.004,-0.114 0.012,-0.18 0.004,-0.062 0.019,-0.125 0.043,-0.18 0.023,-0.058 0.058,-0.109 0.101,-0.144 0.043,-0.035 0.106,-0.055 0.188,-0.055 0.129,0 0.246,0.024 0.363,0.078 0.109,0.047 0.211,0.11 0.297,0.188 l 0.172,0.058 c 0.035,0 0.074,-0.019 0.121,-0.058 0.047,-0.043 0.094,-0.09 0.14,-0.145 0.051,-0.054 0.086,-0.105 0.118,-0.16 0.031,-0.059 0.046,-0.09 0.046,-0.113 0,-0.028 -0.046,-0.078 -0.136,-0.153 -0.09,-0.074 -0.211,-0.16 -0.352,-0.261 -0.14,-0.106 -0.297,-0.211 -0.469,-0.324 -0.175,-0.114 -0.339,-0.227 -0.496,-0.329 -0.16,-0.109 -0.3,-0.203 -0.429,-0.285 -0.125,-0.086 -0.211,-0.144 -0.254,-0.179 l -0.266,0 c -0.582,0.332 -1.004,0.75 -1.269,1.253 -0.262,0.504 -0.395,1.059 -0.395,1.676 l 0,5.434 c 0,0.23 0.059,0.461 0.176,0.695 0.113,0.231 0.258,0.461 0.426,0.676 0.175,0.223 0.359,0.426 0.562,0.621 0.195,0.195 0.383,0.359 0.559,0.5 l -2.289,1.059 -2.805,-1.766 0,-6.141 c 0,-0.179 -0.035,-0.339 -0.098,-0.488 -0.066,-0.148 -0.152,-0.285 -0.265,-0.41 -0.114,-0.125 -0.242,-0.238 -0.387,-0.34 -0.145,-0.101 -0.293,-0.191 -0.449,-0.273 0.086,-0.039 0.23,-0.106 0.429,-0.2 0.2,-0.089 0.411,-0.183 0.633,-0.285 0.227,-0.093 0.438,-0.183 0.637,-0.254 0.199,-0.078 0.336,-0.113 0.41,-0.113 0.113,0 0.223,0.031 0.324,0.086 0.102,0.059 0.192,0.125 0.262,0.195 l 0.164,0.063 c 0.039,0 0.086,-0.016 0.141,-0.051 0.054,-0.031 0.105,-0.078 0.152,-0.125 0.047,-0.051 0.086,-0.105 0.121,-0.152 0.035,-0.051 0.055,-0.094 0.063,-0.129 0,-0.035 -0.047,-0.09 -0.141,-0.172 -0.098,-0.078 -0.219,-0.168 -0.367,-0.274 -0.149,-0.101 -0.313,-0.207 -0.484,-0.324 -0.176,-0.113 -0.352,-0.222 -0.512,-0.324 -0.168,-0.102 -0.317,-0.191 -0.446,-0.273 -0.125,-0.082 -0.214,-0.133 -0.261,-0.161 l -0.254,-0.023 c -0.074,0.035 -0.211,0.094 -0.41,0.184 -0.2,0.089 -0.422,0.187 -0.676,0.3 -0.25,0.11 -0.512,0.227 -0.785,0.356 -0.274,0.125 -0.524,0.242 -0.75,0.359 -0.227,0.114 -0.41,0.215 -0.559,0.305 -0.144,0.086 -0.215,0.144 -0.215,0.18 0,0.046 0.032,0.097 0.086,0.14 0.059,0.051 0.125,0.11 0.215,0.176 0.082,0.066 0.176,0.152 0.274,0.25 0.105,0.105 0.195,0.23 0.281,0.379 0.082,0.148 0.156,0.32 0.211,0.523 0.058,0.207 0.086,0.45 0.086,0.731 l 0,6.597 c 0,0.145 -0.008,0.293 -0.028,0.446 -0.019,0.152 -0.066,0.289 -0.125,0.418 -0.066,0.129 -0.156,0.234 -0.273,0.32 -0.113,0.086 -0.266,0.133 -0.453,0.149 -0.028,-0.016 -0.074,-0.047 -0.137,-0.098 -0.066,-0.051 -0.133,-0.106 -0.203,-0.156 -0.07,-0.055 -0.137,-0.106 -0.192,-0.141 -0.058,-0.043 -0.097,-0.063 -0.117,-0.063 -0.086,0 -0.175,0.036 -0.261,0.118 -0.09,0.074 -0.168,0.14 -0.239,0.195 l -0.066,0.145 c 0,0.027 0.051,0.085 0.152,0.175 0.11,0.094 0.242,0.196 0.399,0.313 0.156,0.117 0.332,0.246 0.519,0.383 0.192,0.132 0.375,0.261 0.551,0.382 0.172,0.122 0.328,0.231 0.461,0.321 0.129,0.09 0.223,0.152 0.269,0.187 l 0.262,0.024 c 0.258,-0.145 0.504,-0.293 0.735,-0.446 0.234,-0.152 0.441,-0.32 0.621,-0.504 0.183,-0.187 0.332,-0.394 0.453,-0.621 0.121,-0.226 0.191,-0.484 0.219,-0.773 0.582,0.398 1.168,0.785 1.75,1.16 0.589,0.371 1.175,0.762 1.757,1.156 l 0.235,0.024 c 0.078,-0.031 0.195,-0.086 0.351,-0.156 0.157,-0.075 0.325,-0.157 0.508,-0.25 0.18,-0.094 0.375,-0.192 0.57,-0.286 0.204,-0.101 0.391,-0.191 0.567,-0.273 0.176,-0.078 0.332,-0.149 0.465,-0.203 0.136,-0.051 0.234,-0.078 0.297,-0.078 0.125,0 0.234,0.015 0.32,0.054 0.09,0.039 0.168,0.078 0.238,0.133 0.074,0.051 0.145,0.098 0.207,0.153 0.07,0.05 0.149,0.089 0.246,0.117 z m 9.864,-10.879 c 0.039,0 0.089,-0.02 0.14,-0.067 0.055,-0.039 0.106,-0.089 0.149,-0.144 0.043,-0.055 0.082,-0.11 0.113,-0.164 0.035,-0.055 0.055,-0.094 0.055,-0.121 0,-0.028 -0.043,-0.078 -0.122,-0.153 -0.085,-0.07 -0.187,-0.156 -0.316,-0.257 -0.129,-0.098 -0.269,-0.2 -0.422,-0.305 -0.152,-0.106 -0.297,-0.203 -0.437,-0.297 -0.137,-0.094 -0.262,-0.176 -0.371,-0.25 -0.114,-0.07 -0.188,-0.117 -0.231,-0.145 l -0.16,-0.043 c -0.188,0.028 -0.363,0.094 -0.527,0.2 -0.164,0.101 -0.309,0.23 -0.438,0.375 -0.125,0.144 -0.238,0.297 -0.328,0.465 -0.094,0.164 -0.16,0.324 -0.207,0.472 -0.395,-0.25 -0.785,-0.5 -1.184,-0.746 -0.394,-0.246 -0.797,-0.488 -1.199,-0.723 l -0.234,0 c -0.481,0.278 -0.879,0.606 -1.196,0.993 -0.32,0.382 -0.57,0.8 -0.765,1.246 -0.192,0.445 -0.328,0.918 -0.403,1.406 -0.082,0.496 -0.121,0.992 -0.121,1.484 0,1.262 0.301,2.328 0.907,3.196 0.601,0.867 1.531,1.558 2.793,2.074 l 0.183,0 c 0.11,-0.047 0.285,-0.117 0.528,-0.207 0.246,-0.094 0.515,-0.192 0.812,-0.305 0.297,-0.113 0.602,-0.226 0.918,-0.347 0.313,-0.125 0.602,-0.239 0.859,-0.356 0.262,-0.109 0.477,-0.211 0.641,-0.297 0.164,-0.086 0.246,-0.152 0.246,-0.191 0,-0.047 -0.035,-0.098 -0.109,-0.156 -0.074,-0.059 -0.157,-0.118 -0.25,-0.184 -0.09,-0.063 -0.172,-0.137 -0.246,-0.219 -0.075,-0.078 -0.114,-0.172 -0.114,-0.273 l 0,-5.836 c 0,-0.035 0.004,-0.078 0.008,-0.125 0,-0.047 0.008,-0.094 0.024,-0.141 0.011,-0.047 0.035,-0.086 0.062,-0.121 0.027,-0.031 0.067,-0.051 0.121,-0.051 0.121,0 0.238,0.024 0.352,0.082 0.117,0.055 0.219,0.118 0.304,0.192 0.071,0.027 0.122,0.039 0.165,0.039 z m -3.215,6.082 -2.176,0.933 c -0.145,-0.222 -0.258,-0.461 -0.344,-0.707 -0.082,-0.25 -0.148,-0.507 -0.191,-0.765 -0.043,-0.262 -0.071,-0.524 -0.086,-0.785 -0.012,-0.266 -0.02,-0.524 -0.02,-0.774 0,-0.125 0.008,-0.32 0.032,-0.578 0.019,-0.254 0.05,-0.543 0.097,-0.859 0.039,-0.321 0.098,-0.645 0.168,-0.973 0.074,-0.332 0.164,-0.633 0.27,-0.902 0.109,-0.27 0.23,-0.496 0.375,-0.668 0.14,-0.176 0.308,-0.266 0.496,-0.266 0.062,0 0.156,0.035 0.285,0.102 0.129,0.066 0.262,0.144 0.402,0.23 0.137,0.082 0.266,0.168 0.391,0.254 0.121,0.09 0.211,0.152 0.273,0.195 l 0.028,0 0,5.563 z m 11.871,0.629 c -0.059,-0.059 -0.168,-0.16 -0.321,-0.309 -0.152,-0.144 -0.308,-0.293 -0.476,-0.445 -0.164,-0.153 -0.324,-0.285 -0.481,-0.403 -0.156,-0.113 -0.265,-0.171 -0.335,-0.171 -0.016,0 -0.094,0.039 -0.247,0.109 -0.152,0.07 -0.339,0.156 -0.558,0.262 -0.219,0.105 -0.457,0.222 -0.723,0.347 -0.258,0.121 -0.5,0.243 -0.726,0.356 -0.227,0.109 -0.426,0.207 -0.586,0.285 -0.168,0.086 -0.266,0.133 -0.301,0.152 -0.164,-0.187 -0.277,-0.394 -0.352,-0.617 -0.066,-0.223 -0.105,-0.453 -0.105,-0.691 0,-0.196 0.07,-0.364 0.219,-0.5 0.144,-0.137 0.336,-0.262 0.574,-0.375 0.234,-0.114 0.504,-0.215 0.805,-0.309 0.3,-0.094 0.609,-0.195 0.921,-0.305 0.313,-0.109 0.621,-0.23 0.922,-0.363 0.301,-0.137 0.567,-0.297 0.809,-0.48 0.234,-0.188 0.426,-0.407 0.57,-0.657 0.145,-0.25 0.219,-0.546 0.219,-0.89 0,-0.461 -0.094,-0.863 -0.27,-1.207 -0.179,-0.344 -0.414,-0.656 -0.703,-0.934 -0.293,-0.281 -0.617,-0.535 -0.972,-0.765 -0.36,-0.235 -0.715,-0.469 -1.067,-0.707 l -0.191,-0.02 c -0.317,0.094 -0.625,0.219 -0.922,0.371 -0.297,0.149 -0.602,0.297 -0.902,0.445 -0.305,0.145 -0.614,0.274 -0.93,0.375 -0.313,0.106 -0.649,0.157 -0.996,0.157 -0.055,0.019 -0.114,0.054 -0.18,0.109 -0.062,0.051 -0.098,0.102 -0.098,0.156 0,0.051 0.071,0.137 0.204,0.266 0.128,0.125 0.281,0.266 0.453,0.414 0.172,0.148 0.336,0.285 0.492,0.414 0.152,0.133 0.262,0.219 0.312,0.266 l 0.258,0.039 3.352,-1.481 c 0.176,0.137 0.336,0.297 0.472,0.485 0.141,0.183 0.207,0.39 0.207,0.621 0,0.265 -0.074,0.488 -0.226,0.676 -0.152,0.183 -0.356,0.351 -0.606,0.496 -0.25,0.144 -0.535,0.277 -0.855,0.398 -0.32,0.117 -0.649,0.238 -0.984,0.363 -0.332,0.125 -0.665,0.258 -0.985,0.399 -0.316,0.144 -0.605,0.308 -0.855,0.504 -0.25,0.191 -0.449,0.418 -0.602,0.675 -0.152,0.262 -0.226,0.575 -0.226,0.93 0,0.36 0.101,0.703 0.316,1.035 0.211,0.332 0.477,0.641 0.789,0.926 0.316,0.289 0.656,0.547 1.016,0.781 0.363,0.235 0.695,0.434 1,0.602 l 0.215,0 c 0.218,-0.113 0.48,-0.246 0.773,-0.402 0.293,-0.157 0.594,-0.305 0.906,-0.45 0.313,-0.14 0.621,-0.261 0.926,-0.363 0.309,-0.102 0.586,-0.152 0.84,-0.152 l 0.129,-0.114 0.082,-0.304 z"
         style="fill:#151616;fill-opacity:1;fill-rule:evenodd;stroke:none"
         id="path3864"
         inkscape:connector-curvature="0" />
      <path
         d="m 562.336,980.855 c 0,-0.36 -0.059,-0.727 -0.176,-1.098 -0.113,-0.379 -0.254,-0.742 -0.422,-1.098 -0.172,-0.351 -0.355,-0.695 -0.55,-1.019 -0.204,-0.332 -0.387,-0.633 -0.555,-0.902 -0.168,-0.27 -0.313,-0.5 -0.426,-0.7 -0.113,-0.191 -0.172,-0.336 -0.172,-0.433 0,-0.172 0.043,-0.328 0.137,-0.473 0.09,-0.144 0.191,-0.293 0.297,-0.437 0.109,-0.149 0.211,-0.305 0.301,-0.469 0.089,-0.16 0.136,-0.344 0.136,-0.547 0,-0.137 -0.035,-0.262 -0.101,-0.379 -0.067,-0.121 -0.157,-0.227 -0.27,-0.316 -0.109,-0.094 -0.234,-0.164 -0.371,-0.219 -0.141,-0.055 -0.281,-0.082 -0.426,-0.082 -0.242,0 -0.445,0.047 -0.609,0.129 -0.168,0.082 -0.297,0.195 -0.395,0.328 -0.101,0.137 -0.172,0.293 -0.207,0.473 -0.043,0.179 -0.062,0.363 -0.062,0.562 0,0.367 0.031,0.711 0.105,1.043 0.071,0.332 0.16,0.66 0.266,0.984 0.113,0.325 0.226,0.653 0.348,0.985 0.121,0.332 0.234,0.676 0.343,1.031 0.11,0.359 0.2,0.734 0.27,1.133 0.07,0.394 0.105,0.824 0.105,1.281 0,0.184 -0.023,0.399 -0.07,0.641 -0.047,0.242 -0.117,0.488 -0.203,0.75 -0.09,0.254 -0.195,0.511 -0.328,0.765 -0.133,0.25 -0.285,0.477 -0.457,0.672 -0.172,0.196 -0.367,0.356 -0.578,0.477 -0.215,0.125 -0.446,0.183 -0.696,0.183 -0.175,0 -0.343,-0.031 -0.515,-0.097 -0.168,-0.063 -0.336,-0.145 -0.496,-0.235 -0.164,-0.09 -0.325,-0.183 -0.485,-0.273 -0.156,-0.09 -0.312,-0.168 -0.469,-0.227 l 0,-3.468 c 0,-0.309 -0.105,-0.582 -0.312,-0.817 -0.203,-0.23 -0.449,-0.418 -0.731,-0.551 0.055,-0.019 0.141,-0.054 0.262,-0.105 0.121,-0.051 0.258,-0.106 0.41,-0.168 0.153,-0.059 0.313,-0.125 0.481,-0.199 0.172,-0.067 0.328,-0.129 0.473,-0.188 0.144,-0.054 0.273,-0.097 0.386,-0.136 0.11,-0.036 0.188,-0.055 0.227,-0.055 0.101,0 0.195,0.019 0.277,0.055 0.086,0.039 0.164,0.085 0.238,0.148 l 0.145,0.07 c 0.066,0 0.144,-0.039 0.23,-0.113 0.09,-0.082 0.157,-0.141 0.204,-0.18 l 0.058,-0.144 c 0,-0.031 -0.047,-0.094 -0.148,-0.18 -0.102,-0.09 -0.231,-0.187 -0.391,-0.293 -0.156,-0.109 -0.332,-0.226 -0.523,-0.348 -0.188,-0.121 -0.368,-0.234 -0.543,-0.339 -0.172,-0.114 -0.328,-0.211 -0.465,-0.293 -0.141,-0.082 -0.231,-0.137 -0.278,-0.164 l -0.246,-0.024 c -0.07,0.035 -0.207,0.094 -0.406,0.184 -0.191,0.086 -0.418,0.187 -0.672,0.297 -0.254,0.113 -0.515,0.23 -0.789,0.359 -0.273,0.125 -0.527,0.242 -0.754,0.359 -0.234,0.114 -0.418,0.215 -0.57,0.301 -0.148,0.09 -0.223,0.149 -0.223,0.184 0,0.07 0.059,0.14 0.176,0.222 0.121,0.082 0.25,0.204 0.387,0.364 0.14,0.156 0.265,0.363 0.387,0.613 0.117,0.258 0.175,0.59 0.175,1 l 0,6.805 c 0,0.125 -0.031,0.234 -0.093,0.316 -0.067,0.082 -0.145,0.152 -0.247,0.207 -0.097,0.055 -0.203,0.098 -0.32,0.133 -0.113,0.035 -0.219,0.066 -0.316,0.098 -0.102,0.031 -0.18,0.066 -0.246,0.109 -0.063,0.043 -0.098,0.105 -0.098,0.18 0,0.046 0.008,0.097 0.02,0.156 0.007,0.058 0.027,0.109 0.054,0.164 0.028,0.047 0.063,0.09 0.106,0.121 0.043,0.035 0.101,0.055 0.168,0.055 0.433,0 0.824,0.035 1.175,0.097 0.352,0.071 0.684,0.157 1,0.262 0.313,0.102 0.618,0.219 0.911,0.336 0.293,0.117 0.601,0.227 0.921,0.332 0.325,0.106 0.668,0.191 1.047,0.258 0.375,0.07 0.797,0.101 1.258,0.101 0.113,0 0.25,-0.019 0.422,-0.054 0.176,-0.035 0.359,-0.086 0.555,-0.153 0.195,-0.062 0.39,-0.144 0.593,-0.234 0.2,-0.09 0.375,-0.187 0.536,-0.293 0.16,-0.102 0.285,-0.215 0.386,-0.336 0.098,-0.117 0.145,-0.238 0.145,-0.359 0,-0.024 -0.051,-0.063 -0.152,-0.11 -0.098,-0.05 -0.227,-0.101 -0.383,-0.156 -0.157,-0.058 -0.324,-0.117 -0.512,-0.18 -0.188,-0.058 -0.363,-0.113 -0.531,-0.16 -0.172,-0.047 -0.321,-0.086 -0.453,-0.117 -0.129,-0.031 -0.215,-0.047 -0.258,-0.047 -0.043,0 -0.078,0.016 -0.102,0.047 -0.027,0.031 -0.047,0.063 -0.062,0.098 -0.063,0.168 -0.125,0.308 -0.188,0.429 -0.062,0.118 -0.144,0.211 -0.242,0.289 -0.098,0.075 -0.215,0.129 -0.355,0.165 -0.137,0.039 -0.309,0.058 -0.512,0.058 -0.277,0 -0.52,-0.047 -0.731,-0.137 -0.207,-0.093 -0.382,-0.218 -0.523,-0.375 -0.145,-0.16 -0.254,-0.343 -0.328,-0.55 -0.07,-0.211 -0.11,-0.43 -0.11,-0.661 l 0,-2.179 c 0.528,0.301 1.047,0.605 1.551,0.906 0.504,0.301 1.028,0.602 1.559,0.898 l 0.207,0.02 c 0.578,-0.258 1.086,-0.574 1.516,-0.945 0.425,-0.379 0.781,-0.797 1.058,-1.262 0.281,-0.461 0.492,-0.957 0.633,-1.496 0.137,-0.531 0.207,-1.086 0.207,-1.66 z m 9.621,0.332 c 0,-0.442 -0.035,-0.879 -0.102,-1.301 -0.066,-0.422 -0.183,-0.824 -0.355,-1.207 -0.168,-0.379 -0.395,-0.734 -0.676,-1.07 -0.285,-0.328 -0.644,-0.621 -1.078,-0.879 -0.058,-0.032 -0.176,-0.106 -0.344,-0.211 -0.168,-0.11 -0.351,-0.219 -0.543,-0.332 -0.191,-0.114 -0.371,-0.211 -0.535,-0.293 -0.164,-0.086 -0.273,-0.125 -0.32,-0.117 -0.633,0.164 -1.195,0.406 -1.68,0.73 -0.48,0.324 -0.886,0.711 -1.211,1.156 -0.32,0.446 -0.566,0.938 -0.734,1.473 -0.164,0.535 -0.25,1.098 -0.25,1.68 0,0.699 0.086,1.324 0.242,1.863 0.164,0.539 0.41,1.023 0.738,1.457 0.329,0.43 0.739,0.809 1.231,1.148 0.492,0.34 1.07,0.653 1.734,0.954 0.676,-0.086 1.258,-0.297 1.746,-0.625 0.485,-0.325 0.883,-0.727 1.203,-1.192 0.317,-0.473 0.555,-0.988 0.707,-1.547 0.153,-0.562 0.227,-1.121 0.227,-1.687 z m -2.059,-1.285 c 0,0.461 -0.043,0.933 -0.121,1.421 -0.078,0.485 -0.222,0.95 -0.422,1.387 -0.199,0.442 -0.468,0.836 -0.804,1.192 -0.336,0.355 -0.762,0.632 -1.278,0.836 -0.222,-0.184 -0.398,-0.403 -0.535,-0.653 -0.129,-0.254 -0.23,-0.523 -0.3,-0.804 -0.071,-0.282 -0.118,-0.563 -0.137,-0.852 -0.02,-0.285 -0.031,-0.559 -0.031,-0.82 0,-0.301 0.015,-0.602 0.05,-0.907 0.035,-0.304 0.094,-0.601 0.176,-0.894 0.09,-0.293 0.203,-0.578 0.348,-0.856 0.144,-0.273 0.328,-0.523 0.551,-0.754 l 0,-0.019 c 0.082,-0.102 0.175,-0.203 0.281,-0.305 0.101,-0.101 0.215,-0.199 0.332,-0.289 0.121,-0.09 0.246,-0.168 0.383,-0.23 0.132,-0.067 0.277,-0.11 0.425,-0.129 0.215,0.14 0.395,0.32 0.536,0.527 0.14,0.211 0.253,0.434 0.336,0.68 0.078,0.242 0.136,0.492 0.167,0.746 0.028,0.25 0.043,0.492 0.043,0.723 z m 17.489,-2.204 c 0.051,0 0.109,-0.019 0.168,-0.062 0.062,-0.043 0.121,-0.094 0.172,-0.152 0.054,-0.055 0.101,-0.118 0.14,-0.176 0.035,-0.063 0.055,-0.11 0.055,-0.145 0,-0.019 -0.043,-0.066 -0.129,-0.129 -0.082,-0.07 -0.191,-0.152 -0.32,-0.242 -0.137,-0.09 -0.282,-0.187 -0.438,-0.293 -0.16,-0.101 -0.312,-0.203 -0.457,-0.297 -0.144,-0.097 -0.273,-0.179 -0.387,-0.25 -0.109,-0.07 -0.187,-0.117 -0.226,-0.136 l -0.203,-0.024 c -0.313,0.106 -0.567,0.242 -0.77,0.426 -0.203,0.18 -0.363,0.379 -0.48,0.605 -0.121,0.227 -0.203,0.473 -0.25,0.731 -0.047,0.262 -0.071,0.527 -0.071,0.797 l 0,5.515 c -0.113,0.086 -0.234,0.168 -0.355,0.254 -0.121,0.078 -0.246,0.164 -0.375,0.25 -0.313,-0.156 -0.617,-0.316 -0.922,-0.492 -0.305,-0.172 -0.617,-0.332 -0.934,-0.488 l 0,-7.141 c 0,-0.062 -0.023,-0.113 -0.07,-0.144 -0.051,-0.032 -0.097,-0.043 -0.152,-0.043 l -1.766,0 c -0.051,0 -0.101,0.011 -0.148,0.043 -0.047,0.031 -0.074,0.082 -0.074,0.144 l 0,7.453 c 0,0.082 -0.004,0.168 -0.024,0.266 -0.016,0.094 -0.047,0.184 -0.094,0.262 -0.039,0.078 -0.097,0.148 -0.168,0.203 -0.074,0.051 -0.164,0.082 -0.269,0.082 -0.063,-0.035 -0.192,-0.102 -0.387,-0.199 -0.195,-0.098 -0.398,-0.203 -0.613,-0.317 -0.211,-0.109 -0.406,-0.211 -0.578,-0.297 -0.172,-0.089 -0.262,-0.132 -0.278,-0.14 l 0,-7.313 c 0,-0.062 -0.027,-0.113 -0.082,-0.144 -0.05,-0.032 -0.109,-0.043 -0.164,-0.043 l -1.75,0 c -0.054,0 -0.105,0.015 -0.14,0.054 -0.043,0.04 -0.063,0.082 -0.063,0.133 l 0,7.574 c 0,0.149 -0.047,0.258 -0.14,0.321 -0.09,0.066 -0.215,0.097 -0.368,0.097 -0.066,0 -0.129,-0.015 -0.187,-0.043 -0.059,-0.027 -0.11,-0.058 -0.156,-0.101 l -0.153,-0.082 c -0.086,0 -0.152,0.035 -0.195,0.105 -0.035,0.063 -0.082,0.121 -0.129,0.161 l 0.039,-0.063 c -0.035,0.035 -0.066,0.074 -0.098,0.113 -0.035,0.039 -0.054,0.082 -0.054,0.121 0,0.032 0.039,0.094 0.113,0.184 0.074,0.09 0.172,0.187 0.289,0.301 0.117,0.117 0.246,0.242 0.383,0.367 0.141,0.129 0.273,0.25 0.406,0.363 0.133,0.121 0.254,0.219 0.36,0.313 0.109,0.09 0.187,0.156 0.234,0.199 0.055,0.027 0.105,0.039 0.152,0.039 0.121,0 0.266,-0.066 0.442,-0.195 0.172,-0.133 0.339,-0.293 0.504,-0.477 0.168,-0.18 0.312,-0.367 0.437,-0.547 0.125,-0.187 0.199,-0.336 0.215,-0.445 l 3.086,1.664 0.25,-0.02 c 0.144,-0.101 0.289,-0.218 0.433,-0.355 0.145,-0.137 0.282,-0.277 0.407,-0.426 0.125,-0.148 0.234,-0.304 0.328,-0.472 0.097,-0.164 0.168,-0.329 0.222,-0.493 0.465,0.239 0.926,0.485 1.375,0.746 0.45,0.262 0.907,0.516 1.375,0.77 l -0.031,0 0.414,0.23 0.262,0 2.051,-1.386 0.09,-0.176 c 0.007,-0.047 -0.024,-0.102 -0.09,-0.164 -0.071,-0.059 -0.149,-0.117 -0.239,-0.176 -0.089,-0.058 -0.183,-0.113 -0.277,-0.164 -0.097,-0.051 -0.164,-0.09 -0.207,-0.117 l 0,-6.317 c 0,-0.027 0,-0.058 0.004,-0.097 0.004,-0.043 0.012,-0.082 0.023,-0.121 0.008,-0.043 0.032,-0.078 0.055,-0.11 0.028,-0.031 0.067,-0.043 0.113,-0.043 0.122,0 0.25,0.039 0.383,0.121 0.137,0.079 0.25,0.161 0.348,0.231 0.016,0 0.039,0.004 0.058,0.012 0.02,0.007 0.043,0.007 0.075,0.007 z m 6.644,8.418 c 0.035,-0.066 0.11,-0.21 0.231,-0.429 0.117,-0.223 0.254,-0.477 0.41,-0.778 0.156,-0.296 0.316,-0.609 0.484,-0.937 0.168,-0.328 0.324,-0.633 0.469,-0.91 0.148,-0.281 0.27,-0.52 0.363,-0.719 0.094,-0.191 0.145,-0.301 0.145,-0.32 0,-0.043 -0.102,-0.117 -0.293,-0.231 -0.199,-0.109 -0.449,-0.246 -0.754,-0.394 -0.305,-0.153 -0.637,-0.313 -1,-0.489 -0.359,-0.171 -0.707,-0.332 -1.043,-0.488 -0.332,-0.156 -0.629,-0.297 -0.891,-0.414 -0.261,-0.117 -0.437,-0.199 -0.531,-0.246 0.051,-0.238 0.129,-0.484 0.219,-0.746 0.098,-0.258 0.222,-0.5 0.383,-0.723 0.16,-0.226 0.351,-0.41 0.578,-0.554 0.226,-0.145 0.5,-0.219 0.828,-0.219 0.105,0 0.258,0.031 0.449,0.082 0.192,0.055 0.391,0.125 0.586,0.203 0.203,0.078 0.387,0.168 0.555,0.262 0.168,0.093 0.285,0.183 0.343,0.265 l 0.114,0.02 c 0.043,0 0.09,-0.016 0.133,-0.055 0.035,-0.039 0.07,-0.082 0.097,-0.14 0.028,-0.051 0.051,-0.106 0.067,-0.165 0.015,-0.054 0.023,-0.109 0.023,-0.144 0,-0.016 -0.004,-0.035 -0.008,-0.063 -0.004,-0.027 -0.015,-0.05 -0.027,-0.058 l -3.137,-1.906 -0.199,-0.043 c -0.664,0.191 -1.223,0.496 -1.676,0.914 -0.449,0.418 -0.812,0.894 -1.09,1.437 -0.273,0.543 -0.468,1.113 -0.586,1.719 -0.121,0.605 -0.179,1.191 -0.179,1.762 0,0.664 0.113,1.269 0.336,1.808 0.222,0.535 0.539,1 0.949,1.391 0.406,0.394 0.902,0.707 1.484,0.949 0.582,0.242 1.227,0.399 1.938,0.481 l 0.23,-0.122 z m -0.16,-4.195 -1.641,2.969 -0.418,-0.293 c -0.214,-0.418 -0.359,-0.859 -0.421,-1.32 -0.067,-0.457 -0.094,-0.918 -0.094,-1.375 0,-0.2 0.004,-0.399 0.023,-0.606 0.016,-0.203 0.039,-0.406 0.067,-0.601 l 2.484,1.226 z"
         style="fill:#151616;fill-opacity:1;fill-rule:evenodd;stroke:none"
         id="path3866"
         inkscape:connector-curvature="0" />
    </g>
  </g>
</svg>
