<?xml version="1.0" encoding="UTF-8" standalone="no"?>
<!-- Created with Inkscape (http://www.inkscape.org/) -->

<svg
   xmlns:dc="http://purl.org/dc/elements/1.1/"
   xmlns:cc="http://creativecommons.org/ns#"
   xmlns:rdf="http://www.w3.org/1999/02/22-rdf-syntax-ns#"
   xmlns:svg="http://www.w3.org/2000/svg"
   xmlns="http://www.w3.org/2000/svg"
   xmlns:sodipodi="http://sodipodi.sourceforge.net/DTD/sodipodi-0.dtd"
   xmlns:inkscape="http://www.inkscape.org/namespaces/inkscape"
   width="210mm"
   height="297mm"
   id="svg6080"
   version="1.1"
   inkscape:version="0.48.4 r"
   sodipodi:docname="Zamek.svg">
  <defs
     id="defs3" />
  <sodipodi:namedview
     inkscape:document-units="mm"
     id="base"
     pagecolor="#ffffff"
     bordercolor="#666666"
     borderopacity="1.0"
     inkscape:pageopacity="0.0"
     inkscape:pageshadow="2"
     inkscape:zoom="0.35"
     inkscape:cx="350"
     inkscape:cy="634.28571"
     inkscape:current-layer="layer1"
     showgrid="false"
     inkscape:window-width="1920"
     inkscape:window-height="1018"
     inkscape:window-x="-8"
     inkscape:window-y="-8"
     inkscape:window-maximized="1" />
  <metadata
     id="metadata4">
    <rdf:RDF>
      <cc:Work
         rdf:about="">
        <dc:format>image/svg+xml</dc:format>
        <dc:type
           rdf:resource="http://purl.org/dc/dcmitype/StillImage" />
        <dc:title></dc:title>
      </cc:Work>
    </rdf:RDF>
  </metadata>
  <g
     inkscape:label="Layer 1"
     inkscape:groupmode="layer"
     id="layer1">
    <g
       transform="matrix(1.25,0,0,-1.25,-53.58536,1673.5984)"
       id="g5548">
      <path
         d="m 63.242,1327.98 219.824,0 0,-78.66 c -1.836,-39.297 -19.011,-75.207 -44.277,-103.645 l -1.387,2.512 0.012,-4.035 c -18.246,-20.11 -40.543,-36.375 -64.258,-47.297 -8.426,3.879 -16.668,8.433 -24.613,13.593 l -0.883,3.274 -0.566,-2.324 c -7.821,5.172 -15.348,10.937 -22.461,17.222 l -1.321,4.911 -0.742,-3.059 c -33.316,30.269 -57.148,72.168 -59.328,118.848 l 0,78.66 z"
         style="fill:#390c04;fill-opacity:1;fill-rule:evenodd;stroke:none"
         id="path3116"
         inkscape:connector-curvature="0" />
      <path
         d="m 63.242,1327.98 219.824,0 0,-78.66 c -1.836,-39.297 -19.011,-75.207 -44.277,-103.645 l -1.387,2.512 0.012,-4.035 c -18.246,-20.11 -40.543,-36.375 -64.258,-47.297 l 0,8.89 -101.457,213.344 -8.457,8.891 z"
         style="fill:#8a563d;fill-opacity:1;fill-rule:evenodd;stroke:none"
         id="path3118"
         inkscape:connector-curvature="0" />
      <path
         d="m 71.699,1319.089 202.91,0 0,-72.609 c -2.929,-62.824 -48.351,-116.274 -101.453,-140.735 -53.105,24.461 -98.523,77.911 -101.457,140.735 l 0,72.609 z"
         style="fill:#5b3222;fill-opacity:1;fill-rule:evenodd;stroke:none"
         id="path3120"
         inkscape:connector-curvature="0" />
      <path
         d="m 244.984,1164.831 c -5.152,-7.136 -10.847,-13.883 -16.976,-20.175 l -64.301,163.769 33.16,0 48.117,-143.594 z"
         style="fill:#5b3222;fill-opacity:1;fill-rule:evenodd;stroke:none"
         id="path3122"
         inkscape:connector-curvature="0" />
      <path
         d="m 244.984,1164.831 c -5.152,-7.136 -10.847,-13.883 -16.976,-20.175 l -64.301,163.769 33.16,0 48.117,-143.594 z"
         style="fill:#5b3222;fill-opacity:1;fill-rule:evenodd;stroke:none"
         id="path3124"
         inkscape:connector-curvature="0" />
      <path
         d="m 81.844,1308.425 182.621,0 0,-65.348 c -2.637,-56.546 -43.516,-104.652 -91.309,-126.668 -47.797,22.016 -88.676,70.122 -91.312,126.668 l 0,65.348 z"
         style="fill:#5b3222;fill-opacity:1;fill-rule:evenodd;stroke:none"
         id="path3126"
         inkscape:connector-curvature="0" />
      <path
         d="m 246.629,1319.089 36.437,8.891 -8.457,-8.891 -27.98,0 z"
         style="fill:#ba734f;fill-opacity:1;fill-rule:evenodd;stroke:none"
         id="path3128"
         inkscape:connector-curvature="0" />
      <path
         d="m 90.367,1319.089 -27.125,8.891 8.457,-8.891 18.668,0 z"
         style="fill:#ba734f;fill-opacity:1;fill-rule:evenodd;stroke:none"
         id="path3130"
         inkscape:connector-curvature="0" />
      <path
         d="m 107.996,1170.296 -16.047,138.129 -5.14,0 4.086,-106.887 c 4.382,-11.086 10.191,-21.558 17.101,-31.242 z"
         style="fill:#512c1e;fill-opacity:1;fill-rule:evenodd;stroke:none"
         id="path3132"
         inkscape:connector-curvature="0" />
      <path
         d="m 274.609,1246.48 c 0.676,-52.063 -27.769,-102.282 -101.453,-149.625 l 0,8.89 c 53.102,24.461 98.524,77.911 101.453,140.735 z"
         style="fill:#ba734f;fill-opacity:1;fill-rule:evenodd;stroke:none"
         id="path3134"
         inkscape:connector-curvature="0" />
      <path
         d="m 120.969,1141.976 -7.168,166.449 25.554,0 26.211,-198.961 c -16.089,8.371 -31.293,19.399 -44.597,32.512 z"
         style="fill:#512c1e;fill-opacity:1;fill-rule:evenodd;stroke:none"
         id="path3136"
         inkscape:connector-curvature="0" />
      <path
         d="m 228.008,1144.656 -64.301,163.769 33.16,0 48.117,-143.594 c -5.152,-7.136 -10.847,-13.883 -16.976,-20.175 z"
         style="fill:#512c1e;fill-opacity:1;fill-rule:evenodd;stroke:none"
         id="path3138"
         inkscape:connector-curvature="0" />
      <path
         d="m 248.305,1308.425 -24.344,0 46.711,-88.953 c 2.152,8.762 3.508,17.781 3.937,27.008 l 0,32.324 -26.304,29.621 z"
         style="fill:#512c1e;fill-opacity:1;fill-rule:evenodd;stroke:none"
         id="path3140"
         inkscape:connector-curvature="0" />
      <path
         d="m 196.867,1308.425 -93.527,-2.945 -7.145,-18.707 -5.101,18.707 -5.782,0 -3.468,-42.172 0,45.117 115.023,0 z"
         style="fill:#6b4f2f;fill-opacity:1;fill-rule:evenodd;stroke:none"
         id="path3142"
         inkscape:connector-curvature="0" />
      <path
         d="m 99.938,1308.425 -5.782,0 2.039,-14.508 3.743,14.508 z"
         style="fill:#390c04;fill-opacity:1;fill-rule:evenodd;stroke:none"
         id="path3144"
         inkscape:connector-curvature="0" />
      <path
         d="m 240.742,1159.195 c -18.137,-23.094 -41.965,-41.649 -67.586,-53.45 -53.105,24.461 -98.523,77.911 -101.457,140.735 l 0,16.234 c 2.574,-34.48 8.813,-61.176 19.961,-77.43 l 6.223,21.454 8.305,-44.227 14.593,-17.063 3.594,11.676 6.957,-22.226 13.02,-10.551 2.023,27.391 7.633,-33.004 17.547,-9.621 c 21.465,9.14 41.929,21.128 59.226,42.175 l 6.063,59.266 3.898,-51.359 z"
         style="fill:#6b4f2f;fill-opacity:1;fill-rule:evenodd;stroke:none"
         id="path3146"
         inkscape:connector-curvature="0" />
      <path
         d="m 102.848,1155.386 -8.856,15.934 4.426,28.773 4.43,-44.707 z"
         style="fill:#390c04;fill-opacity:1;fill-rule:evenodd;stroke:none"
         id="path3148"
         inkscape:connector-curvature="0" />
      <path
         d="m 128.961,1131.042 -6.711,9.676 1.852,5.828 4.859,-15.504 z"
         style="fill:#390c04;fill-opacity:1;fill-rule:evenodd;stroke:none"
         id="path3150"
         inkscape:connector-curvature="0" />
      <path
         d="m 110.125,1167.382 c 20.996,-23.48 42.113,-41.476 63.469,-48.98 27.406,14.39 55.027,35.582 75.551,69.468 -16.602,-31.652 -44.825,-57.105 -75.989,-71.461 -24.113,11.106 -46.461,28.856 -63.031,50.973 z"
         style="fill:#6b4f2f;fill-opacity:1;fill-rule:evenodd;stroke:none"
         id="path3152"
         inkscape:connector-curvature="0" />
      <path
         d="m 238.141,1155.952 2.851,-7.754 -2.23,-2.476 -1.36,2.465 0.012,-3.965 -2.594,-2.879 -2.004,8.438 3.262,45.441 2.063,-39.27 z"
         style="fill:#390c04;fill-opacity:1;fill-rule:evenodd;stroke:none"
         id="path3154"
         inkscape:connector-curvature="0" />
      <path
         d="m 151.535,1112.894 -5.195,8.133 1.656,18.867 3.539,-27 z"
         style="fill:#390c04;fill-opacity:1;fill-rule:evenodd;stroke:none"
         id="path3156"
         inkscape:connector-curvature="0" />
      <path
         d="m 182.887,1110.601 -9.442,68.742 22.481,-61.012 c -4.262,-2.769 -8.614,-5.351 -13.039,-7.73 z"
         style="fill:#512c1e;fill-opacity:1;fill-rule:evenodd;stroke:none"
         id="path3158"
         inkscape:connector-curvature="0" />
      <path
         d="m 78.082,1312.382 190.148,0 0,-68.043 c -2.75,-58.875 -45.312,-108.961 -95.074,-131.887 -49.765,22.926 -92.328,73.012 -95.074,131.887 l 0,68.043 z m 3.762,-3.957 182.621,0 0,-65.348 c -2.637,-56.546 -43.516,-104.652 -91.309,-126.668 -47.797,22.016 -88.676,70.122 -91.312,126.668 l 0,65.348 z"
         style="fill:#390c04;fill-opacity:1;fill-rule:evenodd;stroke:none"
         id="path3160"
         inkscape:connector-curvature="0" />
    </g>
  </g>
</svg>
