<?xml version="1.0" encoding="UTF-8" standalone="no"?>
<!-- Created with Inkscape (http://www.inkscape.org/) -->

<svg
   xmlns:dc="http://purl.org/dc/elements/1.1/"
   xmlns:cc="http://creativecommons.org/ns#"
   xmlns:rdf="http://www.w3.org/1999/02/22-rdf-syntax-ns#"
   xmlns:svg="http://www.w3.org/2000/svg"
   xmlns="http://www.w3.org/2000/svg"
   xmlns:sodipodi="http://sodipodi.sourceforge.net/DTD/sodipodi-0.dtd"
   xmlns:inkscape="http://www.inkscape.org/namespaces/inkscape"
   width="210mm"
   height="297mm"
   id="svg6080"
   version="1.1"
   inkscape:version="0.48.4 r"
   sodipodi:docname="dolne menu.svg">
  <defs
     id="defs3" />
  <sodipodi:namedview
     inkscape:document-units="mm"
     id="base"
     pagecolor="#ffffff"
     bordercolor="#666666"
     borderopacity="1.0"
     inkscape:pageopacity="0.0"
     inkscape:pageshadow="2"
     inkscape:zoom="0.35"
     inkscape:cx="350"
     inkscape:cy="634.28571"
     inkscape:current-layer="layer1"
     showgrid="false"
     inkscape:window-width="1920"
     inkscape:window-height="1018"
     inkscape:window-x="-8"
     inkscape:window-y="-8"
     inkscape:window-maximized="1" />
  <metadata
     id="metadata4">
    <rdf:RDF>
      <cc:Work
         rdf:about="">
        <dc:format>image/svg+xml</dc:format>
        <dc:type
           rdf:resource="http://purl.org/dc/dcmitype/StillImage" />
        <dc:title></dc:title>
      </cc:Work>
    </rdf:RDF>
  </metadata>
  <g
     inkscape:label="Layer 1"
     inkscape:groupmode="layer"
     id="layer1">
    <g
       transform="matrix(1.25,0,0,-1.25,-971.44268,1087.9205)"
       id="g5751">
      <path
         d="m 855.375,819.097 101.871,0 0,-142.582 -101.871,0 0,142.582 z m 51.063,-41.828 -11.594,0 0,-87.199 c 0.121,-1.317 1.004,-2.282 2.238,-2.895 l 1.227,-7.16 1.5,6.414 c 3.144,-0.328 6.621,0.883 6.636,3.637 l 0,87.203 -0.007,0 z m 3.707,-12.996 c 0.64,0.109 1.293,0.164 1.96,0.164 6.489,0 11.75,-5.258 11.75,-11.746 0,-6.309 -4.976,-11.457 -11.214,-11.735 19.214,0.282 34.707,15.942 34.707,35.227 0,15.16 -9.575,28.082 -23.004,33.055 3.332,-3.512 5.375,-8.258 5.375,-13.481 0,-10.809 -8.762,-19.574 -19.574,-19.574 l 0,-11.91 z m -31.688,-23.731 c -7.914,4.918 -13.184,13.692 -13.184,23.696 0,7.933 3.313,15.093 8.633,20.171 3.684,-6.101 10.184,-10.304 17.696,-10.82 l 0,-9.351 c -8.555,0 -15.493,-6.938 -15.493,-15.493 0,-3.015 0.86,-5.824 2.348,-8.203 z m 27.981,40.387 -5.563,18.59 -5.563,-18.59 11.126,0 z"
         style="fill:#390c04;fill-opacity:1;fill-rule:evenodd;stroke:none"
         id="path4224"
         inkscape:connector-curvature="0" />
      <path
         d="m 788.387,841.152 219.82,0 0,-78.661 c -1.832,-39.296 -19.012,-75.207 -44.277,-103.64 l -1.383,2.508 0.012,-4.032 c -18.247,-20.113 -40.543,-36.375 -64.262,-47.3 -8.422,3.879 -16.664,8.433 -24.609,13.593 l -0.883,3.274 -0.567,-2.324 c -7.82,5.175 -15.347,10.937 -22.461,17.226 l -1.32,4.906 -0.742,-3.058 c -33.317,30.269 -57.149,72.168 -59.328,118.847 l 0,78.661 z m 116.5,-60.352 -13,0 0,-97.805 c 0.492,-5.507 12.972,-5.531 13,0 l 0,97.805 z m 4.16,-14.574 c 0.715,0.121 1.449,0.183 2.199,0.183 7.277,0 13.18,-5.898 13.18,-13.175 0,-7.078 -5.582,-12.848 -12.578,-13.164 21.55,0.316 38.925,17.886 38.925,39.511 0,17.004 -10.738,31.5 -25.8,37.075 3.738,-3.938 6.031,-9.258 6.031,-15.118 0,-12.125 -9.832,-21.957 -21.957,-21.957 l 0,-13.355 z m -35.543,-26.621 c -8.875,5.519 -14.785,15.359 -14.785,26.582 0,8.898 3.715,16.929 9.683,22.625 4.129,-6.844 11.418,-11.563 19.848,-12.137 l 0,-10.488 c -9.598,0 -17.379,-7.781 -17.379,-17.379 0,-3.379 0.965,-6.535 2.633,-9.203 z m 31.383,45.301 -6.239,20.851 -6.238,-20.851 12.477,0 z"
         style="fill:#390c04;fill-opacity:1;fill-rule:evenodd;stroke:none"
         id="path4226"
         inkscape:connector-curvature="0" />
      <path
         d="m 788.387,841.152 219.82,0 0,-78.661 c -1.832,-39.296 -19.012,-75.207 -44.277,-103.64 l -1.383,2.508 0.012,-4.032 c -18.247,-20.113 -40.543,-36.375 -64.262,-47.3 l 0,8.89 -101.453,213.344 -8.457,8.891 z m 116.5,-60.352 -13,0 0,-97.805 c 0.492,-5.507 12.972,-5.531 13,0 l 0,97.805 z m 4.16,-14.574 c 0.715,0.121 1.449,0.183 2.199,0.183 7.277,0 13.18,-5.898 13.18,-13.175 0,-7.078 -5.582,-12.848 -12.578,-13.164 21.55,0.316 38.925,17.886 38.925,39.511 0,17.004 -10.738,31.5 -25.8,37.075 3.738,-3.938 6.031,-9.258 6.031,-15.118 0,-12.125 -9.832,-21.957 -21.957,-21.957 l 0,-13.355 z m -35.543,-26.621 c -8.875,5.519 -14.785,15.359 -14.785,26.582 0,8.898 3.715,16.929 9.683,22.625 4.129,-6.844 11.418,-11.563 19.848,-12.137 l 0,-10.488 c -9.598,0 -17.379,-7.781 -17.379,-17.379 0,-3.379 0.965,-6.535 2.633,-9.203 z m 31.383,45.301 -6.239,20.851 -6.238,-20.851 12.477,0 z"
         style="fill:#8a563d;fill-opacity:1;fill-rule:evenodd;stroke:none"
         id="path4228"
         inkscape:connector-curvature="0" />
      <path
         d="m 796.844,832.261 202.91,0 0,-72.605 C 996.82,696.827 951.402,643.378 898.297,618.917 c -53.102,24.461 -98.524,77.91 -101.453,140.739 l 0,72.605 z m 108.043,-51.461 -13,0 0,-97.805 c 0.492,-5.507 12.972,-5.531 13,0 l 0,97.805 z m 4.16,-14.574 c 0.715,0.121 1.449,0.183 2.199,0.183 7.277,0 13.18,-5.898 13.18,-13.175 0,-7.078 -5.582,-12.848 -12.578,-13.164 21.55,0.316 38.925,17.886 38.925,39.511 0,17.004 -10.738,31.5 -25.8,37.075 3.738,-3.938 6.031,-9.258 6.031,-15.118 0,-12.125 -9.832,-21.957 -21.957,-21.957 l 0,-13.355 z m -35.543,-26.621 c -8.875,5.519 -14.785,15.359 -14.785,26.582 0,8.898 3.715,16.929 9.683,22.625 4.129,-6.844 11.418,-11.563 19.848,-12.137 l 0,-10.488 c -9.598,0 -17.379,-7.781 -17.379,-17.379 0,-3.379 0.965,-6.535 2.633,-9.203 z m 31.383,45.301 -6.239,20.851 -6.238,-20.851 12.477,0 z"
         style="fill:#5b3222;fill-opacity:1;fill-rule:evenodd;stroke:none"
         id="path4230"
         inkscape:connector-curvature="0" />
      <path
         d="m 970.129,678.003 c -5.156,-7.137 -10.848,-13.883 -16.977,-20.176 l -32.711,83.317 c 9.555,2.273 17.766,8.015 23.227,15.828 l 26.461,-78.969 z m -50.457,65.098 -9.145,23.289 c 0.239,0.012 0.481,0.019 0.719,0.019 7.277,0 13.18,-5.898 13.18,-13.175 0,-4.075 -1.852,-7.715 -4.754,-10.133 z m -10.625,27.058 -4.16,10.594 0,0.051 -0.02,0 -1.609,4.102 1.629,0 -6.239,20.855 -1.546,-5.176 -8.25,21.012 33.16,0 8.41,-25.094 c -2.277,-9.699 -10.984,-16.918 -21.375,-16.918 l 0,-9.426 z"
         style="fill:#5b3222;fill-opacity:1;fill-rule:evenodd;stroke:none"
         id="path4232"
         inkscape:connector-curvature="0" />
      <path
         d="m 970.129,678.003 c -5.156,-7.137 -10.848,-13.883 -16.977,-20.176 l -32.711,83.317 c 9.555,2.273 17.766,8.015 23.227,15.828 l 26.461,-78.969 z m -50.457,65.098 -9.145,23.289 c 0.239,0.012 0.481,0.019 0.719,0.019 7.277,0 13.18,-5.898 13.18,-13.175 0,-4.075 -1.852,-7.715 -4.754,-10.133 z m -10.625,27.058 -4.16,10.594 0,0.051 -0.02,0 -1.609,4.102 1.629,0 -6.239,20.855 -1.546,-5.176 -8.25,21.012 33.16,0 8.41,-25.094 c -2.277,-9.699 -10.984,-16.918 -21.375,-16.918 l 0,-9.426 z"
         style="fill:#5b3222;fill-opacity:1;fill-rule:evenodd;stroke:none"
         id="path4234"
         inkscape:connector-curvature="0" />
      <path
         d="m 806.988,821.597 182.621,0 0,-65.348 c -2.636,-56.547 -43.515,-104.652 -91.312,-126.668 -47.793,22.016 -88.672,70.121 -91.309,126.668 l 0,65.348 z m 97.899,-40.797 -13,0 0,-97.805 c 0.492,-5.507 12.972,-5.531 13,0 l 0,97.805 z m 4.16,-14.574 c 0.715,0.121 1.449,0.183 2.199,0.183 7.277,0 13.18,-5.898 13.18,-13.175 0,-7.078 -5.582,-12.848 -12.578,-13.164 21.55,0.316 38.925,17.886 38.925,39.511 0,17.004 -10.738,31.5 -25.8,37.075 3.738,-3.938 6.031,-9.258 6.031,-15.118 0,-12.125 -9.832,-21.957 -21.957,-21.957 l 0,-13.355 z m -35.543,-26.621 c -8.875,5.519 -14.785,15.359 -14.785,26.582 0,8.898 3.715,16.929 9.683,22.625 4.129,-6.844 11.418,-11.563 19.848,-12.137 l 0,-10.488 c -9.598,0 -17.379,-7.781 -17.379,-17.379 0,-3.379 0.965,-6.535 2.633,-9.203 z m 31.383,45.301 -6.239,20.851 -6.238,-20.851 12.477,0 z"
         style="fill:#5b3222;fill-opacity:1;fill-rule:evenodd;stroke:none"
         id="path4236"
         inkscape:connector-curvature="0" />
      <path
         d="m 971.773,832.261 36.434,8.891 -8.453,-8.891 -27.981,0 z"
         style="fill:#ba734f;fill-opacity:1;fill-rule:evenodd;stroke:none"
         id="path4238"
         inkscape:connector-curvature="0" />
      <path
         d="m 815.512,832.261 -27.125,8.891 8.457,-8.891 18.668,0 z"
         style="fill:#ba734f;fill-opacity:1;fill-rule:evenodd;stroke:none"
         id="path4240"
         inkscape:connector-curvature="0" />
      <path
         d="m 833.141,683.468 -16.047,138.129 -5.141,0 4.086,-106.887 c 4.383,-11.086 10.191,-21.558 17.102,-31.242 z"
         style="fill:#512c1e;fill-opacity:1;fill-rule:evenodd;stroke:none"
         id="path4242"
         inkscape:connector-curvature="0" />
      <path
         d="M 999.754,759.656 C 1000.43,707.589 971.984,657.37 898.297,610.027 l 0,8.89 c 53.105,24.461 98.523,77.91 101.457,140.739 z"
         style="fill:#ba734f;fill-opacity:1;fill-rule:evenodd;stroke:none"
         id="path4244"
         inkscape:connector-curvature="0" />
      <path
         d="m 846.113,655.148 -7.168,166.449 25.555,0 4.43,-33.625 c -0.184,0.277 -0.36,0.555 -0.528,0.84 -5.968,-5.696 -9.683,-13.727 -9.683,-22.625 0,-11.223 5.91,-21.063 14.785,-26.582 -1.668,2.668 -2.633,5.824 -2.633,9.203 0,3.015 0.77,5.855 2.121,8.328 L 890.711,622.64 c -16.09,8.371 -31.293,19.398 -44.598,32.508 z"
         style="fill:#512c1e;fill-opacity:1;fill-rule:evenodd;stroke:none"
         id="path4246"
         inkscape:connector-curvature="0" />
      <path
         d="m 953.152,657.827 -32.711,83.317 c 9.555,2.273 17.766,8.015 23.227,15.828 l 26.461,-78.969 c -5.156,-7.137 -10.848,-13.883 -16.977,-20.176 z m -33.48,85.274 -9.145,23.289 c 0.239,0.012 0.481,0.019 0.719,0.019 7.277,0 13.18,-5.898 13.18,-13.175 0,-4.075 -1.852,-7.715 -4.754,-10.133 z m -10.625,27.058 -4.16,10.594 0,0.051 -0.02,0 -1.609,4.102 1.629,0 -6.239,20.855 -1.546,-5.176 -8.25,21.012 33.16,0 8.41,-25.094 c -2.277,-9.699 -10.984,-16.918 -21.375,-16.918 l 0,-9.426 z"
         style="fill:#512c1e;fill-opacity:1;fill-rule:evenodd;stroke:none"
         id="path4248"
         inkscape:connector-curvature="0" />
      <path
         d="m 973.449,821.597 -24.344,0 46.711,-88.953 c 2.153,8.762 3.504,17.785 3.938,27.012 l 0,32.324 -26.305,29.617 z"
         style="fill:#512c1e;fill-opacity:1;fill-rule:evenodd;stroke:none"
         id="path4250"
         inkscape:connector-curvature="0" />
      <path
         d="m 922.012,821.597 -93.532,-2.945 -7.14,-18.704 -5.102,18.704 -5.781,0 -3.469,-42.172 0,45.117 115.024,0 z"
         style="fill:#6b4f2f;fill-opacity:1;fill-rule:evenodd;stroke:none"
         id="path4252"
         inkscape:connector-curvature="0" />
      <path
         d="m 825.082,821.597 -5.781,0 2.039,-14.508 3.742,14.508 z"
         style="fill:#390c04;fill-opacity:1;fill-rule:evenodd;stroke:none"
         id="path4254"
         inkscape:connector-curvature="0" />
      <path
         d="m 965.887,672.366 c -18.137,-23.093 -41.969,-41.644 -67.59,-53.449 -53.102,24.461 -98.524,77.91 -101.453,140.739 l 0,16.23 c 2.574,-34.48 8.812,-61.176 19.961,-77.43 l 6.222,21.453 8.305,-44.226 14.594,-17.059 3.59,11.672 6.961,-22.226 13.019,-10.551 2.02,27.39 7.632,-33 17.551,-9.625 c 21.461,9.141 41.93,21.129 59.227,42.176 l 6.062,59.266 3.899,-51.36 z"
         style="fill:#6b4f2f;fill-opacity:1;fill-rule:evenodd;stroke:none"
         id="path4256"
         inkscape:connector-curvature="0" />
      <path
         d="m 827.988,668.558 -8.851,15.937 4.425,28.77 4.426,-44.707 z"
         style="fill:#390c04;fill-opacity:1;fill-rule:evenodd;stroke:none"
         id="path4258"
         inkscape:connector-curvature="0" />
      <path
         d="m 854.105,644.214 -6.71,9.68 1.851,5.828 4.859,-15.508 z"
         style="fill:#390c04;fill-opacity:1;fill-rule:evenodd;stroke:none"
         id="path4260"
         inkscape:connector-curvature="0" />
      <path
         d="m 835.27,680.558 c 20.992,-23.485 42.109,-41.481 63.464,-48.985 27.411,14.391 55.032,35.583 75.555,69.469 -16.601,-31.648 -44.824,-57.101 -75.992,-71.461 -24.109,11.106 -46.457,28.856 -63.027,50.977 z"
         style="fill:#6b4f2f;fill-opacity:1;fill-rule:evenodd;stroke:none"
         id="path4262"
         inkscape:connector-curvature="0" />
      <path
         d="m 963.281,669.128 2.852,-7.758 -2.227,-2.476 -1.359,2.465 0.012,-3.965 -2.594,-2.879 -2.004,8.437 3.262,45.446 2.062,-39.27 -0.004,0 z"
         style="fill:#390c04;fill-opacity:1;fill-rule:evenodd;stroke:none"
         id="path4264"
         inkscape:connector-curvature="0" />
      <path
         d="m 876.68,626.066 -5.196,8.132 1.653,18.868 3.543,-27 z"
         style="fill:#390c04;fill-opacity:1;fill-rule:evenodd;stroke:none"
         id="path4266"
         inkscape:connector-curvature="0" />
      <path
         d="m 908.031,623.773 -7.59,55.246 c 1.032,0.187 1.985,0.531 2.739,1.035 l 17.89,-48.551 c -4.261,-2.769 -8.613,-5.351 -13.039,-7.73 z"
         style="fill:#512c1e;fill-opacity:1;fill-rule:evenodd;stroke:none"
         id="path4268"
         inkscape:connector-curvature="0" />
      <path
         d="m 803.223,825.554 190.148,0 0,-68.043 C 990.625,698.636 948.062,648.55 898.297,625.624 848.535,648.55 805.969,698.636 803.223,757.511 l 0,68.043 z m 3.765,-3.957 182.621,0 0,-65.348 c -2.636,-56.547 -43.515,-104.652 -91.312,-126.668 -47.793,22.016 -88.672,70.121 -91.309,126.668 l 0,65.348 z"
         style="fill:#390c04;fill-opacity:1;fill-rule:evenodd;stroke:none"
         id="path4270"
         inkscape:connector-curvature="0" />
      <path
         d="m 872.523,740.241 c -8.328,5.622 -13.804,15.141 -13.804,25.946 0,1.234 0.07,2.453 0.211,3.648 -2.129,-6.508 -1.192,-12.812 1.953,-18.969 l 2.375,-26.105 3.426,18.59 5.839,-3.11 z"
         style="fill:#6b4f2f;fill-opacity:1;fill-rule:evenodd;stroke:none"
         id="path4272"
         inkscape:connector-curvature="0" />
      <path
         d="m 904.211,680.995 -0.008,-0.007 0.008,0.007 z m -11.965,0.743 0.008,-0.012 -0.008,0.012 z m 0.637,-0.903 2.48,-3.492 2.664,-20.652 2.762,19.824 3.414,4.473 c -2.152,-2.797 -8.777,-2.84 -11.32,-0.153 z"
         style="fill:#6b4f2f;fill-opacity:1;fill-rule:evenodd;stroke:none"
         id="path4274"
         inkscape:connector-curvature="0" />
      <path
         d="m 900.441,679.019 -4.074,0.062 1.305,-15.945 2.769,15.883 z"
         style="fill:#390c04;fill-opacity:1;fill-rule:evenodd;stroke:none"
         id="path4276"
         inkscape:connector-curvature="0" />
      <path
         d="m 865.625,746.581 -2.965,4.395 1.348,-17.449 1.617,13.054 z"
         style="fill:#390c04;fill-opacity:1;fill-rule:evenodd;stroke:none"
         id="path4278"
         inkscape:connector-curvature="0" />
      <path
         d="m 815.867,631.573 0,15.399 -19.535,0 10.543,-10.742 -10.543,-10.739 30.207,0 -10.672,6.082 z"
         style="fill:#ffd043;fill-opacity:1;fill-rule:evenodd;stroke:none"
         id="path4280"
         inkscape:connector-curvature="0" />
      <path
         d="m 815.426,631.573 0,14.958 -18.043,0 9.805,-9.989 -0.313,-0.308 0.316,0.308 c 0.172,-0.176 0.168,-0.457 -0.007,-0.625 l -0.02,-0.019 -9.785,-9.965 27.488,0 -9.219,5.254 0.215,0.386 -0.218,-0.386 c -0.141,0.082 -0.223,0.23 -0.223,0.386 l 0.004,0 z m 0.886,15.399 0,-15.145 10.415,-5.933 c 0.148,-0.074 0.253,-0.227 0.253,-0.403 0,-0.246 -0.199,-0.441 -0.441,-0.441 l -30.172,0 c -0.125,-0.012 -0.25,0.027 -0.347,0.125 -0.176,0.168 -0.176,0.449 -0.004,0.625 l 0.316,-0.309 -0.316,0.309 10.238,10.43 -10.215,10.406 c -0.094,0.082 -0.152,0.199 -0.152,0.332 0,0.246 0.199,0.445 0.445,0.445 l 19.535,0 c 0.246,0 0.445,-0.199 0.445,-0.445 l 0,0.004 z"
         style="fill:#c66b36;fill-opacity:1;fill-rule:evenodd;stroke:none"
         id="path4282"
         inkscape:connector-curvature="0" />
      <path
         d="m 981.605,631.573 0,15.399 19.536,0 -10.543,-10.742 10.543,-10.739 -30.207,0 10.671,6.082 z"
         style="fill:#ffd043;fill-opacity:1;fill-rule:evenodd;stroke:none"
         id="path4284"
         inkscape:connector-curvature="0" />
      <path
         d="m 981.16,631.827 0,15.145 c 0,0.246 0.199,0.441 0.445,0.441 l 19.536,0 c 0.246,0 0.445,-0.195 0.445,-0.441 0,-0.133 -0.059,-0.254 -0.152,-0.332 l -10.215,-10.41 10.238,-10.43 -0.316,-0.309 0.316,0.309 c 0.172,-0.172 0.172,-0.453 -0.01,-0.625 -0.094,-0.094 -0.222,-0.137 -0.347,-0.125 l -30.168,0 c -0.246,0 -0.446,0.199 -0.446,0.441 0,0.18 0.106,0.332 0.258,0.403 l 10.414,5.937 0,-0.004 z m 0.887,14.704 0,-14.958 c 0,-0.156 -0.078,-0.304 -0.223,-0.386 l -0.219,0.386 0.219,-0.386 -9.222,-5.254 27.488,0 -9.781,9.965 -0.02,0.015 c -0.176,0.172 -0.18,0.453 -0.008,0.629 l 0.317,-0.312 -0.317,0.312 9.805,9.985 -18.039,0 0,0.004 z"
         style="fill:#c66b36;fill-opacity:1;fill-rule:evenodd;stroke:none"
         id="path4286"
         inkscape:connector-curvature="0" />
      <path
         d="m 815.867,631.573 10.672,-6.082 0,7.063 c -3.559,-0.309 -7.113,-0.637 -10.672,-0.981 z"
         style="fill:#fabb00;fill-opacity:1;fill-rule:evenodd;stroke:none"
         id="path4288"
         inkscape:connector-curvature="0" />
      <path
         d="m 817.297,631.269 8.797,-5.016 0,5.82 c -1.797,-0.156 -3.418,-0.304 -4.852,-0.433 -1.304,-0.121 -2.621,-0.246 -3.945,-0.371 z m 9.023,-6.16 -10.64,6.062 c -0.137,0.067 -0.239,0.199 -0.254,0.36 -0.024,0.242 0.156,0.46 0.398,0.484 l 0.043,-0.442 -0.039,0.438 c 1.758,0.172 3.535,0.34 5.336,0.508 1.988,0.183 3.766,0.34 5.324,0.476 l 0.051,0 c 0.242,0 0.441,-0.199 0.441,-0.441 l 0,-7.063 c 0,-0.074 -0.019,-0.152 -0.058,-0.222 -0.121,-0.211 -0.391,-0.285 -0.606,-0.164 l 0.004,0 0,0.004 z"
         style="fill:#c66b36;fill-opacity:1;fill-rule:evenodd;stroke:none"
         id="path4290"
         inkscape:connector-curvature="0" />
      <path
         d="m 981.605,631.573 -10.671,-6.082 0,7.141 c 3.558,-0.328 7.113,-0.684 10.671,-1.059 z"
         style="fill:#fabb00;fill-opacity:1;fill-rule:evenodd;stroke:none"
         id="path4292"
         inkscape:connector-curvature="0" />
      <path
         d="m 981.797,631.171 -10.645,-6.062 0.004,0 c -0.215,-0.121 -0.484,-0.047 -0.605,0.164 -0.039,0.07 -0.059,0.144 -0.059,0.218 l 0,7.141 c 0,0.246 0.199,0.445 0.442,0.445 0.027,0 0.054,0 0.082,-0.007 3.57,-0.332 7.117,-0.688 10.632,-1.059 l -0.043,-0.438 0.047,0.438 c 0.243,-0.023 0.418,-0.242 0.395,-0.484 -0.02,-0.161 -0.117,-0.289 -0.25,-0.356 z m -10.418,-4.918 8.816,5.024 c -2.957,0.308 -5.894,0.597 -8.816,0.871 l 0,-5.895 z"
         style="fill:#c66b36;fill-opacity:1;fill-rule:evenodd;stroke:none"
         id="path4294"
         inkscape:connector-curvature="0" />
      <path
         d="m 815.867,662.37 165.738,0 0,-30.797 -165.738,0 0,30.797 z"
         style="fill:#ffde7e;fill-opacity:1;fill-rule:evenodd;stroke:none"
         id="path4296"
         inkscape:connector-curvature="0" />
      <path
         d="m 815.867,662.816 166.18,0 0,-31.688 -166.621,0 0,31.688 0.441,0 z m 165.293,-0.887 -164.848,0 0,-29.914 164.848,0 0,29.914 z"
         style="fill:#c66b36;fill-opacity:1;fill-rule:evenodd;stroke:none"
         id="path4298"
         inkscape:connector-curvature="0" />
      <text
         y="-636.34985"
         x="868.82892"
         transform="scale(1,-1)"
         id="text4300">
        <tspan
           style="font-size:18.79999924px;font-variant:normal;font-weight:normal;writing-mode:lr-tb;fill:#151616;fill-opacity:1;fill-rule:nonzero;stroke:none;font-family:DejaVu Sans;-inkscape-font-specification:DejaVuSans"
           x="868.82892 877.11969 888.60651 900.5257 912.01251 919.73932"
           y="-636.34985"
           sodipodi:role="line"
           id="tspan4302">Topory</tspan>
      </text>
    </g>
  </g>
</svg>
