<?xml version="1.0" encoding="UTF-8" standalone="no"?>
<!-- Created with Inkscape (http://www.inkscape.org/) -->

<svg
   xmlns:dc="http://purl.org/dc/elements/1.1/"
   xmlns:cc="http://creativecommons.org/ns#"
   xmlns:rdf="http://www.w3.org/1999/02/22-rdf-syntax-ns#"
   xmlns:svg="http://www.w3.org/2000/svg"
   xmlns="http://www.w3.org/2000/svg"
   xmlns:sodipodi="http://sodipodi.sourceforge.net/DTD/sodipodi-0.dtd"
   xmlns:inkscape="http://www.inkscape.org/namespaces/inkscape"
   width="210mm"
   height="297mm"
   id="svg6080"
   version="1.1"
   inkscape:version="0.48.4 r"
   sodipodi:docname="tarcza_topur.svg">
  <defs
     id="defs3" />
  <sodipodi:namedview
     inkscape:document-units="mm"
     id="base"
     pagecolor="#ffffff"
     bordercolor="#666666"
     borderopacity="1.0"
     inkscape:pageopacity="0.0"
     inkscape:pageshadow="2"
     inkscape:zoom="0.35"
     inkscape:cx="350"
     inkscape:cy="634.28571"
     inkscape:current-layer="layer1"
     showgrid="false"
     inkscape:window-width="1920"
     inkscape:window-height="1018"
     inkscape:window-x="-8"
     inkscape:window-y="-8"
     inkscape:window-maximized="1" />
  <metadata
     id="metadata4">
    <rdf:RDF>
      <cc:Work
         rdf:about="">
        <dc:format>image/svg+xml</dc:format>
        <dc:type
           rdf:resource="http://purl.org/dc/dcmitype/StillImage" />
        <dc:title></dc:title>
      </cc:Work>
    </rdf:RDF>
  </metadata>
  <g
     inkscape:label="Layer 1"
     inkscape:groupmode="layer"
     id="layer1">
    <g
       transform="matrix(1.25,0,0,-1.25,-67.478571,1400.8319)"
       id="g5628">
      <g
         id="g3868"
         transform="matrix(1,0,0,-1,0,1587.4016)">
        <path
           d="m 222.688,638.938 c 84.101,-14.844 168.203,-13.657 252.3,0 l 0,41.304 c -84.097,-8.918 -168.199,-8.183 -252.3,0 l 0,-41.304 z"
           style="fill:#ffde7e;fill-opacity:1;fill-rule:evenodd;stroke:#151616;stroke-width:1.13383996;stroke-linecap:butt;stroke-linejoin:miter;stroke-miterlimit:4;stroke-opacity:1;stroke-dasharray:none"
           id="path3870"
           inkscape:connector-curvature="0" />
      </g>
      <g
         id="g3872"
         transform="matrix(1,0,0,-1,0,1587.4016)">
        <path
           d="m 222.688,680.242 0,-20.652 c -20.653,20.652 -27.536,0 -41.305,0 6.883,6.883 11.551,18.453 20.652,20.652 -6.144,13.543 -13.769,13.77 -20.652,20.653 13.769,0 18.168,18.25 41.305,0 L 237,688.398 222.688,680.242 z"
           style="fill:#ffd043;fill-opacity:1;fill-rule:evenodd;stroke:#151616;stroke-width:1.13383996;stroke-linecap:butt;stroke-linejoin:round;stroke-miterlimit:4;stroke-opacity:1;stroke-dasharray:none"
           id="path3874"
           inkscape:connector-curvature="0" />
      </g>
      <g
         id="g3876"
         transform="matrix(1,0,0,-1,0,1587.4016)">
        <path
           d="m 474.988,680.242 0,-20.652 c 20.653,20.652 27.539,0 41.309,0 -6.887,6.883 -11.551,18.453 -20.656,20.652 6.144,13.543 13.769,13.77 20.656,20.653 -13.77,0 -18.168,18.25 -41.309,0 l -14.308,-12.497 14.308,-8.156 z"
           style="fill:#ffd043;fill-opacity:1;fill-rule:evenodd;stroke:#151616;stroke-width:1.13383996;stroke-linecap:butt;stroke-linejoin:round;stroke-miterlimit:4;stroke-opacity:1;stroke-dasharray:none"
           id="path3878"
           inkscape:connector-curvature="0" />
      </g>
      <g
         id="g3880"
         transform="matrix(1,0,0,-1,0,1587.4016)">
        <path
           d="m 222.688,680.242 14.312,8.156 0,-9.476 c -4.77,0.418 -9.539,0.855 -14.312,1.32 z"
           style="fill:#fabb00;fill-opacity:1;fill-rule:evenodd;stroke:#151616;stroke-width:1.13383996;stroke-linecap:butt;stroke-linejoin:round;stroke-miterlimit:4;stroke-opacity:1;stroke-dasharray:none"
           id="path3882"
           inkscape:connector-curvature="0" />
      </g>
      <g
         id="g3884"
         transform="matrix(1,0,0,-1,0,1587.4016)">
        <path
           d="m 474.988,680.242 -14.308,8.156 0,-9.578 c 4.769,0.442 9.539,0.914 14.308,1.422 z"
           style="fill:#fabb00;fill-opacity:1;fill-rule:evenodd;stroke:#151616;stroke-width:1.13383996;stroke-linecap:butt;stroke-linejoin:round;stroke-miterlimit:4;stroke-opacity:1;stroke-dasharray:none"
           id="path3886"
           inkscape:connector-curvature="0" />
      </g>
      <path
         d="m 261.086,946.628 c 0.199,-0.789 0.18,-1.562 -0.055,-2.316 -0.23,-0.758 -0.597,-1.434 -1.101,-2.039 -0.5,-0.602 -1.11,-1.125 -1.828,-1.567 -0.715,-0.437 -1.457,-0.754 -2.223,-0.945 -0.902,-0.227 -1.918,-0.246 -3.051,-0.063 -1.133,0.18 -2.316,0.391 -3.555,0.637 -1.234,0.242 -2.507,0.434 -3.82,0.571 -1.308,0.136 -2.578,0.05 -3.808,-0.254 -0.707,-0.18 -1.403,-0.539 -2.079,-1.086 -0.675,-0.543 -1.23,-1.293 -1.66,-2.243 -0.429,-0.945 -0.691,-2.121 -0.777,-3.519 -0.086,-1.402 0.109,-3.059 0.586,-4.969 0.363,-1.445 1.09,-2.613 2.18,-3.504 1.093,-0.886 2.343,-1.539 3.753,-1.957 1.411,-0.418 2.883,-0.629 4.422,-0.636 1.539,-0.008 2.938,0.144 4.196,0.457 0.543,0.136 1.234,0.336 2.066,0.601 0.836,0.266 1.695,0.59 2.586,0.973 0.894,0.383 1.77,0.824 2.629,1.328 0.859,0.504 1.613,1.062 2.258,1.672 0.648,0.613 1.129,1.269 1.445,1.972 0.32,0.704 0.379,1.45 0.184,2.243 -0.219,0.875 -0.696,1.554 -1.422,2.039 -0.731,0.484 -1.547,0.613 -2.45,0.39 -1.175,-0.293 -2.246,-0.742 -3.21,-1.343 -0.965,-0.606 -1.911,-1.247 -2.829,-1.926 -0.918,-0.676 -1.855,-1.317 -2.808,-1.918 -0.949,-0.598 -2,-1.043 -3.149,-1.328 -0.793,-0.196 -1.554,-0.242 -2.293,-0.137 -0.738,0.105 -1.398,0.34 -1.98,0.703 -0.586,0.363 -1.086,0.84 -1.512,1.43 -0.422,0.59 -0.73,1.265 -0.918,2.031 -0.144,0.574 -0.187,1.152 -0.129,1.734 0.059,0.579 0.207,1.118 0.446,1.61 0.242,0.496 0.566,0.933 0.98,1.312 0.414,0.375 0.922,0.641 1.52,0.793 0.847,0.211 1.707,0.192 2.582,-0.054 0.875,-0.247 1.527,-0.766 1.953,-1.559 l -0.449,-0.633 c -0.383,0.485 -0.899,0.906 -1.555,1.266 -0.656,0.359 -1.434,0.426 -2.336,0.199 -0.84,-0.352 -1.375,-0.793 -1.609,-1.312 -0.231,-0.524 -0.289,-1.016 -0.172,-1.481 0.211,-0.848 0.629,-1.461 1.261,-1.84 0.633,-0.379 1.301,-0.48 2.012,-0.304 0.492,0.125 1.133,0.464 1.922,1.023 0.789,0.559 1.668,1.187 2.641,1.879 0.976,0.691 2.019,1.359 3.136,2 1.118,0.64 2.235,1.101 3.356,1.379 0.816,0.207 1.625,0.289 2.414,0.258 0.793,-0.036 1.531,-0.254 2.207,-0.649 0.68,-0.394 1.289,-1.004 1.828,-1.828 0.539,-0.824 0.984,-1.934 1.328,-3.324 0.492,-1.969 0.578,-3.707 0.258,-5.223 -0.316,-1.515 -0.945,-2.84 -1.879,-3.973 -0.937,-1.132 -2.121,-2.082 -3.558,-2.843 -1.434,-0.766 -3.024,-1.364 -4.77,-1.801 -4.781,-1.191 -8.59,-0.902 -11.426,0.871 -2.836,1.773 -4.844,5.039 -6.031,9.789 -0.395,1.586 -0.582,3.242 -0.563,4.973 0.016,1.73 0.305,3.371 0.864,4.914 0.558,1.547 1.398,2.91 2.527,4.09 1.125,1.179 2.606,2 4.434,2.457 0.656,0.164 1.453,0.222 2.39,0.179 0.942,-0.039 1.918,-0.129 2.942,-0.265 1.019,-0.137 2.058,-0.313 3.113,-0.531 1.055,-0.215 2.016,-0.411 2.887,-0.583 0.871,-0.175 1.629,-0.32 2.281,-0.433 0.652,-0.113 1.09,-0.141 1.309,-0.086 0.461,0.113 0.835,0.359 1.121,0.734 0.281,0.375 0.375,1.059 0.269,2.047 l 0.719,-0.082 z m 3.887,-11.25 c 0.539,0.668 1.074,1.492 1.601,2.469 0.528,0.98 1.055,1.844 1.578,2.594 0.895,-0.211 1.66,-0.629 2.301,-1.246 0.637,-0.614 1.168,-1.313 1.59,-2.098 0.637,0.769 1.223,1.574 1.762,2.41 0.539,0.84 1.16,1.621 1.859,2.344 1.488,-0.82 2.641,-1.918 3.453,-3.289 0.516,0.804 1.082,1.574 1.695,2.312 0.614,0.735 1.208,1.485 1.79,2.242 0.703,-0.418 1.355,-0.882 1.96,-1.39 0.606,-0.508 1.27,-0.953 1.993,-1.34 -0.141,-0.34 -0.305,-0.656 -0.496,-0.945 -0.192,-0.293 -0.282,-0.637 -0.27,-1.035 0.055,-0.618 0.133,-1.239 0.246,-1.864 0.11,-0.625 0.219,-1.242 0.324,-1.851 0.039,-0.223 0.094,-0.575 0.168,-1.063 0.071,-0.488 0.168,-1.051 0.297,-1.683 0.125,-0.637 0.266,-1.282 0.426,-1.942 0.16,-0.656 0.336,-1.254 0.531,-1.793 0.196,-0.535 0.407,-0.972 0.637,-1.301 0.23,-0.332 0.469,-0.476 0.719,-0.433 0.222,0.039 0.445,0.16 0.668,0.355 0.222,0.196 0.433,0.371 0.636,0.52 l 0.629,-0.66 c -0.215,-0.383 -0.472,-0.75 -0.769,-1.102 -0.293,-0.351 -0.606,-0.691 -0.934,-1.023 -0.328,-0.328 -0.648,-0.664 -0.961,-1.004 -0.308,-0.34 -0.574,-0.703 -0.793,-1.082 -0.738,0.297 -1.457,0.648 -2.16,1.054 -0.699,0.407 -1.18,1.028 -1.441,1.868 -0.555,1.847 -1.028,3.75 -1.414,5.711 -0.391,1.96 -0.754,3.898 -1.09,5.808 -0.059,0.336 -0.176,0.684 -0.36,1.055 -0.175,0.367 -0.375,0.691 -0.597,0.965 -0.535,-0.524 -0.91,-0.996 -1.121,-1.418 -0.211,-0.426 -0.325,-0.844 -0.336,-1.262 -0.012,-0.418 0.047,-0.871 0.176,-1.363 0.128,-0.492 0.257,-1.082 0.378,-1.778 0.204,-1.164 0.426,-2.3 0.668,-3.418 0.239,-1.113 0.489,-2.25 0.75,-3.402 0.157,-0.574 0.34,-0.965 0.547,-1.172 0.211,-0.203 0.535,-0.441 0.985,-0.703 -0.625,-0.512 -1.141,-1.031 -1.547,-1.559 -0.41,-0.531 -0.844,-1.105 -1.305,-1.73 -0.512,0.48 -1.062,0.883 -1.648,1.207 -0.586,0.328 -1.192,0.633 -1.813,0.926 0.172,0.316 0.328,0.637 0.473,0.961 0.14,0.324 0.18,0.683 0.109,1.07 -0.32,1.828 -0.676,3.648 -1.066,5.449 -0.391,1.805 -0.746,3.621 -1.067,5.449 -0.054,0.305 -0.207,0.567 -0.461,0.778 -0.253,0.215 -0.464,0.418 -0.644,0.617 -0.317,-0.316 -0.613,-0.687 -0.895,-1.125 -0.281,-0.434 -0.406,-0.891 -0.379,-1.375 0.067,-0.699 0.168,-1.477 0.301,-2.324 0.137,-0.848 0.282,-1.707 0.434,-2.582 0.156,-0.875 0.308,-1.739 0.461,-2.598 0.152,-0.859 0.289,-1.637 0.41,-2.328 0.113,-0.641 0.277,-1.082 0.492,-1.328 0.215,-0.25 0.504,-0.527 0.875,-0.832 -0.488,-0.488 -0.965,-0.981 -1.433,-1.477 -0.469,-0.496 -0.879,-1.062 -1.223,-1.695 -0.477,0.43 -1.035,0.832 -1.672,1.207 -0.637,0.371 -1.262,0.676 -1.875,0.914 0.102,0.219 0.219,0.402 0.352,0.555 0.128,0.152 0.242,0.32 0.339,0.508 0.094,0.187 0.153,0.421 0.176,0.695 0.024,0.277 -0.008,0.648 -0.09,1.121 -0.05,0.277 -0.121,0.723 -0.214,1.336 -0.094,0.609 -0.215,1.305 -0.368,2.078 -0.148,0.773 -0.304,1.582 -0.468,2.426 -0.164,0.844 -0.344,1.617 -0.54,2.328 -0.195,0.707 -0.394,1.309 -0.597,1.801 -0.199,0.496 -0.395,0.797 -0.586,0.902 -0.121,0.039 -0.25,0.043 -0.391,0.02 -0.25,-0.043 -0.468,-0.168 -0.664,-0.375 -0.191,-0.204 -0.355,-0.407 -0.492,-0.602 l -0.609,0.535 z m 42.41,-8.156 c -0.516,-0.859 -1.192,-1.664 -2.02,-2.418 -0.832,-0.754 -1.566,-1.512 -2.211,-2.273 -0.73,0.394 -1.351,0.906 -1.867,1.539 -0.519,0.628 -1.015,1.269 -1.492,1.921 -0.535,-0.718 -1.082,-1.418 -1.637,-2.093 -0.554,-0.68 -1.113,-1.379 -1.676,-2.102 -1.617,0.684 -2.753,1.676 -3.41,2.985 -0.656,1.308 -1.086,2.773 -1.285,4.394 -0.164,1.344 -0.238,2.481 -0.226,3.418 0.011,0.938 0.109,1.766 0.289,2.48 0.183,0.719 0.445,1.36 0.785,1.926 0.344,0.571 0.754,1.145 1.234,1.727 0.485,0.586 1.028,1.211 1.641,1.883 0.613,0.672 1.289,1.476 2.023,2.418 1.793,-0.746 3.598,-1.36 5.414,-1.844 -0.05,-0.746 -0.121,-1.492 -0.211,-2.238 -0.093,-0.75 -0.093,-1.5 0,-2.258 0.032,-0.25 0.075,-0.668 0.133,-1.258 0.059,-0.59 0.133,-1.262 0.227,-2.016 0.09,-0.754 0.207,-1.531 0.351,-2.34 0.141,-0.804 0.301,-1.542 0.485,-2.214 0.179,-0.672 0.386,-1.215 0.625,-1.625 0.234,-0.411 0.504,-0.598 0.812,-0.559 0.336,0.039 0.629,0.184 0.883,0.426 0.254,0.246 0.477,0.492 0.676,0.742 l 0.457,-0.621 z m -11.59,7.422 c 0.148,-1.199 0.309,-2.391 0.484,-3.578 0.172,-1.184 0.332,-2.375 0.481,-3.578 0.054,-0.446 0.242,-0.821 0.562,-1.122 0.321,-0.3 0.641,-0.585 0.957,-0.859 0.285,0.234 0.516,0.488 0.696,0.766 0.175,0.277 0.394,0.531 0.648,0.761 -0.195,0.911 -0.351,1.829 -0.465,2.75 -0.14,1.145 -0.246,2.286 -0.312,3.426 -0.071,1.141 -0.176,2.297 -0.321,3.473 -0.039,0.305 -0.074,0.594 -0.105,0.859 -0.035,0.266 -0.082,0.547 -0.148,0.852 -0.305,0.164 -0.665,0.394 -1.086,0.695 -0.418,0.305 -0.797,0.438 -1.133,0.395 -0.223,-0.028 -0.363,-0.258 -0.426,-0.692 -0.059,-0.433 -0.086,-0.926 -0.074,-1.476 0.011,-0.551 0.051,-1.086 0.113,-1.602 0.063,-0.519 0.106,-0.875 0.129,-1.07 z m 20.977,-7.25 c -0.672,-0.867 -1.454,-1.731 -2.336,-2.598 -0.887,-0.867 -1.723,-1.691 -2.516,-2.48 -0.606,0.605 -1.238,1.152 -1.891,1.644 -0.656,0.488 -1.336,0.949 -2.047,1.379 0.274,0.586 0.461,1.121 0.567,1.606 0.105,0.488 0.172,0.98 0.195,1.472 0.02,0.496 0.012,0.996 -0.023,1.504 -0.035,0.504 -0.074,1.067 -0.117,1.684 -0.258,3.707 -0.559,7.398 -0.899,11.07 -0.043,0.59 -0.098,1.145 -0.16,1.66 -0.066,0.516 -0.176,1.008 -0.336,1.477 -0.16,0.469 -0.375,0.922 -0.645,1.355 -0.269,0.43 -0.632,0.86 -1.085,1.278 0.015,0.226 0.085,0.414 0.214,0.566 0.133,0.148 0.204,0.336 0.215,0.562 0.817,-0.789 1.504,-1.714 2.059,-2.777 0.277,0.445 0.597,0.891 0.961,1.34 0.367,0.449 0.762,0.848 1.187,1.203 0.426,0.356 0.887,0.656 1.375,0.902 0.492,0.247 1.02,0.387 1.578,0.426 0.395,0.028 0.809,-0.015 1.239,-0.125 l 0.011,-0.804 c -0.14,0.019 -0.339,0.019 -0.589,0.003 -0.789,-0.054 -1.325,-0.445 -1.614,-1.171 -0.289,-0.727 -0.441,-1.571 -0.457,-2.532 -0.019,-0.961 0.035,-1.922 0.16,-2.886 0.125,-0.965 0.204,-1.715 0.243,-2.246 0.023,-0.368 0.062,-0.934 0.117,-1.708 0.054,-0.773 0.113,-1.636 0.183,-2.589 0.067,-0.953 0.137,-1.957 0.211,-3.012 0.071,-1.055 0.16,-2.043 0.27,-2.965 0.105,-0.926 0.219,-1.726 0.336,-2.41 0.121,-0.684 0.242,-1.133 0.371,-1.352 0.238,-0.207 0.5,-0.3 0.781,-0.281 0.395,0.027 0.762,0.215 1.106,0.563 0.339,0.347 0.644,0.644 0.91,0.89 l 0.426,-0.648 z m 9.3,0.097 c -0.703,-0.843 -1.511,-1.679 -2.425,-2.515 -0.915,-0.836 -1.782,-1.633 -2.598,-2.395 -0.586,0.629 -1.199,1.2 -1.836,1.711 -0.637,0.512 -1.301,0.996 -1.992,1.453 0.289,0.575 0.496,1.102 0.617,1.582 0.125,0.485 0.207,0.973 0.246,1.469 0.039,0.492 0.051,0.992 0.031,1.5 -0.015,0.508 -0.035,1.07 -0.058,1.688 -0.129,3.714 -0.301,7.41 -0.516,11.093 -0.019,0.59 -0.051,1.145 -0.098,1.664 -0.046,0.52 -0.14,1.016 -0.285,1.493 -0.144,0.472 -0.344,0.929 -0.597,1.371 -0.254,0.441 -0.602,0.883 -1.039,1.316 0.019,0.227 0.097,0.414 0.234,0.559 0.137,0.144 0.215,0.332 0.234,0.558 0.789,-0.82 1.442,-1.769 1.957,-2.847 0.297,0.433 0.633,0.867 1.012,1.3 0.379,0.438 0.789,0.825 1.227,1.165 0.437,0.339 0.906,0.621 1.406,0.851 0.5,0.231 1.031,0.352 1.594,0.371 0.394,0.016 0.804,-0.043 1.23,-0.168 l -0.016,-0.801 c -0.14,0.024 -0.336,0.028 -0.589,0.02 -0.789,-0.027 -1.34,-0.398 -1.653,-1.113 -0.312,-0.715 -0.496,-1.551 -0.547,-2.512 -0.05,-0.961 -0.031,-1.922 0.059,-2.891 0.09,-0.968 0.144,-1.722 0.164,-2.257 0.012,-0.364 0.031,-0.934 0.059,-1.708 0.027,-0.773 0.058,-1.636 0.093,-2.593 0.032,-0.957 0.067,-1.965 0.106,-3.02 0.035,-1.054 0.09,-2.047 0.164,-2.972 0.078,-0.926 0.16,-1.735 0.254,-2.418 0.097,-0.688 0.203,-1.141 0.324,-1.364 0.23,-0.218 0.488,-0.32 0.77,-0.312 0.394,0.015 0.769,0.191 1.125,0.527 0.351,0.336 0.668,0.621 0.941,0.856 l 0.402,-0.661 z m 42.469,-0.457 c -0.316,-0.39 -0.762,-0.843 -1.332,-1.371 -0.574,-0.523 -1.16,-1.054 -1.758,-1.593 -0.601,-0.539 -1.16,-1.028 -1.676,-1.473 -0.511,-0.438 -0.855,-0.758 -1.027,-0.953 -0.949,0.637 -1.699,1.48 -2.258,2.531 -0.558,1.051 -0.992,2.18 -1.293,3.383 -0.304,1.199 -0.492,2.422 -0.57,3.66 -0.078,1.242 -0.105,2.395 -0.086,3.465 0.016,0.957 0.121,1.715 0.313,2.273 0.191,0.563 0.484,1.016 0.867,1.36 0.386,0.343 0.855,0.617 1.41,0.82 0.551,0.199 1.195,0.422 1.933,0.664 -0.558,0.43 -0.96,0.949 -1.218,1.563 -0.258,0.609 -0.446,1.238 -0.559,1.886 -0.117,0.653 -0.195,1.305 -0.242,1.969 -0.043,0.66 -0.117,1.246 -0.223,1.754 -0.101,0.512 -0.277,0.93 -0.523,1.258 -0.25,0.328 -0.629,0.496 -1.133,0.504 -0.309,0.007 -0.594,-0.078 -0.852,-0.258 -0.253,-0.18 -0.484,-0.422 -0.687,-0.727 -0.203,-0.308 -0.363,-0.648 -0.48,-1.027 -0.122,-0.379 -0.184,-0.75 -0.192,-1.117 -0.015,-1.067 0.082,-2.168 0.301,-3.297 0.223,-1.129 0.32,-2.274 0.301,-3.426 -0.055,-3.266 -0.735,-6.23 -2.035,-8.898 -1.297,-2.664 -3.067,-5.161 -5.301,-7.489 -0.196,0.258 -0.43,0.524 -0.707,0.797 -0.278,0.27 -0.559,0.524 -0.852,0.754 -0.293,0.231 -0.578,0.418 -0.855,0.563 -0.278,0.144 -0.516,0.218 -0.715,0.222 -0.195,0.004 -0.402,-0.09 -0.617,-0.285 -0.215,-0.191 -0.407,-0.414 -0.582,-0.664 -0.172,-0.25 -0.325,-0.5 -0.457,-0.754 -0.129,-0.25 -0.223,-0.418 -0.282,-0.5 l -0.543,0.391 c 0.411,0.976 0.977,1.972 1.7,2.988 0.722,1.016 1.343,1.941 1.863,2.777 0.98,-0.355 1.797,-0.765 2.449,-1.226 0.656,-0.461 1.172,-0.977 1.559,-1.547 0.32,0.781 0.605,1.973 0.843,3.574 0.239,1.602 0.375,3.36 0.407,5.274 0.027,1.488 -0.043,3.054 -0.211,4.687 -0.172,1.637 -0.438,3.133 -0.809,4.492 -0.371,1.36 -0.859,2.485 -1.461,3.383 -0.605,0.899 -1.328,1.356 -2.176,1.367 -0.277,0.004 -0.519,-0.117 -0.722,-0.367 -0.199,-0.25 -0.305,-0.64 -0.317,-1.176 -0.004,-0.367 0.086,-0.847 0.27,-1.441 0.187,-0.594 0.394,-1.281 0.621,-2.059 0.227,-0.777 0.43,-1.66 0.605,-2.648 0.184,-0.988 0.262,-2.063 0.243,-3.215 -0.028,-1.465 -0.211,-2.875 -0.559,-4.234 -0.348,-1.36 -0.809,-2.684 -1.379,-3.965 -0.57,-1.285 -1.234,-2.52 -1.988,-3.703 -0.75,-1.184 -1.559,-2.332 -2.422,-3.442 -0.277,0.285 -0.582,0.586 -0.914,0.903 -0.332,0.312 -0.68,0.609 -1.043,0.882 -0.359,0.274 -0.707,0.497 -1.043,0.672 -0.336,0.176 -0.641,0.266 -0.922,0.27 -0.199,0.004 -0.398,-0.082 -0.598,-0.262 -0.199,-0.18 -0.386,-0.394 -0.558,-0.644 -0.176,-0.254 -0.34,-0.504 -0.5,-0.754 -0.16,-0.25 -0.281,-0.457 -0.371,-0.625 l -0.539,0.515 c 0.09,0.25 0.32,0.664 0.695,1.235 0.379,0.57 0.789,1.152 1.234,1.75 0.45,0.597 0.872,1.148 1.278,1.644 0.402,0.5 0.676,0.836 0.82,1 0.809,-0.324 1.547,-0.715 2.215,-1.179 0.668,-0.461 1.348,-0.981 2.043,-1.555 0.32,0.531 0.512,1.039 0.574,1.531 0.066,0.492 0.102,1.004 0.113,1.539 0.008,0.535 -0.039,1.367 -0.148,2.496 -0.106,1.129 -0.273,2.391 -0.504,3.785 -0.227,1.399 -0.519,2.832 -0.875,4.305 -0.352,1.469 -0.773,2.82 -1.258,4.055 -0.484,1.23 -1.023,2.242 -1.617,3.027 -0.59,0.781 -1.25,1.18 -1.984,1.195 -0.645,0.012 -1.121,-0.171 -1.422,-0.546 -0.305,-0.375 -0.461,-0.899 -0.473,-1.575 -0.012,-0.648 0.149,-1.324 0.473,-2.035 0.324,-0.711 0.742,-1.426 1.25,-2.156 0.508,-0.727 1.058,-1.438 1.652,-2.141 0.594,-0.699 1.145,-1.363 1.652,-1.992 0.512,-0.629 0.93,-1.199 1.258,-1.711 0.328,-0.511 0.492,-0.937 0.485,-1.273 -0.02,-1.184 -0.438,-2.168 -1.254,-2.957 -0.817,-0.789 -1.817,-1.172 -2.996,-1.149 -0.817,0.012 -1.543,0.27 -2.184,0.774 -0.641,0.508 -0.949,1.207 -0.934,2.109 0.004,0.254 0.129,0.625 0.379,1.113 0.246,0.489 0.598,0.825 1.051,1.016 l 0.625,-0.519 c -0.34,-0.133 -0.597,-0.34 -0.769,-0.622 -0.176,-0.277 -0.266,-0.586 -0.27,-0.921 -0.008,-0.45 0.109,-0.864 0.356,-1.231 0.25,-0.371 0.609,-0.562 1.089,-0.57 0.395,-0.008 0.754,0.094 1.082,0.301 0.329,0.203 0.497,0.531 0.504,0.98 0.012,0.676 -0.261,1.273 -0.816,1.789 -0.551,0.516 -1.168,1.117 -1.848,1.805 -0.675,0.687 -1.289,1.515 -1.836,2.48 -0.543,0.969 -0.804,2.227 -0.777,3.774 0.039,2.14 0.582,3.847 1.633,5.125 1.047,1.277 2.699,1.894 4.949,1.855 0.93,-0.015 1.813,-0.199 2.652,-0.555 0.84,-0.351 1.575,-0.871 2.211,-1.558 0.578,0.808 1.145,1.426 1.7,1.851 0.558,0.426 1.371,0.629 2.441,0.614 1.125,-0.02 2.176,-0.328 3.148,-0.922 0.977,-0.594 1.723,-1.375 2.243,-2.34 0.175,0.531 0.429,0.977 0.761,1.336 0.328,0.359 0.715,0.648 1.153,0.867 0.441,0.219 0.91,0.379 1.402,0.481 0.496,0.105 0.996,0.152 1.504,0.144 1.152,-0.019 2.074,-0.176 2.758,-0.469 0.683,-0.293 1.203,-0.683 1.562,-1.168 0.36,-0.484 0.594,-1.046 0.711,-1.683 0.113,-0.633 0.203,-1.289 0.262,-1.965 0.055,-0.68 0.121,-1.363 0.195,-2.051 0.07,-0.691 0.231,-1.336 0.473,-1.933 l 1.476,0.019 0.028,-0.887 c -0.817,-0.043 -1.657,-0.156 -2.52,-0.339 -0.859,-0.18 -1.687,-0.379 -2.48,-0.59 -0.227,-0.078 -0.407,-0.399 -0.543,-0.961 -0.137,-0.559 -0.211,-1.25 -0.227,-2.067 -0.015,-0.898 0.043,-1.898 0.18,-3 0.137,-1.097 0.336,-2.136 0.601,-3.113 0.266,-0.976 0.594,-1.801 0.993,-2.469 0.394,-0.668 0.847,-1.007 1.355,-1.015 0.391,-0.008 0.781,0.148 1.168,0.465 0.383,0.32 0.664,0.66 0.84,1.019 l 0.41,-0.723 z m 12.805,0.407 c -0.418,-0.426 -0.981,-0.918 -1.684,-1.473 -0.707,-0.559 -1.426,-1.102 -2.16,-1.645 -0.73,-0.539 -1.426,-1.015 -2.082,-1.433 -0.656,-0.414 -1.129,-0.699 -1.418,-0.856 -0.785,0.606 -1.418,1.309 -1.898,2.11 -0.481,0.801 -0.852,1.648 -1.114,2.551 -0.261,0.902 -0.426,1.836 -0.488,2.796 -0.062,0.961 -0.07,1.907 -0.02,2.832 0.032,0.622 0.082,1.282 0.145,1.981 0.066,0.703 0.187,1.394 0.363,2.074 0.176,0.68 0.422,1.317 0.735,1.906 0.312,0.59 0.746,1.082 1.3,1.477 0.793,0.551 1.571,1.113 2.332,1.695 0.762,0.578 1.606,1.055 2.528,1.43 0.711,-0.965 1.379,-1.961 2,-2.977 0.621,-1.019 1.187,-2.078 1.695,-3.175 -1.101,-0.59 -2.215,-1.133 -3.344,-1.625 -1.121,-0.489 -2.234,-1 -3.336,-1.536 -0.121,-0.191 -0.187,-0.414 -0.203,-0.667 -0.023,-0.45 -0.011,-1.047 0.035,-1.797 0.043,-0.75 0.153,-1.496 0.325,-2.239 0.172,-0.742 0.441,-1.39 0.808,-1.945 0.364,-0.555 0.856,-0.848 1.477,-0.879 0.336,-0.015 0.672,0.055 1.004,0.223 0.332,0.164 0.652,0.367 0.961,0.605 0.308,0.239 0.609,0.473 0.906,0.711 0.293,0.238 0.57,0.422 0.832,0.551 l 0.301,-0.695 z m -3.621,8.351 c -0.438,0.813 -0.848,1.555 -1.239,2.223 -0.386,0.668 -0.886,1.344 -1.5,2.023 -0.132,-0.953 -0.183,-1.816 -0.156,-2.593 0.031,-0.778 0.02,-1.641 -0.031,-2.598 -0.004,-0.055 0.019,-0.172 0.066,-0.344 0.492,0.203 0.973,0.41 1.449,0.625 0.477,0.215 0.946,0.434 1.411,0.664 z m 12.781,12.086 c -0.086,0.008 -0.27,0.016 -0.551,0.028 -0.281,0.011 -0.57,0 -0.871,-0.032 -0.301,-0.031 -0.574,-0.082 -0.82,-0.16 -0.246,-0.078 -0.375,-0.199 -0.391,-0.367 -0.023,-0.281 0.195,-0.59 0.66,-0.93 0.465,-0.336 1.043,-0.746 1.735,-1.23 0.695,-0.485 1.449,-1.047 2.269,-1.684 0.82,-0.637 1.559,-1.387 2.219,-2.25 0.66,-0.863 1.187,-1.847 1.586,-2.957 0.398,-1.109 0.535,-2.363 0.41,-3.765 -0.191,-2.215 -0.836,-4.262 -1.934,-6.145 -1.097,-1.883 -2.378,-3.621 -3.847,-5.215 -0.407,-0.445 -0.805,-0.898 -1.199,-1.359 -0.395,-0.461 -0.872,-0.805 -1.426,-1.039 -0.961,0.675 -1.918,1.347 -2.875,2.008 -0.961,0.664 -1.985,1.242 -3.071,1.73 0.368,0.676 0.653,1.238 0.848,1.687 0.192,0.45 0.336,0.879 0.43,1.297 0.094,0.414 0.16,0.868 0.203,1.36 0.043,0.492 0.098,1.129 0.168,1.914 0.125,1.429 0.223,2.871 0.293,4.32 0.07,1.445 0.152,2.887 0.25,4.32 1.379,0.247 2.738,0.622 4.082,1.125 -0.402,0.235 -0.887,0.524 -1.449,0.872 -0.563,0.343 -1.094,0.73 -1.594,1.156 -0.5,0.426 -0.91,0.883 -1.234,1.379 -0.325,0.496 -0.461,1.023 -0.415,1.582 0.071,0.785 0.313,1.402 0.735,1.843 0.422,0.446 0.93,0.762 1.523,0.95 0.598,0.187 1.235,0.285 1.914,0.297 0.68,0.011 1.325,-0.008 1.942,-0.063 l 0.629,-0.098 -0.219,-0.574 z m -1.477,-7.668 -0.238,-2.695 c -0.16,-1.848 -0.285,-3.695 -0.379,-5.539 -0.09,-1.844 -0.187,-3.692 -0.293,-5.547 0.352,-0.512 0.781,-0.902 1.297,-1.172 0.512,-0.273 1.008,-0.586 1.484,-0.937 0.731,0.898 1.211,1.902 1.45,3.011 0.242,1.106 0.406,2.211 0.504,3.305 0.074,0.84 0.066,1.723 -0.024,2.648 -0.09,0.926 -0.269,1.825 -0.547,2.7 -0.277,0.871 -0.679,1.668 -1.211,2.394 -0.531,0.723 -1.199,1.305 -2.008,1.742 l -0.035,0.09 z"
         style="fill:#151616;fill-opacity:1;fill-rule:evenodd;stroke:none"
         id="path3888"
         inkscape:connector-curvature="0" />
      <path
         d="m 404.73,948.183 c 0.504,-0.055 0.911,-0.223 1.219,-0.512 0.313,-0.285 0.442,-0.668 0.391,-1.144 -0.02,-0.168 -0.047,-0.329 -0.094,-0.477 -0.043,-0.152 -0.101,-0.293 -0.172,-0.43 -0.574,-0.617 -1.144,-1.246 -1.703,-1.879 -0.562,-0.632 -1.207,-1.183 -1.937,-1.644 0.004,0.566 -0.004,1.141 -0.028,1.723 -0.027,0.582 -0.008,1.156 0.051,1.714 0.035,0.336 0.09,0.676 0.172,1.024 0.078,0.344 0.203,0.644 0.367,0.894 0.168,0.25 0.395,0.446 0.68,0.586 0.281,0.141 0.633,0.188 1.054,0.145 z m -2.156,-6.777 c 0.539,-0.512 1.067,-1.028 1.578,-1.547 0.512,-0.524 1.039,-1.036 1.578,-1.547 -0.441,-0.434 -0.761,-0.938 -0.964,-1.512 -0.204,-0.574 -0.336,-1.168 -0.399,-1.781 -0.226,-2.129 -0.441,-3.86 -0.652,-5.196 -0.215,-1.339 -0.344,-2.394 -0.399,-3.164 -0.05,-0.773 0.004,-1.312 0.172,-1.613 0.164,-0.301 0.516,-0.476 1.047,-0.535 0.223,-0.023 0.477,0.027 0.758,0.156 0.285,0.125 0.516,0.25 0.699,0.371 l 0.231,-1.043 c -0.004,-0.027 -0.063,-0.093 -0.172,-0.191 -0.11,-0.106 -0.231,-0.211 -0.371,-0.324 -0.141,-0.114 -0.278,-0.211 -0.414,-0.297 -0.137,-0.082 -0.219,-0.141 -0.25,-0.164 -0.618,-0.473 -1.254,-0.946 -1.911,-1.41 -0.66,-0.473 -1.332,-0.895 -2.023,-1.278 -0.422,0.555 -0.883,1.094 -1.383,1.614 -0.496,0.519 -0.984,1.043 -1.465,1.574 0.567,0.847 0.922,1.777 1.055,2.797 0.137,1.019 0.258,2.019 0.359,3 0.02,0.195 0.063,0.539 0.129,1.027 0.067,0.484 0.129,1.031 0.192,1.633 0.066,0.601 0.117,1.242 0.16,1.914 0.043,0.676 0.066,1.289 0.066,1.84 0,0.554 -0.043,1.011 -0.133,1.375 -0.089,0.363 -0.218,0.554 -0.382,0.57 -0.309,0.031 -0.61,-0.051 -0.899,-0.246 -0.289,-0.195 -0.566,-0.336 -0.828,-0.422 l -0.281,0.965 c 0.035,0.082 0.285,0.289 0.742,0.621 0.461,0.336 0.973,0.699 1.539,1.09 0.567,0.394 1.106,0.762 1.621,1.105 0.52,0.34 0.852,0.547 1,0.618 z m 16.043,-17.407 c -0.461,-0.383 -1.07,-0.812 -1.828,-1.293 -0.762,-0.476 -1.535,-0.945 -2.32,-1.406 -0.785,-0.461 -1.528,-0.863 -2.223,-1.207 -0.695,-0.348 -1.195,-0.582 -1.5,-0.703 -0.719,0.683 -1.273,1.449 -1.668,2.293 -0.39,0.848 -0.672,1.73 -0.84,2.656 -0.168,0.926 -0.23,1.867 -0.191,2.832 0.039,0.961 0.129,1.902 0.273,2.82 0.098,0.61 0.215,1.262 0.352,1.954 0.14,0.691 0.332,1.367 0.578,2.023 0.246,0.66 0.559,1.266 0.93,1.82 0.375,0.555 0.855,0.996 1.453,1.328 0.84,0.469 1.672,0.95 2.492,1.446 0.82,0.496 1.707,0.883 2.664,1.16 0.606,-1.035 1.164,-2.094 1.676,-3.172 0.515,-1.078 0.965,-2.191 1.355,-3.336 -1.16,-0.473 -2.324,-0.894 -3.492,-1.266 -1.172,-0.367 -2.332,-0.761 -3.48,-1.179 -0.141,-0.176 -0.231,-0.391 -0.274,-0.641 -0.07,-0.445 -0.121,-1.043 -0.152,-1.793 -0.035,-0.75 -0.004,-1.5 0.09,-2.258 0.093,-0.754 0.293,-1.429 0.597,-2.019 0.309,-0.59 0.766,-0.934 1.379,-1.027 0.332,-0.055 0.672,-0.016 1.02,0.113 0.351,0.133 0.691,0.297 1.023,0.504 0.328,0.203 0.657,0.406 0.973,0.613 0.316,0.207 0.613,0.359 0.883,0.461 l 0.23,-0.723 z m -2.73,8.684 c -0.348,0.851 -0.68,1.633 -0.996,2.336 -0.317,0.707 -0.743,1.429 -1.282,2.172 -0.234,-0.934 -0.375,-1.785 -0.425,-2.563 -0.055,-0.773 -0.153,-1.637 -0.305,-2.582 -0.008,-0.055 0,-0.172 0.031,-0.348 0.508,0.149 1.008,0.305 1.508,0.469 0.496,0.164 0.984,0.336 1.469,0.516 z m 12.59,7.551 c -0.301,0.082 -0.622,0.16 -0.965,0.234 -0.348,0.074 -0.668,0.109 -0.969,0.105 -0.301,-0.003 -0.555,-0.07 -0.766,-0.207 -0.211,-0.132 -0.343,-0.367 -0.402,-0.699 -0.082,-0.472 0.039,-0.836 0.363,-1.094 0.328,-0.257 0.672,-0.539 1.032,-0.847 0.359,-0.305 0.656,-0.699 0.882,-1.184 0.231,-0.484 0.223,-1.176 -0.019,-2.074 0.762,0.434 1.527,0.98 2.301,1.629 0.773,0.648 1.457,1.293 2.054,1.93 1.16,-1.375 2.016,-2.789 2.574,-4.246 0.559,-1.458 0.676,-3.098 0.356,-4.93 -0.203,-1.137 -0.648,-2.238 -1.336,-3.301 -0.687,-1.066 -1.484,-2.074 -2.398,-3.031 -0.911,-0.953 -1.864,-1.856 -2.856,-2.711 -0.996,-0.852 -1.914,-1.633 -2.75,-2.344 -0.875,0.727 -1.723,1.477 -2.543,2.25 -0.82,0.774 -1.703,1.484 -2.644,2.137 0.468,0.547 0.824,0.992 1.07,1.336 0.246,0.34 0.43,0.644 0.547,0.91 0.117,0.266 0.195,0.531 0.226,0.797 0.032,0.265 0.082,0.59 0.153,0.98 l 1.488,8.442 c 0.109,0.636 0.07,1.136 -0.121,1.5 -0.195,0.363 -0.418,0.679 -0.668,0.953 -0.254,0.273 -0.481,0.562 -0.684,0.871 -0.203,0.305 -0.254,0.738 -0.156,1.293 0.141,0.805 0.473,1.422 0.992,1.859 0.52,0.438 1.114,0.719 1.778,0.844 0.664,0.129 1.351,0.121 2.054,-0.016 0.703,-0.14 1.313,-0.382 1.821,-0.73 l -0.414,-0.656 z m -0.985,-6.559 c -0.199,-1.621 -0.422,-3.211 -0.668,-4.769 -0.25,-1.555 -0.512,-3.125 -0.789,-4.704 -0.043,-0.25 -0.047,-0.55 -0.008,-0.902 0.039,-0.348 0.106,-0.644 0.207,-0.891 0.332,-0.375 0.672,-0.656 1.008,-0.843 0.34,-0.188 0.715,-0.407 1.129,-0.649 0.551,0.531 1.004,1.114 1.359,1.754 0.356,0.637 0.598,1.328 0.731,2.078 0.133,0.75 0.223,1.547 0.273,2.395 0.051,0.851 0.036,1.695 -0.046,2.539 -0.079,0.844 -0.254,1.66 -0.532,2.453 -0.273,0.789 -0.656,1.5 -1.144,2.129 l -1.52,-0.59 z m 22.227,-16.125 c -0.766,-0.641 -1.668,-1.184 -2.696,-1.629 -1.031,-0.441 -1.972,-0.918 -2.832,-1.426 -0.558,0.61 -0.98,1.297 -1.265,2.059 -0.281,0.766 -0.543,1.535 -0.781,2.305 -0.743,-0.504 -1.485,-0.985 -2.231,-1.446 -0.746,-0.461 -1.5,-0.941 -2.269,-1.441 -1.305,1.172 -2.055,2.48 -2.25,3.934 -0.196,1.449 -0.125,2.976 0.214,4.57 0.282,1.324 0.582,2.426 0.899,3.308 0.316,0.883 0.676,1.633 1.082,2.25 0.406,0.622 0.863,1.141 1.367,1.567 0.508,0.426 1.086,0.836 1.731,1.23 0.644,0.395 1.367,0.809 2.164,1.242 0.796,0.438 1.699,0.981 2.699,1.629 1.453,-1.285 2.961,-2.457 4.519,-3.507 -0.289,-0.684 -0.597,-1.368 -0.929,-2.047 -0.332,-0.676 -0.579,-1.387 -0.735,-2.133 -0.051,-0.246 -0.148,-0.656 -0.285,-1.234 -0.137,-0.575 -0.281,-1.235 -0.441,-1.977 -0.157,-0.742 -0.301,-1.52 -0.43,-2.324 -0.129,-0.809 -0.215,-1.559 -0.262,-2.254 -0.047,-0.695 -0.027,-1.278 0.059,-1.742 0.09,-0.465 0.285,-0.727 0.59,-0.793 0.328,-0.071 0.656,-0.032 0.972,0.117 0.321,0.148 0.614,0.308 0.879,0.48 l 0.231,-0.738 z m -8.539,10.793 c -0.25,-1.184 -0.489,-2.363 -0.707,-3.539 -0.223,-1.176 -0.461,-2.356 -0.711,-3.539 -0.094,-0.442 -0.039,-0.856 0.168,-1.246 0.203,-0.387 0.414,-0.762 0.625,-1.125 0.343,0.129 0.644,0.297 0.902,0.5 0.262,0.203 0.547,0.371 0.863,0.508 0.11,0.925 0.262,1.843 0.457,2.75 0.239,1.129 0.512,2.246 0.817,3.343 0.308,1.102 0.582,2.231 0.828,3.387 0.066,0.301 0.125,0.586 0.18,0.848 0.058,0.261 0.101,0.543 0.14,0.855 -0.234,0.25 -0.5,0.586 -0.801,1.012 -0.296,0.422 -0.613,0.668 -0.941,0.738 -0.223,0.047 -0.43,-0.125 -0.629,-0.515 -0.199,-0.387 -0.383,-0.844 -0.551,-1.372 -0.168,-0.523 -0.308,-1.042 -0.418,-1.55 -0.105,-0.512 -0.179,-0.86 -0.222,-1.055 z m 17.984,-10.637 c -0.898,-0.633 -1.894,-1.234 -2.992,-1.8 -1.102,-0.571 -2.145,-1.118 -3.133,-1.641 -0.402,0.758 -0.844,1.465 -1.328,2.129 -0.484,0.66 -1,1.297 -1.551,1.918 0.43,0.476 0.766,0.933 1.012,1.367 0.242,0.437 0.449,0.887 0.613,1.355 0.164,0.465 0.305,0.946 0.422,1.442 0.113,0.492 0.238,1.043 0.379,1.644 0.836,3.621 1.625,7.239 2.375,10.848 0.133,0.578 0.242,1.121 0.332,1.637 0.09,0.511 0.129,1.015 0.113,1.511 -0.015,0.497 -0.09,0.989 -0.222,1.481 -0.133,0.492 -0.352,1.008 -0.664,1.539 0.078,0.215 0.203,0.375 0.371,0.48 0.168,0.106 0.293,0.262 0.371,0.477 0.55,-0.996 0.933,-2.078 1.152,-3.258 0.398,0.344 0.836,0.676 1.316,0.996 0.477,0.325 0.973,0.594 1.485,0.809 0.512,0.211 1.039,0.363 1.578,0.457 0.543,0.094 1.086,0.074 1.637,-0.051 0.382,-0.09 0.765,-0.25 1.144,-0.484 l -0.222,-0.77 c -0.129,0.059 -0.317,0.117 -0.567,0.172 -0.765,0.18 -1.394,-0.039 -1.883,-0.648 -0.484,-0.61 -0.879,-1.371 -1.175,-2.285 -0.297,-0.915 -0.528,-1.848 -0.692,-2.809 -0.164,-0.957 -0.305,-1.699 -0.426,-2.219 -0.082,-0.355 -0.211,-0.91 -0.386,-1.668 -0.172,-0.754 -0.368,-1.597 -0.582,-2.527 -0.215,-0.934 -0.442,-1.914 -0.68,-2.942 -0.238,-1.031 -0.441,-2 -0.609,-2.918 -0.168,-0.91 -0.293,-1.714 -0.383,-2.402 -0.086,-0.687 -0.098,-1.152 -0.039,-1.398 0.168,-0.27 0.39,-0.438 0.664,-0.5 0.386,-0.09 0.793,-0.016 1.218,0.218 0.43,0.231 0.809,0.426 1.133,0.582 l 0.219,-0.742 z"
         style="fill:#151616;fill-opacity:1;fill-rule:evenodd;stroke:none"
         id="path3890"
         inkscape:connector-curvature="0" />
    </g>
  </g>
</svg>
